# Creator xfrog, (c) 1997-2002 by Greenworks, Lintermann und Deussen GdBR (see http://www.greenworks.de)
# "date: Thu, 01 Feb 2007 14:01:49"

mtllib stem_00002.mtl


# vertices 161

# triangles 312

v 0 0.5 0
vn -0.13666 0.975114 -0.174576
vt 1 0
v 0.353553 0.353553 0
vn 0.600824 0.787007 -0.140111
vt 0.875 0
v 0.5 0 0
vn 0.990529 0.135038 -0.0248521
vt 0.75 0
v 0.353553 -0.353553 0
vn 0.795466 -0.598877 0.0926276
vt 0.625 0
v 0 -0.5 0
vn 0.136566 -0.979445 0.148452
vt 0.5 0
v -0.353553 -0.353553 0
vn -0.601658 -0.789679 0.120058
vt 0.375 0
v -0.5 0 0
vn -0.990613 -0.13527 0.0196739
vt 0.25 0
v -0.353553 0.353553 0
vn -0.795161 0.597438 -0.103858
vt 0.125 0
vt 0 0
v 0 0.574651 0.412817
vn -0.000967463 0.970183 -0.242373
vt 1 1
v 0.354007 0.429932 0.436439
vn 0.706335 0.68554 -0.176428
vt 0.875 1
v 0.500641 0.0805492 0.493469
vn 0.999918 -0.00352624 -0.0122928
vt 0.75 1
v 0.354007 -0.268834 0.550499
vn 0.706754 -0.69178 0.148122
vt 0.625 1
v 0 -0.413553 0.574122
vn 0.000638145 -0.975941 0.218036
vt 0.5 1
v -0.354007 -0.268834 0.550499
vn -0.706763 -0.688724 0.161697
vt 0.375 1
v -0.500641 0.0805492 0.493469
vn -0.99998 0.00235242 0.00593502
vt 0.25 1
v -0.354007 0.429932 0.436439
vn -0.706348 0.688576 -0.164118
vt 0.125 1
vt 0 1
v 0 0.707767 0.823173
vn -0.000692458 0.933432 -0.358754
vt 1 2
v 0.35504 0.567244 0.866539
vn 0.706514 0.658923 -0.258182
vt 0.875 2
v 0.502102 0.227992 0.971235
vn 0.999938 -0.00422189 -0.0102785
vt 0.75 2
v 0.35504 -0.11126 1.07593
vn 0.706864 -0.66697 0.23557
vt 0.625 2
v 0 -0.251782 1.1193
vn 0.000460928 -0.940291 0.34037
vt 0.5 2
v -0.35504 -0.11126 1.07593
vn -0.706892 -0.663047 0.246317
vt 0.375 2
v -0.502102 0.227992 0.971235
vn -0.99999 0.00227764 0.00397405
vt 0.25 2
v -0.35504 0.567244 0.866539
vn -0.706547 0.662613 -0.248465
vt 0.125 2
vt 0 2
v 0 0.889411 1.22752
vn -0.000451003 0.894807 -0.446452
vt 1 3
v 0.355778 0.75441 1.28661
vn 0.706746 0.631542 -0.31885
vt 0.875 3
v 0.503146 0.428488 1.42928
vn 0.999975 -0.00336663 -0.00620025
vt 0.75 3
v 0.355778 0.102566 1.57194
vn 0.70693 -0.637855 0.3056
vt 0.625 3
v 0 -0.0324351 1.63103
vn 0.000322831 -0.899389 0.43715
vt 0.5 3
v -0.355778 0.102566 1.57194
vn -0.706938 -0.633915 0.313672
vt 0.375 3
v -0.503146 0.428488 1.42928
vn -0.999987 0.00270754 0.00442253
vt 0.25 3
v -0.355778 0.75441 1.28661
vn -0.706756 0.635157 -0.311563
vt 0.125 3
vt 0 3
v 0 1.10953 1.62606
vn -0.00025047 0.861571 -0.507637
vt 1 4
v 0.355346 0.980472 1.69683
vn 0.706962 0.608713 -0.360102
vt 0.875 4
v 0.502535 0.668898 1.86769
vn 1 -0.000503229 -0.000302644
vt 0.75 4
v 0.355346 0.357324 2.03854
vn 0.706957 -0.609149 0.359374
vt 0.625 4
v 0 0.228266 2.10931
vn 0.000216829 -0.860088 0.510145
vt 0.5 4
v -0.355346 0.357324 2.03854
vn -0.706931 -0.605823 0.365004
vt 0.375 4
v -0.502535 0.668898 1.86769
vn -0.999965 0.00440864 0.00707672
vt 0.25 4
v -0.355346 0.980472 1.69683
vn -0.70693 0.611722 -0.35503
vt 0.125 4
vt 0 4
v 0 1.35821 2.02193
vn -0.000100163 0.837567 -0.546334
vt 1 5
v 0.352806 1.23489 2.10034
vn 0.707094 0.592883 -0.385367
vt 0.875 5
v 0.498944 0.93716 2.28963
vn 0.999978 0.00340466 0.00562747
vt 0.75 5
v 0.352806 0.639432 2.47892
vn 0.706954 -0.58546 0.396803
vt 0.625 5
v 0 0.516109 2.55732
vn 0.000138239 -0.828495 0.559996
vt 0.5 5
v -0.352806 0.639432 2.47892
vn -0.706904 -0.583167 0.400254
vt 0.375 5
v -0.498944 0.93716 2.28963
vn -0.999926 0.00670354 0.0101363
vt 0.25 5
v -0.352806 1.23489 2.10034
vn -0.707034 0.59495 -0.382279
vt 0.125 5
vt 0 5
v 0 1.62729 2.41924
vn -1.75698e-005 0.82463 -0.565673
vt 1 6
v 0.348627 1.50866 2.50159
vn 0.707093 0.584991 -0.397246
vt 0.875 6
v 0.493033 1.22227 2.70038
vn 0.999922 0.00707845 0.0103285
vt 0.75 6
v 0.348627 0.935869 2.89917
vn 0.706971 -0.570481 0.418023
vt 0.625 6
v 0 0.817239 2.98151
vn 6.9843e-005 -0.809304 0.58739
vt 0.5 6
v -0.348627 0.935869 2.89917
vn -0.706932 -0.569492 0.419436
vt 0.375 6
v -0.493033 1.22227 2.70038
vn -0.99989 0.00848112 0.0121374
vt 0.25 6
v -0.348627 1.50866 2.50159
vn -0.707044 0.585873 -0.396032
vt 0.125 6
vt 0 6
v 0 1.90807 2.82336
vn 1.18439e-005 0.824731 -0.565525
vt 1 7
v 0.343112 1.79264 2.90628
vn 0.706994 0.58642 -0.395311
vt 0.875 7
v 0.485234 1.51398 3.10646
vn 0.999831 0.0106424 0.014962
vt 0.75 7
v 0.343112 1.23532 3.30664
vn 0.706989 -0.565332 0.424931
vt 0.625 7
v 0 1.11989 3.38956
vn 1.70424e-005 -0.804094 0.594502
vt 0.5 7
v -0.343112 1.23532 3.30664
vn -0.706991 -0.565755 0.424364
vt 0.375 7
v -0.485234 1.51398 3.10646
vn -0.99985 0.0100704 0.014115
vt 0.25 7
v -0.343112 1.79264 2.90628
vn -0.706982 0.586016 -0.395931
vt 0.125 7
vt 0 7
v 0 2.19055 3.24079
vn -4.15615e-006 0.838465 -0.544956
vt 1 8
v 0.335998 2.07686 3.32107
vn 0.706796 0.597603 -0.378563
vt 0.875 8
v 0.475173 1.8024 3.51489
vn 0.999684 0.0143278 0.0206385
vt 0.75 8
v 0.335998 1.52794 3.70871
vn 0.706989 -0.569936 0.418737
vt 0.625 8
v 0 1.41425 3.78899
vn -1.58074e-005 -0.812798 0.582545
vt 0.5 8
v -0.335998 1.52794 3.70871
vn -0.707062 -0.571724 0.416168
vt 0.375 8
v -0.475173 1.8024 3.51489
vn -0.999784 0.0119101 0.0170581
vt 0.25 8
v -0.335998 2.07686 3.32107
vn -0.706842 0.595962 -0.381055
vt 0.125 8
vt 0 8
v 0 2.46347 3.67815
vn -6.65845e-005 0.86433 -0.502924
vt 1 9
v 0.326854 2.35041 3.75263
vn 0.706474 0.617309 -0.346157
vt 0.875 9
v 0.462242 2.07745 3.93244
vn 0.99946 0.0177176 0.027666
vt 0.75 9
v 0.326854 1.8045 4.11224
vn 0.706968 -0.583822 0.399185
vt 0.625 9
v 0 1.69144 4.18672
vn -3.04488e-005 -0.834513 0.550989
vt 0.5 9
v -0.326854 1.8045 4.11224
vn -0.707153 -0.586778 0.394496
vt 0.375 9
v -0.462242 2.07745 3.93244
vn -0.999681 0.0137831 0.0211458
vt 0.25 9
v -0.326854 2.35041 3.75263
vn -0.706612 0.614611 -0.350648
vt 0.125 9
vt 0 9
v 0 2.7142 4.14099
vn -0.000180792 0.898518 -0.438937
vt 1 10
v 0.315393 2.60121 4.20657
vn 0.706048 0.642397 -0.298031
vt 0.875 10
v 0.446032 2.32843 4.36488
vn 0.999199 0.0194745 0.0349538
vt 0.75 10
v 0.315393 2.05565 4.5232
vn 0.706966 -0.606397 0.363981
vt 0.625 10
v 0 1.94266 4.58877
vn -2.27617e-005 -0.867762 0.49698
vt 0.5 10
v -0.315393 2.05565 4.5232
vn -0.707297 -0.610177 0.356953
vt 0.375 10
v -0.446032 2.32843 4.36488
vn -0.999577 0.0145454 0.0251654
vt 0.25 10
v -0.315393 2.60121 4.20657
vn -0.706317 0.638948 -0.304732
vt 0.125 10
vt 0 10
v 0 2.92952 4.63219
vn -0.000328275 0.936195 -0.351481
vt 1 11
v 0.30229 2.8165 4.68608
vn 0.705595 0.669119 -0.233273
vt 0.875 11
v 0.427503 2.54364 4.8162
vn 0.998945 0.0187928 0.0418915
vt 0.75 11
v 0.30229 2.27079 4.94631
vn 0.706972 -0.635232 0.31092
vt 0.625 11
v 0 2.15777 5.0002
vn 1.16097e-005 -0.90862 0.417624
vt 0.5 11
v -0.30229 2.27079 4.94631
vn -0.707477 -0.63928 0.301328
vt 0.375 11
v -0.427503 2.54364 4.8162
vn -0.9995 0.0136896 0.0285144
vt 0.25 11
v -0.30229 2.8165 4.68608
vn -0.706011 0.665424 -0.242404
vt 0.125 11
vt 0 11
v 0 3.09395 5.15199
vn -0.000500931 0.971705 -0.236196
vt 1 12
v 0.28774 2.98157 5.19171
vn 0.705033 0.693531 -0.148132
vt 0.875 12
v 0.406926 2.71028 5.28761
vn 0.998577 0.0162225 0.050805
vt 0.75 12
v 0.28774 2.439 5.38351
vn 0.706901 -0.665001 0.240967
vt 0.625 12
v 0 2.32662 5.42323
vn 6.35466e-005 -0.94963 0.313374
vt 0.5 12
v -0.28774 2.439 5.38351
vn -0.707642 -0.668532 0.22871
vt 0.375 12
v -0.406926 2.71028 5.28761
vn -0.999359 0.0121054 0.0336927
vt 0.25 12
v -0.28774 2.98157 5.19171
vn -0.705613 0.690338 -0.159825
vt 0.125 12
vt 0 12
v 0 3.1887 5.69673
vn -0.000732319 0.995917 -0.0902752
vt 1 13
v 0.27043 3.07915 5.72012
vn 0.704141 0.708923 -0.0401735
vt 0.875 13
v 0.382445 2.81468 5.77659
vn 0.997931 0.0110933 0.0633356
vt 0.75 13
v 0.27043 2.55021 5.83305
vn 0.706747 -0.690244 0.15515
vt 0.625 13
v 0 2.44067 5.85644
vn 0.000106804 -0.98272 0.185096
vt 0.5 13
v -0.27043 2.55021 5.83305
vn -0.70784 -0.692313 0.140232
vt 0.375 13
v -0.382445 2.81468 5.77659
vn -0.999052 0.00935202 0.042516
vt 0.25 13
v -0.27043 3.07915 5.72012
vn -0.704971 0.707141 -0.0544746
vt 0.125 13
vt 0 13
v 0 3.19477 6.25584
vn -0.00101247 0.996176 0.0873648
vt 1 14
v 0.249147 3.09173 6.26168
vn 0.70268 0.705555 0.0918319
vt 0.875 14
v 0.352347 2.84298 6.27579
vn 0.996683 0.00107784 0.0813731
vt 0.75 14
v 0.249147 2.59424 6.28989
vn 0.706307 -0.705662 0.0563077
vt 0.625 14
v 0 2.4912 6.29573
vn 9.14497e-005 -0.999343 0.0362313
vt 0.5 14
v -0.249147 2.59424 6.28989
vn -0.707976 -0.705153 0.0391049
vt 0.375 14
v -0.352347 2.84298 6.27579
vn -0.998345 0.00339181 0.0574054
vt 0.25 14
v -0.249147 3.09173 6.26168
vn -0.703868 0.70634 0.0751879
vt 0.125 14
vt 0 14
v 0 3.09231 6.8099
vn -0.00139872 0.955614 0.294617
vt 1 15
v 0.220726 3.00156 6.79883
vn 0.69992 0.670184 0.246911
vt 0.875 15
v 0.312154 2.78246 6.77211
vn 0.99409 -0.0182479 0.107014
vt 0.75 15
v 0.220726 2.56335 6.74539
vn 0.705272 -0.707165 -0.0500889
vt 0.625 15
v 0 2.4726 6.73432
vn -8.7589e-005 -0.992007 -0.126184
vt 0.5 15
v -0.220726 2.56335 6.74539
vn -0.707925 -0.702916 -0.068929
vt 0.375 15
v -0.312154 2.78246 6.77211
vn -0.996671 -0.0101181 0.080899
vt 0.25 15
v -0.220726 3.00156 6.79883
vn -0.701718 0.674829 0.228471
vt 0.125 15
vt 0 15
v 0 2.86635 7.32762
vn -0.00218343 0.863343 0.504614
vt 1 16
v 0.181147 2.79521 7.30376
vn 0.696447 0.595662 0.400185
vt 0.875 16
v 0.25618 2.62346 7.24616
vn 0.991738 -0.0456689 0.119872
vt 0.75 16
v 0.181147 2.45172 7.18855
vn 0.705192 -0.685715 -0.180277
vt 0.625 16
v 0 2.38058 7.16469
vn -0.00016563 -0.948436 -0.316967
vt 0.5 16
v -0.181147 2.45172 7.18855
vn -0.708633 -0.676459 -0.200606
vt 0.375 16
v -0.25618 2.62346 7.24616
vn -0.995287 -0.0302217 0.0921382
vt 0.25 16
v -0.181147 2.79521 7.30376
vn -0.699402 0.60516 0.380288
vt 0.125 16
vt 0 16
v 0 2.53095 7.77596
vn -0.00290947 0.734218 0.678908
vt 1 17
v 0.140092 2.48148 7.74563
vn 0.696954 0.498983 0.515046
vt 0.875 17
v 0.198119 2.36206 7.67239
vn 0.994355 -0.0579069 0.0889127
vt 0.75 17
v 0.140092 2.24264 7.59915
vn 0.707751 -0.608948 -0.358149
vt 0.625 17
v 0 2.19317 7.56881
vn 0.00029247 -0.831233 -0.555924
vt 0.5 17
v -0.140092 2.24264 7.59915
vn -0.710709 -0.593028 -0.378432
vt 0.375 17
v -0.198119 2.36206 7.67239
vn -0.997528 -0.03343 0.0618061
vt 0.25 17
v -0.140092 2.48148 7.74563
vn -0.700392 0.514214 0.49501
vt 0.125 17
vt 0 17
v 0 2.11913 8.14013
vn 0.00660728 0.774015 0.633133
vt 1 18
v 0.117911 2.08513 8.10507
vn 0.69229 0.590204 0.415202
vt 0.875 18
v 0.166752 2.00306 8.02041
vn 0.973555 0.178868 -0.142118
vt 0.75 18
v 0.117911 1.92099 7.93575
vn 0.676865 -0.206371 -0.706587
vt 0.625 18
v 0 1.887 7.90068
vn -0.00893916 -0.33857 -0.940899
vt 0.5 18
v -0.117911 1.92099 7.93575
vn -0.681769 -0.152236 -0.715552
vt 0.375 18
v -0.166752 2.00306 8.02041
vn -0.955477 0.24553 -0.163644
vt 0.25 18
v -0.117911 2.08513 8.10507
vn -0.672593 0.627449 0.392334
vt 0.125 18
vt 0 18
v 0 1.79555 8.68878
vn 0.102903 0.449722 0.887221
vt 1 19
v 0.346249 1.72745 8.56256
vn 0.790313 0.283454 0.543194
vt 0.875 19
v 0.48967 1.56303 8.25784
vn 0.990367 -0.0222958 -0.13666
vt 0.75 19
v 0.346249 1.39861 7.95311
vn 0.623632 -0.267319 -0.734591
vt 0.625 19
v 0 1.33051 7.8269
vn -0.0643577 -0.342495 -0.937313
vt 0.5 19
v -0.346249 1.39861 7.95311
vn -0.729222 -0.22375 -0.646662
vt 0.375 19
v -0.48967 1.56303 8.25784
vn -0.997921 0.0612672 0.0199778
vt 0.25 19
v -0.346249 1.72745 8.56256
vn -0.652176 0.353622 0.670536
vt 0.125 19
vt 0 19
v 0 1.07255 8.35495
vn -2.20394e-008 -0.915908 0.401388
vt 0.5 20
g Horn2
usemtl Default_Horn
f 1/1/1 9/10/9 2/2/2
f 1/9/1 16/17/16 9/18/9
f 2/2/2 9/10/9 10/11/10
f 2/2/2 10/11/10 3/3/3
f 3/3/3 10/11/10 11/12/11
f 3/3/3 11/12/11 4/4/4
f 4/4/4 11/12/11 12/13/12
f 4/4/4 12/13/12 5/5/5
f 5/5/5 12/13/12 13/14/13
f 5/5/5 13/14/13 6/6/6
f 6/6/6 13/14/13 14/15/14
f 6/6/6 14/15/14 7/7/7
f 7/7/7 14/15/14 15/16/15
f 7/7/7 15/16/15 8/8/8
f 8/8/8 15/16/15 16/17/16
f 8/8/8 16/17/16 1/9/1
f 9/10/9 17/19/17 10/11/10
f 9/18/9 24/26/24 17/27/17
f 10/11/10 17/19/17 18/20/18
f 10/11/10 18/20/18 11/12/11
f 11/12/11 18/20/18 19/21/19
f 11/12/11 19/21/19 12/13/12
f 12/13/12 19/21/19 20/22/20
f 12/13/12 20/22/20 13/14/13
f 13/14/13 20/22/20 21/23/21
f 13/14/13 21/23/21 14/15/14
f 14/15/14 21/23/21 22/24/22
f 14/15/14 22/24/22 15/16/15
f 15/16/15 22/24/22 23/25/23
f 15/16/15 23/25/23 16/17/16
f 16/17/16 23/25/23 24/26/24
f 16/17/16 24/26/24 9/18/9
f 17/19/17 25/28/25 18/20/18
f 17/27/17 32/35/32 25/36/25
f 18/20/18 25/28/25 26/29/26
f 18/20/18 26/29/26 19/21/19
f 19/21/19 26/29/26 27/30/27
f 19/21/19 27/30/27 20/22/20
f 20/22/20 27/30/27 28/31/28
f 20/22/20 28/31/28 21/23/21
f 21/23/21 28/31/28 29/32/29
f 21/23/21 29/32/29 22/24/22
f 22/24/22 29/32/29 30/33/30
f 22/24/22 30/33/30 23/25/23
f 23/25/23 30/33/30 31/34/31
f 23/25/23 31/34/31 24/26/24
f 24/26/24 31/34/31 32/35/32
f 24/26/24 32/35/32 17/27/17
f 25/28/25 33/37/33 26/29/26
f 25/36/25 40/44/40 33/45/33
f 26/29/26 33/37/33 34/38/34
f 26/29/26 34/38/34 27/30/27
f 27/30/27 34/38/34 35/39/35
f 27/30/27 35/39/35 28/31/28
f 28/31/28 35/39/35 36/40/36
f 28/31/28 36/40/36 29/32/29
f 29/32/29 36/40/36 37/41/37
f 29/32/29 37/41/37 30/33/30
f 30/33/30 37/41/37 38/42/38
f 30/33/30 38/42/38 31/34/31
f 31/34/31 38/42/38 39/43/39
f 31/34/31 39/43/39 32/35/32
f 32/35/32 39/43/39 40/44/40
f 32/35/32 40/44/40 25/36/25
f 33/37/33 41/46/41 34/38/34
f 33/45/33 48/53/48 41/54/41
f 34/38/34 41/46/41 42/47/42
f 34/38/34 42/47/42 35/39/35
f 35/39/35 42/47/42 43/48/43
f 35/39/35 43/48/43 36/40/36
f 36/40/36 43/48/43 44/49/44
f 36/40/36 44/49/44 37/41/37
f 37/41/37 44/49/44 45/50/45
f 37/41/37 45/50/45 38/42/38
f 38/42/38 45/50/45 46/51/46
f 38/42/38 46/51/46 39/43/39
f 39/43/39 46/51/46 47/52/47
f 39/43/39 47/52/47 40/44/40
f 40/44/40 47/52/47 48/53/48
f 40/44/40 48/53/48 33/45/33
f 41/46/41 49/55/49 42/47/42
f 41/54/41 56/62/56 49/63/49
f 42/47/42 49/55/49 50/56/50
f 42/47/42 50/56/50 43/48/43
f 43/48/43 50/56/50 51/57/51
f 43/48/43 51/57/51 44/49/44
f 44/49/44 51/57/51 52/58/52
f 44/49/44 52/58/52 45/50/45
f 45/50/45 52/58/52 53/59/53
f 45/50/45 53/59/53 46/51/46
f 46/51/46 53/59/53 54/60/54
f 46/51/46 54/60/54 47/52/47
f 47/52/47 54/60/54 55/61/55
f 47/52/47 55/61/55 48/53/48
f 48/53/48 55/61/55 56/62/56
f 48/53/48 56/62/56 41/54/41
f 49/55/49 57/64/57 50/56/50
f 49/63/49 64/71/64 57/72/57
f 50/56/50 57/64/57 58/65/58
f 50/56/50 58/65/58 51/57/51
f 51/57/51 58/65/58 59/66/59
f 51/57/51 59/66/59 52/58/52
f 52/58/52 59/66/59 60/67/60
f 52/58/52 60/67/60 53/59/53
f 53/59/53 60/67/60 61/68/61
f 53/59/53 61/68/61 54/60/54
f 54/60/54 61/68/61 62/69/62
f 54/60/54 62/69/62 55/61/55
f 55/61/55 62/69/62 63/70/63
f 55/61/55 63/70/63 56/62/56
f 56/62/56 63/70/63 64/71/64
f 56/62/56 64/71/64 49/63/49
f 57/64/57 65/73/65 58/65/58
f 57/72/57 72/80/72 65/81/65
f 58/65/58 65/73/65 66/74/66
f 58/65/58 66/74/66 59/66/59
f 59/66/59 66/74/66 67/75/67
f 59/66/59 67/75/67 60/67/60
f 60/67/60 67/75/67 68/76/68
f 60/67/60 68/76/68 61/68/61
f 61/68/61 68/76/68 69/77/69
f 61/68/61 69/77/69 62/69/62
f 62/69/62 69/77/69 70/78/70
f 62/69/62 70/78/70 63/70/63
f 63/70/63 70/78/70 71/79/71
f 63/70/63 71/79/71 64/71/64
f 64/71/64 71/79/71 72/80/72
f 64/71/64 72/80/72 57/72/57
f 65/73/65 73/82/73 66/74/66
f 65/81/65 80/89/80 73/90/73
f 66/74/66 73/82/73 74/83/74
f 66/74/66 74/83/74 67/75/67
f 67/75/67 74/83/74 75/84/75
f 67/75/67 75/84/75 68/76/68
f 68/76/68 75/84/75 76/85/76
f 68/76/68 76/85/76 69/77/69
f 69/77/69 76/85/76 77/86/77
f 69/77/69 77/86/77 70/78/70
f 70/78/70 77/86/77 78/87/78
f 70/78/70 78/87/78 71/79/71
f 71/79/71 78/87/78 79/88/79
f 71/79/71 79/88/79 72/80/72
f 72/80/72 79/88/79 80/89/80
f 72/80/72 80/89/80 65/81/65
f 73/82/73 81/91/81 74/83/74
f 73/90/73 88/98/88 81/99/81
f 74/83/74 81/91/81 82/92/82
f 74/83/74 82/92/82 75/84/75
f 75/84/75 82/92/82 83/93/83
f 75/84/75 83/93/83 76/85/76
f 76/85/76 83/93/83 84/94/84
f 76/85/76 84/94/84 77/86/77
f 77/86/77 84/94/84 85/95/85
f 77/86/77 85/95/85 78/87/78
f 78/87/78 85/95/85 86/96/86
f 78/87/78 86/96/86 79/88/79
f 79/88/79 86/96/86 87/97/87
f 79/88/79 87/97/87 80/89/80
f 80/89/80 87/97/87 88/98/88
f 80/89/80 88/98/88 73/90/73
f 81/91/81 89/100/89 82/92/82
f 81/99/81 96/107/96 89/108/89
f 82/92/82 89/100/89 90/101/90
f 82/92/82 90/101/90 83/93/83
f 83/93/83 90/101/90 91/102/91
f 83/93/83 91/102/91 84/94/84
f 84/94/84 91/102/91 92/103/92
f 84/94/84 92/103/92 85/95/85
f 85/95/85 92/103/92 93/104/93
f 85/95/85 93/104/93 86/96/86
f 86/96/86 93/104/93 94/105/94
f 86/96/86 94/105/94 87/97/87
f 87/97/87 94/105/94 95/106/95
f 87/97/87 95/106/95 88/98/88
f 88/98/88 95/106/95 96/107/96
f 88/98/88 96/107/96 81/99/81
f 89/100/89 97/109/97 90/101/90
f 89/108/89 104/116/104 97/117/97
f 90/101/90 97/109/97 98/110/98
f 90/101/90 98/110/98 91/102/91
f 91/102/91 98/110/98 99/111/99
f 91/102/91 99/111/99 92/103/92
f 92/103/92 99/111/99 100/112/100
f 92/103/92 100/112/100 93/104/93
f 93/104/93 100/112/100 101/113/101
f 93/104/93 101/113/101 94/105/94
f 94/105/94 101/113/101 102/114/102
f 94/105/94 102/114/102 95/106/95
f 95/106/95 102/114/102 103/115/103
f 95/106/95 103/115/103 96/107/96
f 96/107/96 103/115/103 104/116/104
f 96/107/96 104/116/104 89/108/89
f 97/109/97 105/118/105 98/110/98
f 97/117/97 112/125/112 105/126/105
f 98/110/98 105/118/105 106/119/106
f 98/110/98 106/119/106 99/111/99
f 99/111/99 106/119/106 107/120/107
f 99/111/99 107/120/107 100/112/100
f 100/112/100 107/120/107 108/121/108
f 100/112/100 108/121/108 101/113/101
f 101/113/101 108/121/108 109/122/109
f 101/113/101 109/122/109 102/114/102
f 102/114/102 109/122/109 110/123/110
f 102/114/102 110/123/110 103/115/103
f 103/115/103 110/123/110 111/124/111
f 103/115/103 111/124/111 104/116/104
f 104/116/104 111/124/111 112/125/112
f 104/116/104 112/125/112 97/117/97
f 105/118/105 113/127/113 106/119/106
f 105/126/105 120/134/120 113/135/113
f 106/119/106 113/127/113 114/128/114
f 106/119/106 114/128/114 107/120/107
f 107/120/107 114/128/114 115/129/115
f 107/120/107 115/129/115 108/121/108
f 108/121/108 115/129/115 116/130/116
f 108/121/108 116/130/116 109/122/109
f 109/122/109 116/130/116 117/131/117
f 109/122/109 117/131/117 110/123/110
f 110/123/110 117/131/117 118/132/118
f 110/123/110 118/132/118 111/124/111
f 111/124/111 118/132/118 119/133/119
f 111/124/111 119/133/119 112/125/112
f 112/125/112 119/133/119 120/134/120
f 112/125/112 120/134/120 105/126/105
f 113/127/113 121/136/121 114/128/114
f 113/135/113 128/143/128 121/144/121
f 114/128/114 121/136/121 122/137/122
f 114/128/114 122/137/122 115/129/115
f 115/129/115 122/137/122 123/138/123
f 115/129/115 123/138/123 116/130/116
f 116/130/116 123/138/123 124/139/124
f 116/130/116 124/139/124 117/131/117
f 117/131/117 124/139/124 125/140/125
f 117/131/117 125/140/125 118/132/118
f 118/132/118 125/140/125 126/141/126
f 118/132/118 126/141/126 119/133/119
f 119/133/119 126/141/126 127/142/127
f 119/133/119 127/142/127 120/134/120
f 120/134/120 127/142/127 128/143/128
f 120/134/120 128/143/128 113/135/113
f 121/136/121 129/145/129 122/137/122
f 121/144/121 136/152/136 129/153/129
f 122/137/122 129/145/129 130/146/130
f 122/137/122 130/146/130 123/138/123
f 123/138/123 130/146/130 131/147/131
f 123/138/123 131/147/131 124/139/124
f 124/139/124 131/147/131 132/148/132
f 124/139/124 132/148/132 125/140/125
f 125/140/125 132/148/132 133/149/133
f 125/140/125 133/149/133 126/141/126
f 126/141/126 133/149/133 134/150/134
f 126/141/126 134/150/134 127/142/127
f 127/142/127 134/150/134 135/151/135
f 127/142/127 135/151/135 128/143/128
f 128/143/128 135/151/135 136/152/136
f 128/143/128 136/152/136 121/144/121
f 129/145/129 137/154/137 130/146/130
f 129/153/129 144/161/144 137/162/137
f 130/146/130 137/154/137 138/155/138
f 130/146/130 138/155/138 131/147/131
f 131/147/131 138/155/138 139/156/139
f 131/147/131 139/156/139 132/148/132
f 132/148/132 139/156/139 140/157/140
f 132/148/132 140/157/140 133/149/133
f 133/149/133 140/157/140 141/158/141
f 133/149/133 141/158/141 134/150/134
f 134/150/134 141/158/141 142/159/142
f 134/150/134 142/159/142 135/151/135
f 135/151/135 142/159/142 143/160/143
f 135/151/135 143/160/143 136/152/136
f 136/152/136 143/160/143 144/161/144
f 136/152/136 144/161/144 129/153/129
f 137/154/137 145/163/145 138/155/138
f 137/162/137 152/170/152 145/171/145
f 138/155/138 145/163/145 146/164/146
f 138/155/138 146/164/146 139/156/139
f 139/156/139 146/164/146 147/165/147
f 139/156/139 147/165/147 140/157/140
f 140/157/140 147/165/147 148/166/148
f 140/157/140 148/166/148 141/158/141
f 141/158/141 148/166/148 149/167/149
f 141/158/141 149/167/149 142/159/142
f 142/159/142 149/167/149 150/168/150
f 142/159/142 150/168/150 143/160/143
f 143/160/143 150/168/150 151/169/151
f 143/160/143 151/169/151 144/161/144
f 144/161/144 151/169/151 152/170/152
f 144/161/144 152/170/152 137/162/137
f 145/163/145 153/172/153 146/164/146
f 145/171/145 160/179/160 153/180/153
f 146/164/146 153/172/153 154/173/154
f 146/164/146 154/173/154 147/165/147
f 147/165/147 154/173/154 155/174/155
f 147/165/147 155/174/155 148/166/148
f 148/166/148 155/174/155 156/175/156
f 148/166/148 156/175/156 149/167/149
f 149/167/149 156/175/156 157/176/157
f 149/167/149 157/176/157 150/168/150
f 150/168/150 157/176/157 158/177/158
f 150/168/150 158/177/158 151/169/151
f 151/169/151 158/177/158 159/178/159
f 151/169/151 159/178/159 152/170/152
f 152/170/152 159/178/159 160/179/160
f 152/170/152 160/179/160 145/171/145
f 153/172/153 161/181/161 154/173/154
f 154/173/154 161/181/161 155/174/155
f 155/174/155 161/181/161 156/175/156
f 156/175/156 161/181/161 157/176/157
f 157/176/157 161/181/161 158/177/158
f 158/177/158 161/181/161 159/178/159
f 159/178/159 161/181/161 160/179/160
f 160/179/160 161/181/161 153/180/153
