# Creator xfrog, (c) 1997-2002 by Greenworks, Lintermann und Deussen GdBR (see http://www.greenworks.de)
# "date: Thu, 01 Feb 2007 14:01:49"

mtllib stem_00001.mtl


# vertices 161

# triangles 312

v 0 0.465 0
vn -0.136739 0.986732 -0.0875403
vt 1 0
v 0.328805 0.328805 0
vn 0.603002 0.794613 -0.0705549
vt 0.875 0
v 0.465 0 0
vn 0.990574 0.136287 -0.0137854
vt 0.75 0
v 0.328805 -0.328805 0
vn 0.796772 -0.602579 0.0453045
vt 0.625 0
v 0 -0.465 0
vn 0.136724 -0.987833 0.074108
vt 0.5 0
v -0.328805 -0.328805 0
vn -0.603245 -0.795332 0.0595174
vt 0.375 0
v -0.465 0 0
vn -0.99061 -0.136448 0.00854306
vt 0.25 0
v -0.328805 0.328805 0
vn -0.796648 0.602122 -0.052924
vt 0.125 0
vt 0 0
v 0 0.488362 0.261389
vn -0.000237448 0.992347 -0.12348
vt 1 1
v 0.329258 0.352425 0.27241
vn 0.706881 0.701466 -0.0909099
vt 0.875 1
v 0.465641 0.024244 0.299019
vn 0.99996 -0.00112913 -0.00881879
vt 0.75 1
v 0.329258 -0.303937 0.325627
vn 0.70702 -0.703467 0.0724996
vt 0.625 1
v 0 -0.439874 0.336649
vn 0.000158519 -0.994131 0.108181
vt 0.5 1
v -0.329258 -0.303937 0.325627
vn -0.707043 -0.702698 0.0794092
vt 0.375 1
v -0.465641 0.024244 0.299019
vn -1 0.000355707 0.000632897
vt 0.25 1
v -0.329258 0.352425 0.27241
vn -0.706905 0.702246 -0.084474
vt 0.125 1
vt 0 1
v 0 0.530957 0.526
vn -0.000184051 0.983514 -0.18083
vt 1 2
v 0.330362 0.395646 0.546405
vn 0.706918 0.695222 -0.130131
vt 0.875 2
v 0.467203 0.068977 0.595665
vn 0.999989 -0.000862285 -0.0046974
vt 0.75 2
v 0.330362 -0.257692 0.644925
vn 0.707074 -0.696805 0.120452
vt 0.625 2
v 0 -0.393003 0.66533
vn 0.000105898 -0.984753 0.17396
vt 0.5 2
v -0.330362 -0.257692 0.644925
vn -0.707094 -0.695816 0.125926
vt 0.375 2
v -0.467203 0.068977 0.595665
vn -0.999996 0.000762374 0.00273557
vt 0.25 2
v -0.330362 0.395646 0.546405
vn -0.70694 0.696126 -0.12508
vt 0.125 2
vt 0 2
v 0 0.586591 0.793839
vn -8.7761e-005 0.975224 -0.221221
vt 1 3
v 0.329543 0.452984 0.8218
vn 0.707085 0.689673 -0.156146
vt 0.875 3
v 0.466045 0.130429 0.889304
vn 0.999993 0.000666014 0.00367312
vt 0.75 3
v 0.329543 -0.192127 0.956807
vn 0.707013 -0.688016 0.163607
vt 0.625 3
v 0 -0.325734 0.984768
vn 9.51758e-005 -0.972894 0.231252
vt 0.5 3
v -0.329543 -0.192127 0.956807
vn -0.706982 -0.687007 0.167921
vt 0.375 3
v -0.466045 0.130429 0.889304
vn -0.999952 0.00222819 0.00952834
vt 0.25 3
v -0.329543 0.452984 0.8218
vn -0.707044 0.690607 -0.152153
vt 0.125 3
vt 0 3
v 0 0.65343 1.06501
vn -2.47317e-005 0.96837 -0.249519
vt 1 4
v 0.327415 0.522053 1.09866
vn 0.707106 0.685511 -0.173424
vt 0.875 4
v 0.463034 0.204881 1.17992
vn 0.999918 0.0031512 0.0124097
vt 0.75 4
v 0.327415 -0.112291 1.26117
vn 0.706943 -0.678833 0.198537
vt 0.625 4
v 0 -0.243667 1.29483
vn 6.9847e-005 -0.960958 0.276693
vt 0.5 4
v -0.327415 -0.112291 1.26117
vn -0.706897 -0.677967 0.201638
vt 0.375 4
v -0.463034 0.204881 1.17992
vn -0.999852 0.00444021 0.0166111
vt 0.25 4
v -0.327415 0.522053 1.09866
vn -0.707031 0.686307 -0.170559
vt 0.125 4
vt 0 4
v 0 0.727481 1.3403
vn 1.41398e-005 0.963607 -0.267322
vt 1 5
v 0.323135 0.598964 1.37769
vn 0.707052 0.682918 -0.18358
vt 0.875 5
v 0.456981 0.288697 1.46797
vn 0.999782 0.00579698 0.0200595
vt 0.75 5
v 0.323135 -0.0215695 1.55825
vn 0.706849 -0.670954 0.224019
vt 0.625 5
v 0 -0.150086 1.59565
vn 5.95847e-005 -0.950991 0.30922
vt 0.5 5
v -0.323135 -0.0215695 1.55825
vn -0.706788 -0.670348 0.226019
vt 0.375 5
v -0.456981 0.288697 1.46797
vn -0.999718 0.00669045 0.0227679
vt 0.25 5
v -0.323135 0.598964 1.37769
vn -0.706972 0.683494 -0.181734
vt 0.125 5
vt 0 5
v 0 0.807407 1.61995
vn 2.66601e-005 0.961125 -0.276113
vt 1 6
v 0.317929 0.681731 1.65929
vn 0.706924 0.681859 -0.187957
vt 0.875 6
v 0.449619 0.378322 1.75427
vn 0.999643 0.00793738 0.0254984
vt 0.75 6
v 0.317928 0.0749127 1.84925
vn 0.706795 -0.66578 0.239119
vt 0.625 6
v 0 -0.0507636 1.88859
vn 3.04872e-005 -0.944705 0.32792
vt 0.5 6
v -0.317928 0.0749127 1.84925
vn -0.706763 -0.665508 0.239971
vt 0.375 6
v -0.449619 0.378322 1.75427
vn -0.99961 0.00834307 0.026638
vt 0.25 6
v -0.317928 0.681731 1.65929
vn -0.706865 0.68213 -0.18719
vt 0.125 6
vt 0 6
v 0 0.889641 1.90482
vn 2.20843e-005 0.961987 -0.273096
vt 1 7
v 0.311537 0.766807 1.94436
vn 0.706735 0.683185 -0.183806
vt 0.875 7
v 0.44058 0.47026 2.03984
vn 0.999455 0.0100379 0.0314349
vt 0.75 7
v 0.311537 0.173713 2.13531
vn 0.706723 -0.663147 0.246534
vt 0.625 7
v 0 0.0508789 2.17486
vn 4.91355e-006 -0.942035 0.335513
vt 0.5 7
v -0.311537 0.173713 2.13531
vn -0.706731 -0.663241 0.246256
vt 0.375 7
v -0.44058 0.47026 2.03984
vn -0.999469 0.00993263 0.0310241
vt 0.25 7
v -0.311537 0.766807 1.94436
vn -0.706713 0.683125 -0.184108
vt 0.125 7
vt 0 7
v 0 0.970819 2.19567
vn -2.33847e-006 0.965699 -0.259664
vt 1 8
v 0.30401 0.850798 2.23378
vn 0.706515 0.68635 -0.17251
vt 0.875 8
v 0.429934 0.561042 2.32577
vn 0.999268 0.0114543 0.0365099
vt 0.75 8
v 0.30401 0.271286 2.41777
vn 0.706672 -0.663796 0.244928
vt 0.625 8
v 0 0.151265 2.45587
vn -1.69129e-005 -0.94375 0.330659
vt 0.5 8
v -0.30401 0.271286 2.41777
vn -0.706732 -0.664254 0.243508
vt 0.375 8
v -0.429934 0.561042 2.32577
vn -0.999345 0.0108598 0.0345249
vt 0.25 8
v -0.30401 0.850798 2.23378
vn -0.706551 0.685963 -0.173897
vt 0.125 8
vt 0 8
v 0 1.0478 2.49305
vn -4.4463e-005 0.971469 -0.237165
vt 1 9
v 0.295728 0.93046 2.52822
vn 0.706333 0.690599 -0.155456
vt 0.875 9
v 0.418223 0.647186 2.61314
vn 0.999164 0.0115677 0.0392118
vt 0.75 9
v 0.295728 0.363911 2.69805
vn 0.706694 -0.668173 0.232654
vt 0.625 9
v 0 0.246575 2.73323
vn -3.12641e-005 -0.9502 0.311641
vt 0.5 9
v -0.295728 0.363911 2.69805
vn -0.70681 -0.668952 0.230051
vt 0.375 9
v -0.418223 0.647186 2.61314
vn -0.999311 0.0105538 0.0355891
vt 0.25 9
v -0.295728 0.93046 2.52822
vn -0.706441 0.689917 -0.157972
vt 0.125 9
vt 0 9
v 0 1.11769 2.79717
vn -7.4261e-005 0.979338 -0.20223
vt 1 10
v 0.287438 1.00272 2.82812
vn 0.706148 0.696147 -0.129359
vt 0.875 10
v 0.406499 0.725159 2.90283
vn 0.999026 0.0111678 0.0426772
vt 0.75 10
v 0.287438 0.4476 2.97754
vn 0.706669 -0.674812 0.212716
vt 0.625 10
v 0 0.332631 3.00848
vn -5.69831e-005 -0.959583 0.281425
vt 0.5 10
v -0.287438 0.4476 2.97754
vn -0.706873 -0.675776 0.208944
vt 0.375 10
v -0.406499 0.725159 2.90283
vn -0.99925 0.00994188 0.0374307
vt 0.25 10
v -0.287438 1.00272 2.82812
vn -0.706303 0.695304 -0.132997
vt 0.125 10
vt 0 10
v 0 1.17497 3.10865
vn -0.000137112 0.988081 -0.153937
vt 1 11
v 0.278113 1.06261 3.13407
vn 0.705856 0.702177 -0.0933537
vt 0.875 11
v 0.393312 0.791354 3.19543
vn 0.998814 0.0103419 0.0475806
vt 0.75 11
v 0.278113 0.520095 3.2568
vn 0.706639 -0.682802 0.185591
vt 0.625 11
v 0 0.407736 3.28222
vn -6.88057e-005 -0.970679 0.240379
vt 0.5 11
v -0.278113 0.520095 3.2568
vn -0.70693 -0.683842 0.180583
vt 0.375 11
v -0.393312 0.791354 3.19543
vn -0.999134 0.00906832 0.0406158
vt 0.25 11
v -0.278113 1.06261 3.13407
vn -0.706099 0.701274 -0.0981787
vt 0.125 11
vt 0 11
v 0 1.21593 3.42698
vn -0.000202836 0.995511 -0.0946427
vt 1 12
v 0.268216 1.10643 3.44576
vn 0.705604 0.706847 -0.0499106
vt 0.875 12
v 0.379315 0.842077 3.49111
vn 0.998654 0.0082341 0.0512018
vt 0.75 12
v 0.268216 0.577723 3.53646
vn 0.706638 -0.691858 0.148309
vt 0.625 12
v 0 0.468223 3.55525
vn -7.52337e-005 -0.982655 0.185443
vt 0.5 12
v -0.268216 0.577723 3.53646
vn -0.707024 -0.692777 0.142047
vt 0.375 12
v -0.379315 0.842077 3.49111
vn -0.999071 0.00719989 0.0424942
vt 0.25 12
v -0.268216 1.10643 3.44576
vn -0.705931 0.706068 -0.0559434
vt 0.125 12
vt 0 12
v 0 1.23625 3.75117
vn -0.000219268 0.999889 -0.0148742
vt 1 13
v 0.257878 1.13002 3.76238
vn 0.705045 0.709086 0.0104642
vt 0.875 13
v 0.364694 0.873571 3.78946
vn 0.997976 0.00562924 0.0633451
vt 0.75 13
v 0.257878 0.617118 3.81653
vn 0.706214 -0.699217 0.111161
vt 0.625 13
v 0 0.510891 3.82774
vn -0.000148321 -0.991869 0.127266
vt 0.5 13
v -0.257878 0.617118 3.81653
vn -0.706844 -0.699691 0.103942
vt 0.375 13
v -0.364694 0.873571 3.78946
vn -0.998566 0.00534423 0.0532706
vt 0.25 13
v -0.257878 1.13002 3.76238
vn -0.705407 0.708795 0.00344932
vt 0.125 13
vt 0 13
v 0 1.22591 4.0796
vn -0.000307502 0.995949 0.0899146
vt 1 14
v 0.243236 1.1252 4.08245
vn 0.703343 0.704789 0.0926333
vt 0.875 14
v 0.343987 0.882064 4.08934
vn 0.995991 0.000870673 0.0894453
vt 0.75 14
v 0.243236 0.638926 4.09622
vn 0.705081 -0.704583 0.0801477
vt 0.625 14
v 0 0.538215 4.09907
vn -0.000328748 -0.997406 0.0719751
vt 0.5 14
v -0.243236 0.638926 4.09622
vn -0.70618 -0.704369 0.0719366
vt 0.375 14
v -0.343987 0.882064 4.08934
vn -0.996955 0.00170205 0.0779551
vt 0.25 14
v -0.243236 1.1252 4.08245
vn -0.703898 0.705247 0.0845845
vt 0.125 14
vt 0 14
v 0 1.17744 4.40783
vn -0.000407213 0.976374 0.216089
vt 1 15
v 0.222135 1.0856 4.40225
vn 0.700075 0.687462 0.19311
vt 0.875 15
v 0.314147 0.863872 4.38878
vn 0.991916 -0.0102646 0.12648
vt 0.75 15
v 0.222135 0.642146 4.37531
vn 0.702549 -0.709677 0.0527556
vt 0.625 15
v 0 0.550304 4.36973
vn -0.000689261 -0.99985 0.0173197
vt 0.5 15
v -0.222135 0.642146 4.37531
vn -0.704453 -0.708408 0.0436476
vt 0.375 15
v -0.314147 0.863872 4.38878
vn -0.993484 -0.00776001 0.113708
vt 0.25 15
v -0.222135 1.0856 4.40225
vn -0.700909 0.689083 0.184096
vt 0.125 15
vt 0 15
v 0 1.08305 4.72853
vn -0.000868383 0.938097 0.346371
vt 1 16
v 0.19166 1.0047 4.71574
vn 0.695763 0.654988 0.294795
vt 0.875 16
v 0.271049 0.815543 4.68487
vn 0.98717 -0.0282613 0.157154
vt 0.75 16
v 0.19166 0.626386 4.65399
vn 0.700126 -0.713934 0.0110015
vt 0.625 16
v 0 0.548034 4.6412
vn -0.00083909 -0.998464 -0.0553976
vt 0.5 16
v -0.19166 0.626386 4.65399
vn -0.702591 -0.711594 0.000306613
vt 0.375 16
v -0.271049 0.815543 4.68487
vn -0.989533 -0.0240652 0.142283
vt 0.25 16
v -0.19166 1.0047 4.71574
vn -0.697462 0.657808 0.284317
vt 0.125 16
vt 0 16
v 0 0.947486 5.03382
vn -0.00158719 0.893987 0.44809
vt 1 17
v 0.15681 0.884975 5.01618
vn 0.695335 0.619622 0.364112
vt 0.875 17
v 0.221763 0.73406 4.97359
vn 0.988436 -0.0422072 0.145645
vt 0.75 17
v 0.15681 0.583145 4.931
vn 0.702286 -0.706998 -0.0833529
vt 0.625 17
v 0 0.520634 4.91335
vn -0.000423045 -0.982671 -0.18536
vt 0.5 17
v -0.15681 0.583145 4.931
vn -0.704329 -0.703346 -0.0960527
vt 0.375 17
v -0.221763 0.73406 4.97359
vn -0.991089 -0.0361727 0.128193
vt 0.25 17
v -0.15681 0.884975 5.01618
vn -0.698069 0.62361 0.351866
vt 0.125 17
vt 0 17
v 0 0.787037 5.32179
vn 0.0022917 0.941609 0.336701
vt 1 18
v 0.130483 0.737266 5.30072
vn 0.701866 0.678997 0.215284
vt 0.875 18
v 0.184531 0.617106 5.24985
vn 0.993514 0.052464 -0.100882
vt 0.75 18
v 0.130483 0.496947 5.19898
vn 0.700731 -0.569348 -0.429904
vt 0.625 18
v 0 0.447175 5.17791
vn -0.00476282 -0.818212 -0.574896
vt 0.5 18
v -0.130483 0.496947 5.19898
vn -0.70502 -0.55002 -0.447689
vt 0.375 18
v -0.184531 0.617106 5.24985
vn -0.989102 0.0748247 -0.126801
vt 0.25 18
v -0.130483 0.737266 5.30072
vn -0.695782 0.690891 0.19636
vt 0.125 18
vt 0 18
v 0 0.724506 5.66329
vn 0.0955683 0.783766 0.613659
vt 1 19
v 0.215017 0.648024 5.61765
vn 0.77193 0.479216 0.417704
vt 0.875 19
v 0.304079 0.463381 5.50747
vn 0.991103 -0.132095 0.0163078
vt 0.75 19
v 0.215017 0.278739 5.39729
vn 0.634648 -0.686108 -0.355637
vt 0.625 19
v 0 0.202257 5.35166
vn -0.0828358 -0.87189 -0.482644
vt 0.5 19
v -0.215017 0.278739 5.39729
vn -0.756759 -0.585937 -0.289816
vt 0.375 19
v -0.304079 0.463381 5.50747
vn -0.993242 0.0211677 0.114117
vt 0.25 19
v -0.215017 0.648024 5.61765
vn -0.639222 0.593516 0.489014
vt 0.125 19
vt 0 19
v 0 0.272961 5.73929
vn -1.08784e-008 -0.54618 0.837668
vt 0.5 20
g Horn1
usemtl Default_Horn
f 1/1/1 9/10/9 2/2/2
f 1/9/1 16/17/16 9/18/9
f 2/2/2 9/10/9 10/11/10
f 2/2/2 10/11/10 3/3/3
f 3/3/3 10/11/10 11/12/11
f 3/3/3 11/12/11 4/4/4
f 4/4/4 11/12/11 12/13/12
f 4/4/4 12/13/12 5/5/5
f 5/5/5 12/13/12 13/14/13
f 5/5/5 13/14/13 6/6/6
f 6/6/6 13/14/13 14/15/14
f 6/6/6 14/15/14 7/7/7
f 7/7/7 14/15/14 15/16/15
f 7/7/7 15/16/15 8/8/8
f 8/8/8 15/16/15 16/17/16
f 8/8/8 16/17/16 1/9/1
f 9/10/9 17/19/17 10/11/10
f 9/18/9 24/26/24 17/27/17
f 10/11/10 17/19/17 18/20/18
f 10/11/10 18/20/18 11/12/11
f 11/12/11 18/20/18 19/21/19
f 11/12/11 19/21/19 12/13/12
f 12/13/12 19/21/19 20/22/20
f 12/13/12 20/22/20 13/14/13
f 13/14/13 20/22/20 21/23/21
f 13/14/13 21/23/21 14/15/14
f 14/15/14 21/23/21 22/24/22
f 14/15/14 22/24/22 15/16/15
f 15/16/15 22/24/22 23/25/23
f 15/16/15 23/25/23 16/17/16
f 16/17/16 23/25/23 24/26/24
f 16/17/16 24/26/24 9/18/9
f 17/19/17 25/28/25 18/20/18
f 17/27/17 32/35/32 25/36/25
f 18/20/18 25/28/25 26/29/26
f 18/20/18 26/29/26 19/21/19
f 19/21/19 26/29/26 27/30/27
f 19/21/19 27/30/27 20/22/20
f 20/22/20 27/30/27 28/31/28
f 20/22/20 28/31/28 21/23/21
f 21/23/21 28/31/28 29/32/29
f 21/23/21 29/32/29 22/24/22
f 22/24/22 29/32/29 30/33/30
f 22/24/22 30/33/30 23/25/23
f 23/25/23 30/33/30 31/34/31
f 23/25/23 31/34/31 24/26/24
f 24/26/24 31/34/31 32/35/32
f 24/26/24 32/35/32 17/27/17
f 25/28/25 33/37/33 26/29/26
f 25/36/25 40/44/40 33/45/33
f 26/29/26 33/37/33 34/38/34
f 26/29/26 34/38/34 27/30/27
f 27/30/27 34/38/34 35/39/35
f 27/30/27 35/39/35 28/31/28
f 28/31/28 35/39/35 36/40/36
f 28/31/28 36/40/36 29/32/29
f 29/32/29 36/40/36 37/41/37
f 29/32/29 37/41/37 30/33/30
f 30/33/30 37/41/37 38/42/38
f 30/33/30 38/42/38 31/34/31
f 31/34/31 38/42/38 39/43/39
f 31/34/31 39/43/39 32/35/32
f 32/35/32 39/43/39 40/44/40
f 32/35/32 40/44/40 25/36/25
f 33/37/33 41/46/41 34/38/34
f 33/45/33 48/53/48 41/54/41
f 34/38/34 41/46/41 42/47/42
f 34/38/34 42/47/42 35/39/35
f 35/39/35 42/47/42 43/48/43
f 35/39/35 43/48/43 36/40/36
f 36/40/36 43/48/43 44/49/44
f 36/40/36 44/49/44 37/41/37
f 37/41/37 44/49/44 45/50/45
f 37/41/37 45/50/45 38/42/38
f 38/42/38 45/50/45 46/51/46
f 38/42/38 46/51/46 39/43/39
f 39/43/39 46/51/46 47/52/47
f 39/43/39 47/52/47 40/44/40
f 40/44/40 47/52/47 48/53/48
f 40/44/40 48/53/48 33/45/33
f 41/46/41 49/55/49 42/47/42
f 41/54/41 56/62/56 49/63/49
f 42/47/42 49/55/49 50/56/50
f 42/47/42 50/56/50 43/48/43
f 43/48/43 50/56/50 51/57/51
f 43/48/43 51/57/51 44/49/44
f 44/49/44 51/57/51 52/58/52
f 44/49/44 52/58/52 45/50/45
f 45/50/45 52/58/52 53/59/53
f 45/50/45 53/59/53 46/51/46
f 46/51/46 53/59/53 54/60/54
f 46/51/46 54/60/54 47/52/47
f 47/52/47 54/60/54 55/61/55
f 47/52/47 55/61/55 48/53/48
f 48/53/48 55/61/55 56/62/56
f 48/53/48 56/62/56 41/54/41
f 49/55/49 57/64/57 50/56/50
f 49/63/49 64/71/64 57/72/57
f 50/56/50 57/64/57 58/65/58
f 50/56/50 58/65/58 51/57/51
f 51/57/51 58/65/58 59/66/59
f 51/57/51 59/66/59 52/58/52
f 52/58/52 59/66/59 60/67/60
f 52/58/52 60/67/60 53/59/53
f 53/59/53 60/67/60 61/68/61
f 53/59/53 61/68/61 54/60/54
f 54/60/54 61/68/61 62/69/62
f 54/60/54 62/69/62 55/61/55
f 55/61/55 62/69/62 63/70/63
f 55/61/55 63/70/63 56/62/56
f 56/62/56 63/70/63 64/71/64
f 56/62/56 64/71/64 49/63/49
f 57/64/57 65/73/65 58/65/58
f 57/72/57 72/80/72 65/81/65
f 58/65/58 65/73/65 66/74/66
f 58/65/58 66/74/66 59/66/59
f 59/66/59 66/74/66 67/75/67
f 59/66/59 67/75/67 60/67/60
f 60/67/60 67/75/67 68/76/68
f 60/67/60 68/76/68 61/68/61
f 61/68/61 68/76/68 69/77/69
f 61/68/61 69/77/69 62/69/62
f 62/69/62 69/77/69 70/78/70
f 62/69/62 70/78/70 63/70/63
f 63/70/63 70/78/70 71/79/71
f 63/70/63 71/79/71 64/71/64
f 64/71/64 71/79/71 72/80/72
f 64/71/64 72/80/72 57/72/57
f 65/73/65 73/82/73 66/74/66
f 65/81/65 80/89/80 73/90/73
f 66/74/66 73/82/73 74/83/74
f 66/74/66 74/83/74 67/75/67
f 67/75/67 74/83/74 75/84/75
f 67/75/67 75/84/75 68/76/68
f 68/76/68 75/84/75 76/85/76
f 68/76/68 76/85/76 69/77/69
f 69/77/69 76/85/76 77/86/77
f 69/77/69 77/86/77 70/78/70
f 70/78/70 77/86/77 78/87/78
f 70/78/70 78/87/78 71/79/71
f 71/79/71 78/87/78 79/88/79
f 71/79/71 79/88/79 72/80/72
f 72/80/72 79/88/79 80/89/80
f 72/80/72 80/89/80 65/81/65
f 73/82/73 81/91/81 74/83/74
f 73/90/73 88/98/88 81/99/81
f 74/83/74 81/91/81 82/92/82
f 74/83/74 82/92/82 75/84/75
f 75/84/75 82/92/82 83/93/83
f 75/84/75 83/93/83 76/85/76
f 76/85/76 83/93/83 84/94/84
f 76/85/76 84/94/84 77/86/77
f 77/86/77 84/94/84 85/95/85
f 77/86/77 85/95/85 78/87/78
f 78/87/78 85/95/85 86/96/86
f 78/87/78 86/96/86 79/88/79
f 79/88/79 86/96/86 87/97/87
f 79/88/79 87/97/87 80/89/80
f 80/89/80 87/97/87 88/98/88
f 80/89/80 88/98/88 73/90/73
f 81/91/81 89/100/89 82/92/82
f 81/99/81 96/107/96 89/108/89
f 82/92/82 89/100/89 90/101/90
f 82/92/82 90/101/90 83/93/83
f 83/93/83 90/101/90 91/102/91
f 83/93/83 91/102/91 84/94/84
f 84/94/84 91/102/91 92/103/92
f 84/94/84 92/103/92 85/95/85
f 85/95/85 92/103/92 93/104/93
f 85/95/85 93/104/93 86/96/86
f 86/96/86 93/104/93 94/105/94
f 86/96/86 94/105/94 87/97/87
f 87/97/87 94/105/94 95/106/95
f 87/97/87 95/106/95 88/98/88
f 88/98/88 95/106/95 96/107/96
f 88/98/88 96/107/96 81/99/81
f 89/100/89 97/109/97 90/101/90
f 89/108/89 104/116/104 97/117/97
f 90/101/90 97/109/97 98/110/98
f 90/101/90 98/110/98 91/102/91
f 91/102/91 98/110/98 99/111/99
f 91/102/91 99/111/99 92/103/92
f 92/103/92 99/111/99 100/112/100
f 92/103/92 100/112/100 93/104/93
f 93/104/93 100/112/100 101/113/101
f 93/104/93 101/113/101 94/105/94
f 94/105/94 101/113/101 102/114/102
f 94/105/94 102/114/102 95/106/95
f 95/106/95 102/114/102 103/115/103
f 95/106/95 103/115/103 96/107/96
f 96/107/96 103/115/103 104/116/104
f 96/107/96 104/116/104 89/108/89
f 97/109/97 105/118/105 98/110/98
f 97/117/97 112/125/112 105/126/105
f 98/110/98 105/118/105 106/119/106
f 98/110/98 106/119/106 99/111/99
f 99/111/99 106/119/106 107/120/107
f 99/111/99 107/120/107 100/112/100
f 100/112/100 107/120/107 108/121/108
f 100/112/100 108/121/108 101/113/101
f 101/113/101 108/121/108 109/122/109
f 101/113/101 109/122/109 102/114/102
f 102/114/102 109/122/109 110/123/110
f 102/114/102 110/123/110 103/115/103
f 103/115/103 110/123/110 111/124/111
f 103/115/103 111/124/111 104/116/104
f 104/116/104 111/124/111 112/125/112
f 104/116/104 112/125/112 97/117/97
f 105/118/105 113/127/113 106/119/106
f 105/126/105 120/134/120 113/135/113
f 106/119/106 113/127/113 114/128/114
f 106/119/106 114/128/114 107/120/107
f 107/120/107 114/128/114 115/129/115
f 107/120/107 115/129/115 108/121/108
f 108/121/108 115/129/115 116/130/116
f 108/121/108 116/130/116 109/122/109
f 109/122/109 116/130/116 117/131/117
f 109/122/109 117/131/117 110/123/110
f 110/123/110 117/131/117 118/132/118
f 110/123/110 118/132/118 111/124/111
f 111/124/111 118/132/118 119/133/119
f 111/124/111 119/133/119 112/125/112
f 112/125/112 119/133/119 120/134/120
f 112/125/112 120/134/120 105/126/105
f 113/127/113 121/136/121 114/128/114
f 113/135/113 128/143/128 121/144/121
f 114/128/114 121/136/121 122/137/122
f 114/128/114 122/137/122 115/129/115
f 115/129/115 122/137/122 123/138/123
f 115/129/115 123/138/123 116/130/116
f 116/130/116 123/138/123 124/139/124
f 116/130/116 124/139/124 117/131/117
f 117/131/117 124/139/124 125/140/125
f 117/131/117 125/140/125 118/132/118
f 118/132/118 125/140/125 126/141/126
f 118/132/118 126/141/126 119/133/119
f 119/133/119 126/141/126 127/142/127
f 119/133/119 127/142/127 120/134/120
f 120/134/120 127/142/127 128/143/128
f 120/134/120 128/143/128 113/135/113
f 121/136/121 129/145/129 122/137/122
f 121/144/121 136/152/136 129/153/129
f 122/137/122 129/145/129 130/146/130
f 122/137/122 130/146/130 123/138/123
f 123/138/123 130/146/130 131/147/131
f 123/138/123 131/147/131 124/139/124
f 124/139/124 131/147/131 132/148/132
f 124/139/124 132/148/132 125/140/125
f 125/140/125 132/148/132 133/149/133
f 125/140/125 133/149/133 126/141/126
f 126/141/126 133/149/133 134/150/134
f 126/141/126 134/150/134 127/142/127
f 127/142/127 134/150/134 135/151/135
f 127/142/127 135/151/135 128/143/128
f 128/143/128 135/151/135 136/152/136
f 128/143/128 136/152/136 121/144/121
f 129/145/129 137/154/137 130/146/130
f 129/153/129 144/161/144 137/162/137
f 130/146/130 137/154/137 138/155/138
f 130/146/130 138/155/138 131/147/131
f 131/147/131 138/155/138 139/156/139
f 131/147/131 139/156/139 132/148/132
f 132/148/132 139/156/139 140/157/140
f 132/148/132 140/157/140 133/149/133
f 133/149/133 140/157/140 141/158/141
f 133/149/133 141/158/141 134/150/134
f 134/150/134 141/158/141 142/159/142
f 134/150/134 142/159/142 135/151/135
f 135/151/135 142/159/142 143/160/143
f 135/151/135 143/160/143 136/152/136
f 136/152/136 143/160/143 144/161/144
f 136/152/136 144/161/144 129/153/129
f 137/154/137 145/163/145 138/155/138
f 137/162/137 152/170/152 145/171/145
f 138/155/138 145/163/145 146/164/146
f 138/155/138 146/164/146 139/156/139
f 139/156/139 146/164/146 147/165/147
f 139/156/139 147/165/147 140/157/140
f 140/157/140 147/165/147 148/166/148
f 140/157/140 148/166/148 141/158/141
f 141/158/141 148/166/148 149/167/149
f 141/158/141 149/167/149 142/159/142
f 142/159/142 149/167/149 150/168/150
f 142/159/142 150/168/150 143/160/143
f 143/160/143 150/168/150 151/169/151
f 143/160/143 151/169/151 144/161/144
f 144/161/144 151/169/151 152/170/152
f 144/161/144 152/170/152 137/162/137
f 145/163/145 153/172/153 146/164/146
f 145/171/145 160/179/160 153/180/153
f 146/164/146 153/172/153 154/173/154
f 146/164/146 154/173/154 147/165/147
f 147/165/147 154/173/154 155/174/155
f 147/165/147 155/174/155 148/166/148
f 148/166/148 155/174/155 156/175/156
f 148/166/148 156/175/156 149/167/149
f 149/167/149 156/175/156 157/176/157
f 149/167/149 157/176/157 150/168/150
f 150/168/150 157/176/157 158/177/158
f 150/168/150 158/177/158 151/169/151
f 151/169/151 158/177/158 159/178/159
f 151/169/151 159/178/159 152/170/152
f 152/170/152 159/178/159 160/179/160
f 152/170/152 160/179/160 145/171/145
f 153/172/153 161/181/161 154/173/154
f 154/173/154 161/181/161 155/174/155
f 155/174/155 161/181/161 156/175/156
f 156/175/156 161/181/161 157/176/157
f 157/176/157 161/181/161 158/177/158
f 158/177/158 161/181/161 159/178/159
f 159/178/159 161/181/161 160/179/160
f 160/179/160 161/181/161 153/180/153
