# This file uses centimeters as units for non-parametric coordinates.

v 0.138475 0.373284 0.032933
v 0.105584 0.381954 -0.013383
v 0.057172 0.387052 -0.043918
v 0.000607 0.387802 -0.054024
v -0.055497 0.384089 -0.042161
v -0.102600 0.376480 -0.010136
v -0.133530 0.366132 0.037175
v -0.143580 0.354622 0.092571
v -0.131218 0.343700 0.147617
v -0.098328 0.335030 0.193934
v -0.049915 0.329932 0.224469
v 0.006649 0.329182 0.234575
v 0.062753 0.332894 0.222712
v 0.109856 0.340504 0.190687
v 0.140787 0.350852 0.143375
v 0.150837 0.362362 0.087980
v 0.159933 0.542439 0.054449
v 0.121016 0.552697 -0.000354
v 0.063733 0.558730 -0.036484
v -0.003195 0.559617 -0.048441
v -0.069578 0.555225 -0.034405
v -0.125312 0.546221 0.003487
v -0.161909 0.533978 0.059468
v -0.173800 0.520358 0.125013
v -0.159174 0.507435 0.190145
v -0.120257 0.497177 0.244948
v -0.062974 0.491145 0.281078
v 0.003954 0.490258 0.293035
v 0.070338 0.494650 0.278999
v 0.126071 0.503653 0.241106
v 0.162669 0.515897 0.185126
v 0.174559 0.529517 0.119580
v 0.000356 0.504067 0.119625
v 0.192810 0.369126 0.086620
v 0.179927 0.354369 0.157635
v 0.140275 0.341104 0.218286
v 0.079892 0.331350 0.259341
v 0.007969 0.326591 0.274548
v -0.064544 0.327552 0.261593
v -0.126606 0.334088 0.222448
v -0.168771 0.345202 0.163073
v -0.184618 0.359203 0.092506
v -0.171735 0.373959 0.021492
v -0.132083 0.387224 -0.039160
v -0.071699 0.396979 -0.080214
v 0.000223 0.401738 -0.095422
v 0.072736 0.400777 -0.082467
v 0.134799 0.394241 -0.043322
v 0.176963 0.383127 0.016054
v 0.280589 0.393667 -0.026572
v 0.213008 0.411481 -0.121739
v 0.212619 0.428319 -0.118311
v 0.280200 0.410505 -0.023144
v 0.113534 0.421956 -0.184481
v 0.113145 0.438794 -0.181053
v -0.002689 0.423497 -0.205245
v -0.003078 0.440334 -0.201817
v -0.117968 0.415869 -0.180870
v -0.118357 0.432707 -0.177442
v -0.214751 0.400235 -0.115068
v -0.215140 0.417072 -0.111640
v -0.278304 0.378973 -0.017856
v -0.278693 0.395811 -0.014428
v -0.298953 0.355321 0.095965
v -0.299342 0.372159 0.099394
v -0.273553 0.332880 0.209070
v -0.273943 0.349718 0.212498
v -0.205972 0.315067 0.304237
v -0.206361 0.331904 0.307665
v -0.106498 0.304592 0.366979
v -0.106887 0.321429 0.370407
v 0.009725 0.303051 0.387743
v 0.009336 0.319888 0.391171
v 0.125003 0.310678 0.363368
v 0.124614 0.327516 0.366797
v 0.221786 0.326313 0.297566
v 0.221397 0.343150 0.300994
v 0.285340 0.347575 0.200355
v 0.284950 0.364412 0.203783
v 0.305988 0.371227 0.086532
v 0.305599 0.388064 0.089960
v 0.004778 0.467759 0.307916
v -0.069476 0.468744 0.294650
v -0.133029 0.475435 0.254565
v -0.176206 0.486817 0.193764
v -0.192433 0.501154 0.121503
v -0.179241 0.516265 0.048783
v -0.138637 0.529849 -0.013325
v -0.076804 0.539838 -0.055365
v -0.003154 0.544710 -0.070938
v 0.071100 0.543726 -0.057672
v 0.134653 0.537034 -0.017587
v 0.177830 0.525653 0.043214
v 0.194057 0.511316 0.115475
v 0.180865 0.496205 0.188195
v 0.140261 0.482621 0.250303
v 0.078428 0.472632 0.292343
vt 0.135238 0.053557
vt 0.150863 0.053557
vt 0.166488 0.053557
vt 0.182113 0.053557
vt 0.197738 0.053557
vt 0.213363 0.053557
vt 0.228988 0.053557
vt 0.244613 0.053557
vt 0.260238 0.053557
vt 0.275863 0.053557
vt 0.291488 0.053557
vt 0.307113 0.053557
vt 0.322738 0.053557
vt 0.338363 0.053557
vt 0.353988 0.053557
vt 0.369613 0.053557
vt 0.385238 0.053557
vt 0.135238 0.429497
vt 0.150863 0.429497
vt 0.166488 0.429497
vt 0.182113 0.429497
vt 0.197738 0.429497
vt 0.213363 0.429497
vt 0.228988 0.429497
vt 0.244613 0.429497
vt 0.260238 0.429497
vt 0.275863 0.429497
vt 0.291488 0.429497
vt 0.307113 0.429497
vt 0.322738 0.429497
vt 0.338363 0.429497
vt 0.353988 0.429497
vt 0.369613 0.429497
vt 0.385238 0.429497
vt 0.404594 0.525013
vt 0.370724 0.474322
vt 0.320033 0.440451
vt 0.260238 0.428557
vt 0.200444 0.440451
vt 0.149753 0.474322
vt 0.115882 0.525013
vt 0.103988 0.584807
vt 0.115882 0.644601
vt 0.149753 0.695293
vt 0.200444 0.729163
vt 0.260238 0.741057
vt 0.320032 0.729163
vt 0.370724 0.695293
vt 0.404594 0.644602
vt 0.416488 0.584807
vt 0.260238 0.578557
vt 0.369613 0.072514
vt 0.353988 0.072514
vt 0.338363 0.072514
vt 0.322738 0.072514
vt 0.307113 0.072514
vt 0.291488 0.072514
vt 0.275863 0.072514
vt 0.260238 0.072514
vt 0.244613 0.072514
vt 0.228988 0.072514
vt 0.213363 0.072514
vt 0.197738 0.072514
vt 0.182113 0.072514
vt 0.166488 0.072514
vt 0.150863 0.072514
vt 0.385238 0.072514
vt 0.135238 0.072514
vt 0.135238 0.053557
vt 0.150863 0.053557
vt 0.150863 0.072514
vt 0.135238 0.072514
vt 0.166488 0.053557
vt 0.166488 0.072514
vt 0.182113 0.053557
vt 0.182113 0.072514
vt 0.197738 0.053557
vt 0.197738 0.072514
vt 0.213363 0.053557
vt 0.213363 0.072514
vt 0.228988 0.053557
vt 0.228988 0.072514
vt 0.244613 0.053557
vt 0.244613 0.072514
vt 0.260238 0.053557
vt 0.260238 0.072514
vt 0.275863 0.053557
vt 0.275863 0.072514
vt 0.291488 0.053557
vt 0.291488 0.072514
vt 0.307113 0.053557
vt 0.307113 0.072514
vt 0.322738 0.053557
vt 0.322738 0.072514
vt 0.338363 0.053557
vt 0.338363 0.072514
vt 0.353988 0.053557
vt 0.353988 0.072514
vt 0.369613 0.053557
vt 0.369613 0.072514
vt 0.385238 0.053557
vt 0.385238 0.072514
vt 0.307113 0.381884
vt 0.291488 0.381884
vt 0.275863 0.381884
vt 0.260238 0.381884
vt 0.244613 0.381884
vt 0.228988 0.381884
vt 0.213363 0.381884
vt 0.197738 0.381884
vt 0.182113 0.381884
vt 0.166488 0.381884
vt 0.150863 0.381884
vt 0.385238 0.381884
vt 0.135238 0.381884
vt 0.369613 0.381884
vt 0.353988 0.381884
vt 0.338363 0.381884
vt 0.322738 0.381884
vn 0.915599 0.100438 -0.389346
vn 0.692272 0.159305 -0.703833
vn 0.692273 0.159305 -0.703833
vn 0.915599 0.100438 -0.389346
vn 0.363554 0.193919 -0.911166
vn 0.363555 0.193919 -0.911166
vn -0.020512 0.199010 -0.979783
vn -0.020512 0.199010 -0.979783
vn -0.401455 0.173805 -0.899236
vn -0.401455 0.173805 -0.899236
vn -0.721280 0.122139 -0.681790
vn -0.721281 0.122139 -0.681789
vn -0.931298 0.051878 -0.360545
vn -0.931298 0.051878 -0.360546
vn -0.999533 -0.026280 0.015587
vn -0.999533 -0.026280 0.015588
vn -0.915598 -0.100437 0.389348
vn -0.915599 -0.100437 0.389348
vn -0.692274 -0.159303 0.703832
vn -0.692274 -0.159303 0.703832
vn -0.363555 -0.193920 0.911166
vn -0.363555 -0.193920 0.911166
vn 0.020513 -0.199012 0.979782
vn 0.020513 -0.199012 0.979782
vn 0.401454 -0.173806 0.899236
vn 0.401455 -0.173806 0.899236
vn 0.721281 -0.122140 0.681789
vn 0.721280 -0.122140 0.681789
vn 0.931298 -0.051879 0.360544
vn 0.931298 -0.051879 0.360545
vn 0.999533 0.026281 -0.015587
vn 0.999533 0.026281 -0.015588
vn -0.131207 0.960757 0.244399
vn -0.104497 0.953846 0.281528
vn -0.022474 0.979755 0.198934
vn -0.065534 0.949784 0.305968
vn -0.020107 0.949162 0.314145
vn 0.025072 0.952077 0.304828
vn 0.063275 0.958117 0.279299
vn 0.088702 0.966403 0.241239
vn 0.097342 0.975701 0.196296
vn 0.087669 0.984593 0.151300
vn 0.060999 0.991695 0.113230
vn 0.021381 0.995883 0.088094
vn -0.025007 0.996491 0.079874
vn -0.070894 0.993431 0.089830
vn -0.109137 0.987200 0.116301
vn -0.133909 0.978788 0.155056
vn -0.141587 0.969504 0.200039
vn 0.931550 -0.082464 0.354138
vn 0.999753 -0.004344 -0.021812
vn 0.994964 0.100233 -0.000471
vn 0.926924 0.022297 0.374587
vn 0.721636 -0.152690 0.675224
vn 0.717507 -0.047762 0.694912
vn 0.401968 -0.204330 0.892564
vn 0.398597 -0.099280 0.911737
vn 0.021209 -0.229523 0.973072
vn 0.018742 -0.124413 0.992054
vn -0.362670 -0.224434 0.904489
vn -0.364227 -0.119335 0.923633
vn -0.691227 -0.189837 0.697257
vn -0.692005 -0.084821 0.716892
vn -0.914692 -0.026121 0.403306
vn -0.914444 -0.130998 0.382925
vn -0.998338 -0.056877 0.009347
vn -0.998387 0.047824 0.030615
vn -0.930135 0.021243 -0.366602
vn -0.930346 0.125759 -0.344443
vn -0.720221 0.091469 -0.687688
vn -0.720930 0.195818 -0.664767
vn -0.400551 0.143110 -0.905030
vn -0.402018 0.247337 -0.881593
vn -0.019794 0.168303 -0.985537
vn -0.022164 0.272469 -0.961909
vn 0.364085 0.163213 -0.916954
vn 0.360804 0.267393 -0.893489
vn 0.692643 0.128616 -0.709721
vn 0.688582 0.232877 -0.686748
vn 0.915859 0.069778 -0.395390
vn 0.911269 0.174178 -0.373162
vn 0.051394 -0.976007 -0.211587
vn 0.044380 -0.974158 -0.221465
vn 0.044380 -0.974158 -0.221465
vn 0.051394 -0.976007 -0.211587
vn -0.124119 0.945550 0.300880
vn -0.156443 0.954328 0.254526
vn -0.156628 0.954413 0.254096
vn -0.124320 0.945585 0.300688
vn 0.034054 -0.973071 -0.227977
vn 0.034054 -0.973071 -0.227977
vn -0.075939 0.940391 0.331509
vn -0.075975 0.940393 0.331495
vn 0.021991 -0.972911 -0.230131
vn 0.021991 -0.972911 -0.230131
vn -0.019474 0.939685 0.341485
vn -0.019264 0.939691 0.341481
vn 0.010026 -0.973703 -0.227600
vn 0.010026 -0.973703 -0.227600
vn 0.036320 0.943533 0.329282
vn 0.036706 0.943577 0.329113
vn -0.000021 -0.975326 -0.220772
vn -0.000021 -0.975326 -0.220772
vn 0.082685 0.951293 0.296993
vn 0.083072 0.951386 0.296588
vn -0.006616 -0.977532 -0.210683
vn -0.006616 -0.977532 -0.210683
vn 0.112557 0.961711 0.249885
vn 0.112774 0.961834 0.249315
vn -0.008759 -0.979987 -0.198870
vn -0.008759 -0.979987 -0.198870
vn 0.121629 0.973156 0.195379
vn 0.121608 0.973273 0.194809
vn -0.006122 -0.982316 -0.187130
vn -0.006122 -0.982316 -0.187130
vn 0.108877 0.983892 0.141781
vn 0.108689 0.983972 0.141374
vn 0.000893 -0.984165 -0.177252
vn 0.000893 -0.984165 -0.177252
vn 0.076493 0.992339 0.097020
vn 0.076301 0.992371 0.096841
vn 0.011217 -0.985252 -0.170741
vn 0.011217 -0.985252 -0.170741
vn 0.029414 0.997281 0.067567
vn 0.029380 0.997283 0.067554
vn 0.023278 -0.985412 -0.168586
vn 0.023278 -0.985412 -0.168586
vn -0.025428 0.998013 0.057658
vn -0.025231 0.998018 0.057656
vn 0.035245 -0.984621 -0.171115
vn 0.035245 -0.984620 -0.171115
vn -0.080025 0.994417 0.068786
vn -0.079654 0.994457 0.068633
vn 0.045291 -0.982998 -0.177945
vn 0.045291 -0.982998 -0.177945
vn -0.126327 0.986988 0.099484
vn -0.125939 0.987076 0.099102
vn 0.051886 -0.980791 -0.188034
vn 0.051886 -0.980791 -0.188034
vn -0.157303 0.976785 0.145420
vn -0.157068 0.976906 0.144859
vn 0.054030 -0.978336 -0.199848
vn 0.054030 -0.978336 -0.199848
vn -0.168000 0.965315 0.199856
vn -0.168003 0.965435 0.199273
vn -0.001496 0.551630 0.834087
vn -0.273191 0.555232 0.785547
vn -0.505731 0.579718 0.638877
vn -0.663713 0.621362 0.416407
vn -0.723089 0.673823 0.152002
vn -0.674819 0.729113 -0.114080
vn -0.526251 0.778816 -0.341329
vn -0.300000 0.815366 -0.495155
vn -0.030516 0.833196 -0.552135
vn 0.241176 0.829595 -0.503593
vn 0.473716 0.805109 -0.356923
vn 0.631700 0.763464 -0.134454
vn 0.691078 0.711002 0.129948
vn 0.642807 0.655713 0.396030
vn 0.494237 0.606010 0.623282
vn 0.267989 0.569461 0.777108
s 1
f 50/69/1 51/70/2 52/71/3 53/72/4
f 51/70/2 54/73/5 55/74/6 52/71/3
f 54/73/5 56/75/7 57/76/8 55/74/6
f 56/75/7 58/77/9 59/78/10 57/76/8
f 58/77/9 60/79/11 61/80/12 59/78/10
f 60/79/11 62/81/13 63/82/14 61/80/12
f 62/81/13 64/83/15 65/84/16 63/82/14
f 64/83/15 66/85/17 67/86/18 65/84/16
f 66/85/17 68/87/19 69/88/20 67/86/18
f 68/87/19 70/89/21 71/90/22 69/88/20
f 70/89/21 72/91/23 73/92/24 71/90/22
f 72/91/23 74/93/25 75/94/26 73/92/24
f 74/93/25 76/95/27 77/96/28 75/94/26
f 76/95/27 78/97/29 79/98/30 77/96/28
f 78/97/29 80/99/31 81/100/32 79/98/30
f 80/99/31 50/101/1 53/102/4 81/100/32
s 2
f 17/49/33 18/48/34 33/51/35
f 18/48/34 19/47/36 33/51/35
f 19/47/36 20/46/37 33/51/35
f 20/46/37 21/45/38 33/51/35
f 21/45/38 22/44/39 33/51/35
f 22/44/39 23/43/40 33/51/35
f 23/43/40 24/42/41 33/51/35
f 24/42/41 25/41/42 33/51/35
f 25/41/42 26/40/43 33/51/35
f 26/40/43 27/39/44 33/51/35
f 27/39/44 28/38/45 33/51/35
f 28/38/45 29/37/46 33/51/35
f 29/37/46 30/36/47 33/51/35
f 30/36/47 31/35/48 33/51/35
f 31/35/48 32/50/49 33/51/35
f 32/50/49 17/49/33 33/51/35
s 3
f 35/53/50 34/52/51 94/116/52 95/117/53
f 36/54/54 35/53/50 95/117/53 96/118/55
f 37/55/56 36/54/54 96/118/55 97/119/57
f 38/56/58 37/55/56 97/119/57 82/103/59
f 39/57/60 38/56/58 82/103/59 83/104/61
f 40/58/62 39/57/60 83/104/61 84/105/63
f 85/106/64 41/59/65 40/58/62 84/105/63
f 42/60/66 41/59/65 85/106/64 86/107/67
f 43/61/68 42/60/66 86/107/67 87/108/69
f 44/62/70 43/61/68 87/108/69 88/109/71
f 45/63/72 44/62/70 88/109/71 89/110/73
f 46/64/74 45/63/72 89/110/73 90/111/75
f 47/65/76 46/64/74 90/111/75 91/112/77
f 48/66/78 47/65/76 91/112/77 92/113/79
f 49/68/80 48/66/78 92/113/79 93/115/81
f 34/52/51 49/67/80 93/114/81 94/116/52
s 4
f 1/1/82 2/2/83 51/70/84 50/69/85
s 5
f 48/66/86 49/68/87 53/72/88 52/71/89
s 4
f 2/2/83 3/3/90 54/73/91 51/70/84
s 5
f 47/65/92 48/66/86 52/71/89 55/74/93
s 4
f 3/3/90 4/4/94 56/75/95 54/73/91
s 5
f 46/64/96 47/65/92 55/74/93 57/76/97
s 4
f 4/4/94 5/5/98 58/77/99 56/75/95
s 5
f 45/63/100 46/64/96 57/76/97 59/78/101
s 4
f 5/5/98 6/6/102 60/79/103 58/77/99
s 5
f 44/62/104 45/63/100 59/78/101 61/80/105
s 4
f 6/6/102 7/7/106 62/81/107 60/79/103
s 5
f 43/61/108 44/62/104 61/80/105 63/82/109
s 4
f 7/7/106 8/8/110 64/83/111 62/81/107
s 5
f 42/60/112 43/61/108 63/82/109 65/84/113
s 4
f 8/8/110 9/9/114 66/85/115 64/83/111
s 5
f 41/59/116 42/60/112 65/84/113 67/86/117
s 4
f 9/9/114 10/10/118 68/87/119 66/85/115
s 5
f 40/58/120 41/59/116 67/86/117 69/88/121
s 4
f 10/10/118 11/11/122 70/89/123 68/87/119
s 5
f 39/57/124 40/58/120 69/88/121 71/90/125
s 4
f 11/11/122 12/12/126 72/91/127 70/89/123
s 5
f 38/56/128 39/57/124 71/90/125 73/92/129
s 4
f 12/12/126 13/13/130 74/93/131 72/91/127
s 5
f 37/55/132 38/56/128 73/92/129 75/94/133
s 4
f 13/13/130 14/14/134 76/95/135 74/93/131
s 5
f 36/54/136 37/55/132 75/94/133 77/96/137
s 4
f 14/14/134 15/15/138 78/97/139 76/95/135
s 5
f 35/53/140 36/54/136 77/96/137 79/98/141
s 4
f 15/15/138 16/16/142 80/99/143 78/97/139
s 5
f 34/52/144 35/53/140 79/98/141 81/100/145
s 4
f 16/16/142 1/17/82 50/101/85 80/99/143
s 5
f 49/67/87 34/52/144 81/100/145 53/102/88
s 3
f 83/104/61 82/103/59 28/29/146 27/28/147
f 84/105/63 83/104/61 27/28/147 26/27/148
f 25/26/149 85/106/64 84/105/63 26/27/148
f 86/107/67 85/106/64 25/26/149 24/25/150
f 87/108/69 86/107/67 24/25/150 23/24/151
f 88/109/71 87/108/69 23/24/151 22/23/152
f 89/110/73 88/109/71 22/23/152 21/22/153
f 90/111/75 89/110/73 21/22/153 20/21/154
f 91/112/77 90/111/75 20/21/154 19/20/155
f 92/113/79 91/112/77 19/20/155 18/19/156
f 93/115/81 92/113/79 18/19/156 17/18/157
f 94/116/52 93/114/81 17/34/157 32/33/158
f 95/117/53 94/116/52 32/33/158 31/32/159
f 96/118/55 95/117/53 31/32/159 30/31/160
f 97/119/57 96/118/55 30/31/160 29/30/161
f 82/103/59 97/119/57 29/30/161 28/29/146
