# This file uses centimeters as units for non-parametric coordinates.

v 0.099863 0.154641 0.225951
v 0.096657 0.157762 0.226682
v 0.092278 0.158905 0.226950
v 0.087899 0.157762 0.226682
v 0.084693 0.154641 0.225951
v 0.083520 0.150377 0.224951
v 0.084693 0.146114 0.223952
v 0.087899 0.142992 0.223221
v 0.092278 0.141850 0.222953
v 0.096657 0.142992 0.223221
v 0.099863 0.146114 0.223952
v 0.101036 0.150377 0.224951
v 0.105416 0.156300 0.232924
v 0.099863 0.161706 0.234191
v 0.092278 0.163685 0.234655
v 0.084693 0.161706 0.234191
v 0.079140 0.156300 0.232924
v 0.077108 0.148915 0.231194
v 0.079140 0.141530 0.229464
v 0.084693 0.136123 0.228197
v 0.092278 0.134145 0.227733
v 0.099863 0.136123 0.228197
v 0.105416 0.141530 0.229464
v 0.107448 0.148915 0.231194
v 0.107448 0.155444 0.241720
v 0.101036 0.161686 0.243182
v 0.092278 0.163971 0.243718
v 0.083520 0.161686 0.243182
v 0.077108 0.155444 0.241720
v 0.074761 0.146916 0.239721
v 0.077108 0.138389 0.237723
v 0.083520 0.132146 0.236261
v 0.092278 0.129861 0.235725
v 0.101036 0.132146 0.236261
v 0.107448 0.138389 0.237723
v 0.109795 0.146916 0.239721
v 0.105416 0.152303 0.249979
v 0.099863 0.157709 0.251246
v 0.092278 0.159688 0.251710
v 0.084693 0.157709 0.251246
v 0.079140 0.152303 0.249979
v 0.077108 0.144918 0.248249
v 0.079140 0.137533 0.246518
v 0.084693 0.132127 0.245252
v 0.092278 0.130148 0.244788
v 0.099863 0.132127 0.245252
v 0.105416 0.137533 0.246518
v 0.107448 0.144918 0.248249
v 0.099863 0.147719 0.255491
v 0.096657 0.150841 0.256222
v 0.092278 0.151983 0.256490
v 0.087899 0.150841 0.256222
v 0.084693 0.147719 0.255491
v 0.083520 0.143456 0.254491
v 0.084693 0.139192 0.253492
v 0.087899 0.136070 0.252761
v 0.092278 0.134928 0.252493
v 0.096657 0.136070 0.252761
v 0.099863 0.139192 0.253492
v 0.101036 0.143456 0.254491
v 0.092278 0.150913 0.222667
v 0.092278 0.142920 0.256776
v -0.085338 0.154641 0.225951
v -0.088544 0.157762 0.226682
v -0.092923 0.158905 0.226950
v -0.097303 0.157762 0.226682
v -0.100509 0.154641 0.225951
v -0.101682 0.150377 0.224951
v -0.100509 0.146114 0.223952
v -0.097303 0.142992 0.223221
v -0.092923 0.141850 0.222953
v -0.088544 0.142992 0.223221
v -0.085338 0.146114 0.223952
v -0.084165 0.150377 0.224951
v -0.079786 0.156300 0.232924
v -0.085338 0.161706 0.234191
v -0.092923 0.163685 0.234655
v -0.100509 0.161706 0.234191
v -0.106061 0.156300 0.232924
v -0.108094 0.148915 0.231194
v -0.106061 0.141530 0.229464
v -0.100509 0.136123 0.228197
v -0.092923 0.134145 0.227733
v -0.085338 0.136123 0.228197
v -0.079786 0.141530 0.229464
v -0.077753 0.148915 0.231194
v -0.077753 0.155444 0.241720
v -0.084165 0.161686 0.243182
v -0.092923 0.163971 0.243718
v -0.101682 0.161686 0.243182
v -0.108094 0.155444 0.241720
v -0.110440 0.146916 0.239721
v -0.108094 0.138389 0.237723
v -0.101682 0.132146 0.236261
v -0.092923 0.129861 0.235725
v -0.084165 0.132146 0.236261
v -0.077753 0.138389 0.237723
v -0.075407 0.146916 0.239721
v -0.079786 0.152303 0.249979
v -0.085338 0.157709 0.251246
v -0.092923 0.159688 0.251710
v -0.100509 0.157709 0.251246
v -0.106061 0.152303 0.249979
v -0.108094 0.144918 0.248249
v -0.106061 0.137533 0.246518
v -0.100509 0.132127 0.245252
v -0.092923 0.130148 0.244788
v -0.085338 0.132127 0.245252
v -0.079786 0.137533 0.246518
v -0.077753 0.144918 0.248249
v -0.085338 0.147719 0.255491
v -0.088544 0.150841 0.256222
v -0.092923 0.151983 0.256490
v -0.097303 0.150841 0.256222
v -0.100509 0.147719 0.255491
v -0.101682 0.143456 0.254491
v -0.100509 0.139192 0.253492
v -0.097303 0.136070 0.252761
v -0.092923 0.134928 0.252493
v -0.088544 0.136070 0.252761
v -0.085338 0.139192 0.253492
v -0.084165 0.143456 0.254491
v -0.092923 0.150913 0.222667
v -0.092923 0.142920 0.256776
vt 0.938349 0.030895
vt 0.941865 0.030895
vt 0.945380 0.030895
vt 0.948895 0.030895
vt 0.952410 0.030895
vt 0.955925 0.030895
vt 0.959441 0.030895
vt 0.962956 0.030895
vt 0.966471 0.030895
vt 0.969986 0.030895
vt 0.973501 0.030895
vt 0.977017 0.030895
vt 0.980532 0.030895
vt 0.938349 0.037925
vt 0.941865 0.037925
vt 0.945380 0.037925
vt 0.948895 0.037925
vt 0.952410 0.037925
vt 0.955925 0.037925
vt 0.959441 0.037925
vt 0.962956 0.037925
vt 0.966471 0.037925
vt 0.969986 0.037925
vt 0.973501 0.037925
vt 0.977017 0.037925
vt 0.980532 0.037925
vt 0.938349 0.044956
vt 0.941865 0.044956
vt 0.945380 0.044956
vt 0.948895 0.044956
vt 0.952410 0.044956
vt 0.955925 0.044956
vt 0.959441 0.044956
vt 0.962956 0.044956
vt 0.966471 0.044956
vt 0.969986 0.044956
vt 0.973501 0.044956
vt 0.977017 0.044956
vt 0.980532 0.044956
vt 0.938349 0.051986
vt 0.941865 0.051986
vt 0.945380 0.051986
vt 0.948895 0.051986
vt 0.952410 0.051986
vt 0.955925 0.051986
vt 0.959441 0.051986
vt 0.962956 0.051986
vt 0.966471 0.051986
vt 0.969986 0.051986
vt 0.973501 0.051986
vt 0.977017 0.051986
vt 0.980532 0.051986
vt 0.938349 0.059017
vt 0.941865 0.059017
vt 0.945380 0.059017
vt 0.948895 0.059017
vt 0.952410 0.059017
vt 0.955925 0.059017
vt 0.959441 0.059017
vt 0.962956 0.059017
vt 0.966471 0.059017
vt 0.969986 0.059017
vt 0.973501 0.059017
vt 0.977017 0.059017
vt 0.980532 0.059017
vt 0.940107 0.023865
vt 0.943622 0.023865
vt 0.947137 0.023865
vt 0.950653 0.023865
vt 0.954168 0.023865
vt 0.957683 0.023865
vt 0.961198 0.023865
vt 0.964713 0.023865
vt 0.968229 0.023865
vt 0.971744 0.023865
vt 0.975259 0.023865
vt 0.978774 0.023865
vt 0.940107 0.066047
vt 0.943622 0.066047
vt 0.947137 0.066047
vt 0.950653 0.066047
vt 0.954168 0.066047
vt 0.957683 0.066047
vt 0.961198 0.066047
vt 0.964713 0.066047
vt 0.968229 0.066047
vt 0.971744 0.066047
vt 0.975259 0.066047
vt 0.978774 0.066047
vt 0.938349 0.030895
vt 0.941865 0.030895
vt 0.941865 0.037925
vt 0.938349 0.037925
vt 0.945380 0.030895
vt 0.945380 0.037925
vt 0.948895 0.030895
vt 0.948895 0.037925
vt 0.952410 0.030895
vt 0.952410 0.037925
vt 0.955925 0.030895
vt 0.955925 0.037925
vt 0.959441 0.030895
vt 0.959441 0.037925
vt 0.962956 0.030895
vt 0.962956 0.037925
vt 0.966471 0.030895
vt 0.966471 0.037925
vt 0.969986 0.030895
vt 0.969986 0.037925
vt 0.973501 0.030895
vt 0.973501 0.037925
vt 0.977017 0.030895
vt 0.977017 0.037925
vt 0.980532 0.030895
vt 0.980532 0.037925
vt 0.941865 0.044956
vt 0.938349 0.044956
vt 0.945380 0.044956
vt 0.948895 0.044956
vt 0.952410 0.044956
vt 0.955925 0.044956
vt 0.959441 0.044956
vt 0.962956 0.044956
vt 0.966471 0.044956
vt 0.969986 0.044956
vt 0.973501 0.044956
vt 0.977017 0.044956
vt 0.980532 0.044956
vt 0.941865 0.051986
vt 0.938349 0.051986
vt 0.945380 0.051986
vt 0.948895 0.051986
vt 0.952410 0.051986
vt 0.955925 0.051986
vt 0.959441 0.051986
vt 0.962956 0.051986
vt 0.966471 0.051986
vt 0.969986 0.051986
vt 0.973501 0.051986
vt 0.977017 0.051986
vt 0.980532 0.051986
vt 0.941865 0.059017
vt 0.938349 0.059017
vt 0.945380 0.059017
vt 0.948895 0.059017
vt 0.952410 0.059017
vt 0.955925 0.059017
vt 0.959441 0.059017
vt 0.962956 0.059017
vt 0.966471 0.059017
vt 0.969986 0.059017
vt 0.973501 0.059017
vt 0.977017 0.059017
vt 0.980532 0.059017
vt 0.940107 0.023865
vt 0.943622 0.023865
vt 0.947137 0.023865
vt 0.950653 0.023865
vt 0.954168 0.023865
vt 0.957683 0.023865
vt 0.961198 0.023865
vt 0.964713 0.023865
vt 0.968229 0.023865
vt 0.971744 0.023865
vt 0.975259 0.023865
vt 0.978774 0.023865
vt 0.940107 0.066047
vt 0.943622 0.066047
vt 0.947137 0.066047
vt 0.950653 0.066047
vt 0.954168 0.066047
vt 0.957683 0.066047
vt 0.961198 0.066047
vt 0.964713 0.066047
vt 0.968229 0.066047
vt 0.971744 0.066047
vt 0.975259 0.066047
vt 0.978774 0.066047
vn 0.541055 0.482281 -0.688959
vn 0.312376 0.704927 -0.636788
vn 0.447849 0.856687 -0.255965
vn 0.775699 0.537485 -0.330760
vn -0.000000 0.786419 -0.617694
vn -0.000000 0.973523 -0.228590
vn -0.312376 0.704927 -0.636788
vn -0.447850 0.856687 -0.255964
vn -0.541054 0.482281 -0.688960
vn -0.775699 0.537485 -0.330759
vn -0.624759 0.178138 -0.760226
vn -0.895700 0.101446 -0.432931
vn -0.541056 -0.126000 -0.831494
vn -0.775699 -0.334593 -0.535106
vn -0.312377 -0.348651 -0.883664
vn -0.447851 -0.653793 -0.609905
vn -0.000000 -0.430140 -0.902762
vn -0.000000 -0.770630 -0.637283
vn 0.312377 -0.348651 -0.883664
vn 0.447850 -0.653793 -0.609905
vn 0.541056 -0.126000 -0.831494
vn 0.775699 -0.334593 -0.535106
vn 0.624759 0.178138 -0.760226
vn 0.895700 0.101446 -0.432931
vn 0.500001 0.843186 0.197579
vn 0.866025 0.486814 0.114072
vn -0.000000 0.973627 0.228144
vn -0.500001 0.843186 0.197579
vn -0.866025 0.486814 0.114073
vn -1.000000 0.000000 -0.000000
vn -0.866025 -0.486814 -0.114072
vn -0.500001 -0.843185 -0.197579
vn 0.000000 -0.973627 -0.228144
vn 0.500001 -0.843185 -0.197579
vn 0.866025 -0.486815 -0.114072
vn 1.000000 -0.000000 -0.000000
vn 0.447851 0.653793 0.609905
vn 0.775699 0.334592 0.535106
vn 0.000000 0.770630 0.637283
vn -0.447850 0.653793 0.609905
vn -0.775699 0.334593 0.535106
vn -0.895700 -0.101446 0.432932
vn -0.775698 -0.537485 0.330760
vn -0.447850 -0.856687 0.255964
vn 0.000000 -0.973523 0.228590
vn 0.447850 -0.856687 0.255964
vn 0.775698 -0.537485 0.330760
vn 0.895700 -0.101447 0.432932
vn 0.312379 0.348651 0.883664
vn 0.541057 0.126001 0.831493
vn -0.000000 0.430139 0.902763
vn -0.312380 0.348651 0.883664
vn -0.541057 0.126001 0.831493
vn -0.624758 -0.178137 0.760227
vn -0.541053 -0.482281 0.688960
vn -0.312376 -0.704928 0.636787
vn 0.000001 -0.786419 0.617694
vn 0.312377 -0.704928 0.636786
vn 0.541053 -0.482281 0.688960
vn 0.624758 -0.178137 0.760227
vn 0.000000 0.228145 -0.973627
vn -0.000001 -0.228145 0.973627
vn 0.541055 0.482281 -0.688959
vn 0.312376 0.704928 -0.636788
vn 0.447849 0.856687 -0.255965
vn 0.775698 0.537485 -0.330760
vn -0.000000 0.786419 -0.617694
vn -0.000000 0.973523 -0.228590
vn -0.312376 0.704927 -0.636788
vn -0.447850 0.856687 -0.255964
vn -0.541055 0.482280 -0.688960
vn -0.775699 0.537485 -0.330759
vn -0.624759 0.178137 -0.760226
vn -0.895700 0.101446 -0.432931
vn -0.541056 -0.126000 -0.831494
vn -0.775699 -0.334593 -0.535106
vn -0.312377 -0.348651 -0.883664
vn -0.447851 -0.653793 -0.609905
vn -0.000000 -0.430140 -0.902762
vn -0.000000 -0.770630 -0.637283
vn 0.312377 -0.348651 -0.883664
vn 0.447850 -0.653793 -0.609906
vn 0.541056 -0.126001 -0.831494
vn 0.775699 -0.334593 -0.535106
vn 0.624759 0.178138 -0.760226
vn 0.895700 0.101446 -0.432931
vn 0.500001 0.843186 0.197579
vn 0.866025 0.486814 0.114072
vn -0.000000 0.973627 0.228144
vn -0.500001 0.843186 0.197579
vn -0.866025 0.486814 0.114073
vn -1.000000 0.000000 -0.000000
vn -0.866025 -0.486814 -0.114072
vn -0.500001 -0.843185 -0.197579
vn 0.000000 -0.973627 -0.228144
vn 0.500001 -0.843185 -0.197579
vn 0.866025 -0.486814 -0.114072
vn 1.000000 0.000000 -0.000000
vn 0.447851 0.653793 0.609905
vn 0.775699 0.334593 0.535106
vn 0.000000 0.770630 0.637282
vn -0.447850 0.653793 0.609905
vn -0.775699 0.334592 0.535106
vn -0.895700 -0.101446 0.432932
vn -0.775698 -0.537485 0.330760
vn -0.447850 -0.856687 0.255964
vn -0.000000 -0.973523 0.228590
vn 0.447850 -0.856687 0.255964
vn 0.775698 -0.537485 0.330760
vn 0.895700 -0.101446 0.432932
vn 0.312379 0.348651 0.883664
vn 0.541057 0.126001 0.831494
vn -0.000000 0.430139 0.902763
vn -0.312380 0.348651 0.883664
vn -0.541057 0.126001 0.831493
vn -0.624758 -0.178137 0.760227
vn -0.541053 -0.482281 0.688960
vn -0.312376 -0.704928 0.636787
vn 0.000001 -0.786419 0.617694
vn 0.312377 -0.704928 0.636787
vn 0.541053 -0.482281 0.688960
vn 0.624758 -0.178137 0.760227
vn 0.000000 0.228145 -0.973627
vn -0.000001 -0.228145 0.973627
s 1
f 1/1/1 2/2/2 14/15/3 13/14/4
f 2/2/2 3/3/5 15/16/6 14/15/3
f 3/3/5 4/4/7 16/17/8 15/16/6
f 4/4/7 5/5/9 17/18/10 16/17/8
f 5/5/9 6/6/11 18/19/12 17/18/10
f 6/6/11 7/7/13 19/20/14 18/19/12
f 7/7/13 8/8/15 20/21/16 19/20/14
f 8/8/15 9/9/17 21/22/18 20/21/16
f 9/9/17 10/10/19 22/23/20 21/22/18
f 10/10/19 11/11/21 23/24/22 22/23/20
f 11/11/21 12/12/23 24/25/24 23/24/22
f 12/12/23 1/13/1 13/26/4 24/25/24
f 13/14/4 14/15/3 26/28/25 25/27/26
f 14/15/3 15/16/6 27/29/27 26/28/25
f 15/16/6 16/17/8 28/30/28 27/29/27
f 16/17/8 17/18/10 29/31/29 28/30/28
f 17/18/10 18/19/12 30/32/30 29/31/29
f 18/19/12 19/20/14 31/33/31 30/32/30
f 19/20/14 20/21/16 32/34/32 31/33/31
f 20/21/16 21/22/18 33/35/33 32/34/32
f 21/22/18 22/23/20 34/36/34 33/35/33
f 22/23/20 23/24/22 35/37/35 34/36/34
f 23/24/22 24/25/24 36/38/36 35/37/35
f 24/25/24 13/26/4 25/39/26 36/38/36
f 25/27/26 26/28/25 38/41/37 37/40/38
f 26/28/25 27/29/27 39/42/39 38/41/37
f 27/29/27 28/30/28 40/43/40 39/42/39
f 28/30/28 29/31/29 41/44/41 40/43/40
f 29/31/29 30/32/30 42/45/42 41/44/41
f 30/32/30 31/33/31 43/46/43 42/45/42
f 31/33/31 32/34/32 44/47/44 43/46/43
f 32/34/32 33/35/33 45/48/45 44/47/44
f 33/35/33 34/36/34 46/49/46 45/48/45
f 34/36/34 35/37/35 47/50/47 46/49/46
f 35/37/35 36/38/36 48/51/48 47/50/47
f 36/38/36 25/39/26 37/52/38 48/51/48
f 37/40/38 38/41/37 50/54/49 49/53/50
f 38/41/37 39/42/39 51/55/51 50/54/49
f 39/42/39 40/43/40 52/56/52 51/55/51
f 40/43/40 41/44/41 53/57/53 52/56/52
f 41/44/41 42/45/42 54/58/54 53/57/53
f 42/45/42 43/46/43 55/59/55 54/58/54
f 43/46/43 44/47/44 56/60/56 55/59/55
f 44/47/44 45/48/45 57/61/57 56/60/56
f 45/48/45 46/49/46 58/62/58 57/61/57
f 46/49/46 47/50/47 59/63/59 58/62/58
f 47/50/47 48/51/48 60/64/60 59/63/59
f 48/51/48 37/52/38 49/65/50 60/64/60
f 2/2/2 1/1/1 61/66/61
f 3/3/5 2/2/2 61/67/61
f 4/4/7 3/3/5 61/68/61
f 5/5/9 4/4/7 61/69/61
f 6/6/11 5/5/9 61/70/61
f 7/7/13 6/6/11 61/71/61
f 8/8/15 7/7/13 61/72/61
f 9/9/17 8/8/15 61/73/61
f 10/10/19 9/9/17 61/74/61
f 11/11/21 10/10/19 61/75/61
f 12/12/23 11/11/21 61/76/61
f 1/13/1 12/12/23 61/77/61
f 49/53/50 50/54/49 62/78/62
f 50/54/49 51/55/51 62/79/62
f 51/55/51 52/56/52 62/80/62
f 52/56/52 53/57/53 62/81/62
f 53/57/53 54/58/54 62/82/62
f 54/58/54 55/59/55 62/83/62
f 55/59/55 56/60/56 62/84/62
f 56/60/56 57/61/57 62/85/62
f 57/61/57 58/62/58 62/86/62
f 58/62/58 59/63/59 62/87/62
f 59/63/59 60/64/60 62/88/62
f 60/64/60 49/65/50 62/89/62
s 2
f 63/90/63 64/91/64 76/92/65 75/93/66
f 64/91/64 65/94/67 77/95/68 76/92/65
f 65/94/67 66/96/69 78/97/70 77/95/68
f 66/96/69 67/98/71 79/99/72 78/97/70
f 67/98/71 68/100/73 80/101/74 79/99/72
f 68/100/73 69/102/75 81/103/76 80/101/74
f 69/102/75 70/104/77 82/105/78 81/103/76
f 70/104/77 71/106/79 83/107/80 82/105/78
f 71/106/79 72/108/81 84/109/82 83/107/80
f 72/108/81 73/110/83 85/111/84 84/109/82
f 73/110/83 74/112/85 86/113/86 85/111/84
f 74/112/85 63/114/63 75/115/66 86/113/86
f 75/93/66 76/92/65 88/116/87 87/117/88
f 76/92/65 77/95/68 89/118/89 88/116/87
f 77/95/68 78/97/70 90/119/90 89/118/89
f 78/97/70 79/99/72 91/120/91 90/119/90
f 79/99/72 80/101/74 92/121/92 91/120/91
f 80/101/74 81/103/76 93/122/93 92/121/92
f 81/103/76 82/105/78 94/123/94 93/122/93
f 82/105/78 83/107/80 95/124/95 94/123/94
f 83/107/80 84/109/82 96/125/96 95/124/95
f 84/109/82 85/111/84 97/126/97 96/125/96
f 85/111/84 86/113/86 98/127/98 97/126/97
f 86/113/86 75/115/66 87/128/88 98/127/98
f 87/117/88 88/116/87 100/129/99 99/130/100
f 88/116/87 89/118/89 101/131/101 100/129/99
f 89/118/89 90/119/90 102/132/102 101/131/101
f 90/119/90 91/120/91 103/133/103 102/132/102
f 91/120/91 92/121/92 104/134/104 103/133/103
f 92/121/92 93/122/93 105/135/105 104/134/104
f 93/122/93 94/123/94 106/136/106 105/135/105
f 94/123/94 95/124/95 107/137/107 106/136/106
f 95/124/95 96/125/96 108/138/108 107/137/107
f 96/125/96 97/126/97 109/139/109 108/138/108
f 97/126/97 98/127/98 110/140/110 109/139/109
f 98/127/98 87/128/88 99/141/100 110/140/110
f 99/130/100 100/129/99 112/142/111 111/143/112
f 100/129/99 101/131/101 113/144/113 112/142/111
f 101/131/101 102/132/102 114/145/114 113/144/113
f 102/132/102 103/133/103 115/146/115 114/145/114
f 103/133/103 104/134/104 116/147/116 115/146/115
f 104/134/104 105/135/105 117/148/117 116/147/116
f 105/135/105 106/136/106 118/149/118 117/148/117
f 106/136/106 107/137/107 119/150/119 118/149/118
f 107/137/107 108/138/108 120/151/120 119/150/119
f 108/138/108 109/139/109 121/152/121 120/151/120
f 109/139/109 110/140/110 122/153/122 121/152/121
f 110/140/110 99/141/100 111/154/112 122/153/122
f 64/91/64 63/90/63 123/155/123
f 65/94/67 64/91/64 123/156/123
f 66/96/69 65/94/67 123/157/123
f 67/98/71 66/96/69 123/158/123
f 68/100/73 67/98/71 123/159/123
f 69/102/75 68/100/73 123/160/123
f 70/104/77 69/102/75 123/161/123
f 71/106/79 70/104/77 123/162/123
f 72/108/81 71/106/79 123/163/123
f 73/110/83 72/108/81 123/164/123
f 74/112/85 73/110/83 123/165/123
f 63/114/63 74/112/85 123/166/123
f 111/143/112 112/142/111 124/167/124
f 112/142/111 113/144/113 124/168/124
f 113/144/113 114/145/114 124/169/124
f 114/145/114 115/146/115 124/170/124
f 115/146/115 116/147/116 124/171/124
f 116/147/116 117/148/117 124/172/124
f 117/148/117 118/149/118 124/173/124
f 118/149/118 119/150/119 124/174/124
f 119/150/119 120/151/120 124/175/124
f 120/151/120 121/152/121 124/176/124
f 121/152/121 122/153/122 124/177/124
f 122/153/122 111/154/112 124/178/124
