# This file uses centimeters as units for non-parametric coordinates.

v 0.019630 0.078799 0.170100
v 0.008368 0.086847 0.168621
v -0.005552 0.086847 0.168621
v -0.016814 0.078799 0.170100
v -0.021115 0.065778 0.172494
v -0.016814 0.052758 0.174887
v -0.005552 0.044710 0.176366
v 0.008368 0.044710 0.176366
v 0.019630 0.052758 0.174887
v 0.023932 0.065778 0.172494
v 0.036069 0.092417 0.178124
v 0.014647 0.107724 0.175310
v -0.011831 0.107724 0.175310
v -0.033252 0.092417 0.178124
v -0.041434 0.067650 0.182676
v -0.033252 0.042883 0.187229
v -0.011831 0.027576 0.190042
v 0.014647 0.027576 0.190042
v 0.036069 0.042883 0.187229
v 0.044251 0.067650 0.182676
v 0.049114 0.104655 0.192270
v 0.019630 0.125723 0.188397
v -0.016814 0.125723 0.188397
v -0.046298 0.104654 0.192270
v -0.057560 0.070565 0.198536
v -0.046298 0.036476 0.204801
v -0.016814 0.015407 0.208674
v 0.019630 0.015407 0.208674
v 0.049114 0.036476 0.204801
v 0.060376 0.070565 0.198536
v 0.057490 0.114313 0.211154
v 0.022830 0.139080 0.206602
v -0.020013 0.139080 0.206602
v -0.054673 0.114313 0.211154
v -0.067913 0.074238 0.218520
v -0.054673 0.034164 0.225886
v -0.020013 0.009397 0.230438
v 0.022830 0.009397 0.230438
v 0.057490 0.034164 0.225886
v 0.070729 0.074238 0.218520
v 0.060376 0.120447 0.232927
v 0.023932 0.146489 0.228141
v -0.021115 0.146489 0.228141
v -0.057560 0.120447 0.232927
v -0.071480 0.078310 0.240672
v -0.057560 0.036173 0.248417
v -0.021115 0.010131 0.253204
v 0.023932 0.010131 0.253204
v 0.060376 0.036173 0.248417
v 0.074296 0.078310 0.240672
v 0.057490 0.122456 0.255459
v 0.022830 0.147223 0.250907
v -0.020013 0.147223 0.250907
v -0.054673 0.122456 0.255459
v -0.067913 0.082382 0.262825
v -0.054673 0.042307 0.270191
v -0.020013 0.017540 0.274743
v 0.022830 0.017540 0.274743
v 0.057490 0.042307 0.270191
v 0.070729 0.082382 0.262825
v 0.049114 0.120144 0.276543
v 0.019630 0.141213 0.272671
v -0.016814 0.141213 0.272671
v -0.046298 0.120144 0.276543
v -0.057560 0.086055 0.282809
v -0.046298 0.051965 0.289075
v -0.016814 0.030897 0.292947
v 0.019630 0.030897 0.292947
v 0.049114 0.051966 0.289075
v 0.060376 0.086055 0.282809
v 0.036069 0.113737 0.294116
v 0.014647 0.129044 0.291303
v -0.011831 0.129044 0.291303
v -0.033252 0.113737 0.294116
v -0.041434 0.088970 0.298669
v -0.033252 0.064203 0.303221
v -0.011831 0.048896 0.306034
v 0.014647 0.048896 0.306034
v 0.036069 0.064203 0.303221
v 0.044251 0.088970 0.298669
v 0.019630 0.103863 0.306458
v 0.008368 0.111910 0.304979
v -0.005552 0.111910 0.304979
v -0.016814 0.103863 0.306458
v -0.021115 0.090842 0.308851
v -0.016814 0.077821 0.311244
v -0.005552 0.069773 0.312724
v 0.008368 0.069773 0.312724
v 0.019630 0.077821 0.311244
v 0.023932 0.090842 0.308851
v 0.001408 0.065134 0.168985
v 0.001408 0.091486 0.312360
vt 0.595141 0.745164
vt 0.595250 0.745164
vt 0.595359 0.745164
vt 0.595468 0.745164
vt 0.595577 0.745164
vt 0.595686 0.745164
vt 0.595795 0.745164
vt 0.595904 0.745164
vt 0.596013 0.745164
vt 0.596122 0.745164
vt 0.596231 0.745164
vt 0.595141 0.745273
vt 0.595250 0.745273
vt 0.595359 0.745273
vt 0.595468 0.745273
vt 0.595577 0.745273
vt 0.595686 0.745273
vt 0.595795 0.745273
vt 0.595904 0.745273
vt 0.596013 0.745273
vt 0.596122 0.745273
vt 0.596231 0.745273
vt 0.595141 0.745382
vt 0.595250 0.745382
vt 0.595359 0.745382
vt 0.595468 0.745382
vt 0.595577 0.745382
vt 0.595686 0.745382
vt 0.595795 0.745382
vt 0.595904 0.745382
vt 0.596013 0.745382
vt 0.596122 0.745382
vt 0.596231 0.745382
vt 0.595141 0.745491
vt 0.595250 0.745491
vt 0.595359 0.745491
vt 0.595468 0.745491
vt 0.595577 0.745491
vt 0.595686 0.745491
vt 0.595795 0.745491
vt 0.595904 0.745491
vt 0.596013 0.745491
vt 0.596122 0.745491
vt 0.596231 0.745491
vt 0.595141 0.745600
vt 0.595250 0.745600
vt 0.595359 0.745600
vt 0.595468 0.745600
vt 0.595577 0.745600
vt 0.595686 0.745600
vt 0.595795 0.745600
vt 0.595904 0.745600
vt 0.596013 0.745600
vt 0.596122 0.745600
vt 0.596231 0.745600
vt 0.595141 0.745709
vt 0.595250 0.745709
vt 0.595359 0.745709
vt 0.595468 0.745709
vt 0.595577 0.745709
vt 0.595686 0.745709
vt 0.595795 0.745709
vt 0.595904 0.745709
vt 0.596013 0.745709
vt 0.596122 0.745709
vt 0.596231 0.745709
vt 0.595141 0.745818
vt 0.595250 0.745818
vt 0.595359 0.745818
vt 0.595468 0.745818
vt 0.595577 0.745818
vt 0.595686 0.745818
vt 0.595795 0.745818
vt 0.595904 0.745818
vt 0.596013 0.745818
vt 0.596122 0.745818
vt 0.596231 0.745818
vt 0.595141 0.745927
vt 0.595250 0.745927
vt 0.595359 0.745927
vt 0.595468 0.745927
vt 0.595577 0.745927
vt 0.595686 0.745927
vt 0.595795 0.745927
vt 0.595904 0.745927
vt 0.596013 0.745927
vt 0.596122 0.745927
vt 0.596231 0.745927
vt 0.595141 0.746036
vt 0.595250 0.746036
vt 0.595359 0.746036
vt 0.595468 0.746036
vt 0.595577 0.746036
vt 0.595686 0.746036
vt 0.595795 0.746036
vt 0.595904 0.746036
vt 0.596013 0.746036
vt 0.596122 0.746036
vt 0.596231 0.746036
vt 0.595195 0.745055
vt 0.595304 0.745055
vt 0.595413 0.745055
vt 0.595522 0.745055
vt 0.595631 0.745055
vt 0.595740 0.745055
vt 0.595849 0.745055
vt 0.595958 0.745055
vt 0.596067 0.745055
vt 0.596176 0.745055
vt 0.595195 0.746145
vt 0.595304 0.746145
vt 0.595413 0.746145
vt 0.595522 0.746145
vt 0.595631 0.746145
vt 0.595740 0.746145
vt 0.595849 0.746145
vt 0.595958 0.746145
vt 0.596067 0.746145
vt 0.596176 0.746145
vn 0.323957 0.065841 -0.943778
vn 0.123740 0.208910 -0.970075
vn 0.195835 0.452951 -0.869761
vn 0.512705 0.226526 -0.828142
vn -0.123740 0.208910 -0.970075
vn -0.195836 0.452951 -0.869761
vn -0.323956 0.065841 -0.943778
vn -0.512705 0.226527 -0.828142
vn -0.400432 -0.165650 -0.901229
vn -0.633738 -0.139838 -0.760803
vn -0.323956 -0.397141 -0.858680
vn -0.512703 -0.506203 -0.693465
vn -0.123739 -0.540210 -0.832383
vn -0.195834 -0.732628 -0.651848
vn 0.123739 -0.540210 -0.832383
vn 0.195834 -0.732628 -0.651847
vn 0.323956 -0.397141 -0.858680
vn 0.512704 -0.506203 -0.693465
vn 0.400432 -0.165650 -0.901229
vn 0.633738 -0.139838 -0.760803
vn 0.256442 0.675381 -0.691446
vn 0.671376 0.378881 -0.636949
vn -0.256443 0.675380 -0.691447
vn -0.671377 0.378879 -0.636949
vn -0.829866 -0.100867 -0.548769
vn -0.671376 -0.580614 -0.460589
vn -0.256443 -0.877113 -0.406091
vn 0.256443 -0.877113 -0.406091
vn 0.671376 -0.580614 -0.460588
vn 0.829867 -0.100867 -0.548769
vn 0.295556 0.841868 -0.451558
vn 0.773776 0.500145 -0.388748
vn -0.295557 0.841868 -0.451559
vn -0.773776 0.500145 -0.388750
vn -0.956440 -0.052773 -0.287120
vn -0.773777 -0.605692 -0.185490
vn -0.295557 -0.947415 -0.122680
vn 0.295557 -0.947415 -0.122680
vn 0.773777 -0.605692 -0.185490
vn 0.956440 -0.052773 -0.287120
vn 0.309017 0.935387 -0.171927
vn 0.809017 0.578102 -0.106257
vn -0.309017 0.935387 -0.171927
vn -0.809017 0.578101 -0.106257
vn -1.000000 -0.000000 0.000000
vn -0.809017 -0.578101 0.106257
vn -0.309018 -0.935387 0.171927
vn 0.309018 -0.935387 0.171927
vn 0.809017 -0.578101 0.106257
vn 1.000000 0.000000 0.000000
vn 0.295557 0.947415 0.122680
vn 0.773777 0.605692 0.185490
vn -0.295557 0.947415 0.122680
vn -0.773777 0.605692 0.185490
vn -0.956440 0.052773 0.287120
vn -0.773777 -0.500145 0.388748
vn -0.295557 -0.841868 0.451558
vn 0.295557 -0.841868 0.451558
vn 0.773776 -0.500145 0.388749
vn 0.956440 0.052773 0.287120
vn 0.256443 0.877113 0.406091
vn 0.671376 0.580614 0.460588
vn -0.256443 0.877113 0.406091
vn -0.671376 0.580614 0.460588
vn -0.829867 0.100867 0.548769
vn -0.671376 -0.378881 0.636948
vn -0.256443 -0.675381 0.691447
vn 0.256444 -0.675380 0.691447
vn 0.671377 -0.378879 0.636949
vn 0.829867 0.100867 0.548769
vn 0.195835 0.732628 0.651847
vn 0.512704 0.506203 0.693465
vn -0.195835 0.732628 0.651847
vn -0.512704 0.506203 0.693465
vn -0.633738 0.139838 0.760803
vn -0.512705 -0.226526 0.828143
vn -0.195835 -0.452951 0.869761
vn 0.195836 -0.452951 0.869761
vn 0.512705 -0.226527 0.828142
vn 0.633738 0.139839 0.760804
vn 0.123740 0.540211 0.832383
vn 0.323957 0.397141 0.858680
vn -0.123740 0.540211 0.832383
vn -0.323957 0.397141 0.858680
vn -0.400433 0.165649 0.901229
vn -0.323956 -0.065841 0.943778
vn -0.123740 -0.208910 0.970075
vn 0.123739 -0.208910 0.970075
vn 0.323956 -0.065841 0.943778
vn 0.400433 0.165650 0.901229
vn 0.000000 -0.180776 -0.983524
vn -0.000000 0.180776 0.983524
s 1
f 1/1/1 2/2/2 12/13/3 11/12/4
f 2/2/2 3/3/5 13/14/6 12/13/3
f 3/3/5 4/4/7 14/15/8 13/14/6
f 4/4/7 5/5/9 15/16/10 14/15/8
f 5/5/9 6/6/11 16/17/12 15/16/10
f 6/6/11 7/7/13 17/18/14 16/17/12
f 7/7/13 8/8/15 18/19/16 17/18/14
f 8/8/15 9/9/17 19/20/18 18/19/16
f 9/9/17 10/10/19 20/21/20 19/20/18
f 10/10/19 1/11/1 11/22/4 20/21/20
f 11/12/4 12/13/3 22/24/21 21/23/22
f 12/13/3 13/14/6 23/25/23 22/24/21
f 13/14/6 14/15/8 24/26/24 23/25/23
f 14/15/8 15/16/10 25/27/25 24/26/24
f 15/16/10 16/17/12 26/28/26 25/27/25
f 16/17/12 17/18/14 27/29/27 26/28/26
f 17/18/14 18/19/16 28/30/28 27/29/27
f 18/19/16 19/20/18 29/31/29 28/30/28
f 19/20/18 20/21/20 30/32/30 29/31/29
f 20/21/20 11/22/4 21/33/22 30/32/30
f 21/23/22 22/24/21 32/35/31 31/34/32
f 22/24/21 23/25/23 33/36/33 32/35/31
f 23/25/23 24/26/24 34/37/34 33/36/33
f 24/26/24 25/27/25 35/38/35 34/37/34
f 25/27/25 26/28/26 36/39/36 35/38/35
f 26/28/26 27/29/27 37/40/37 36/39/36
f 27/29/27 28/30/28 38/41/38 37/40/37
f 28/30/28 29/31/29 39/42/39 38/41/38
f 29/31/29 30/32/30 40/43/40 39/42/39
f 30/32/30 21/33/22 31/44/32 40/43/40
f 31/34/32 32/35/31 42/46/41 41/45/42
f 32/35/31 33/36/33 43/47/43 42/46/41
f 33/36/33 34/37/34 44/48/44 43/47/43
f 34/37/34 35/38/35 45/49/45 44/48/44
f 35/38/35 36/39/36 46/50/46 45/49/45
f 36/39/36 37/40/37 47/51/47 46/50/46
f 37/40/37 38/41/38 48/52/48 47/51/47
f 38/41/38 39/42/39 49/53/49 48/52/48
f 39/42/39 40/43/40 50/54/50 49/53/49
f 40/43/40 31/44/32 41/55/42 50/54/50
f 41/45/42 42/46/41 52/57/51 51/56/52
f 42/46/41 43/47/43 53/58/53 52/57/51
f 43/47/43 44/48/44 54/59/54 53/58/53
f 44/48/44 45/49/45 55/60/55 54/59/54
f 45/49/45 46/50/46 56/61/56 55/60/55
f 46/50/46 47/51/47 57/62/57 56/61/56
f 47/51/47 48/52/48 58/63/58 57/62/57
f 48/52/48 49/53/49 59/64/59 58/63/58
f 49/53/49 50/54/50 60/65/60 59/64/59
f 50/54/50 41/55/42 51/66/52 60/65/60
f 51/56/52 52/57/51 62/68/61 61/67/62
f 52/57/51 53/58/53 63/69/63 62/68/61
f 53/58/53 54/59/54 64/70/64 63/69/63
f 54/59/54 55/60/55 65/71/65 64/70/64
f 55/60/55 56/61/56 66/72/66 65/71/65
f 56/61/56 57/62/57 67/73/67 66/72/66
f 57/62/57 58/63/58 68/74/68 67/73/67
f 58/63/58 59/64/59 69/75/69 68/74/68
f 59/64/59 60/65/60 70/76/70 69/75/69
f 60/65/60 51/66/52 61/77/62 70/76/70
f 61/67/62 62/68/61 72/79/71 71/78/72
f 62/68/61 63/69/63 73/80/73 72/79/71
f 63/69/63 64/70/64 74/81/74 73/80/73
f 64/70/64 65/71/65 75/82/75 74/81/74
f 65/71/65 66/72/66 76/83/76 75/82/75
f 66/72/66 67/73/67 77/84/77 76/83/76
f 67/73/67 68/74/68 78/85/78 77/84/77
f 68/74/68 69/75/69 79/86/79 78/85/78
f 69/75/69 70/76/70 80/87/80 79/86/79
f 70/76/70 61/77/62 71/88/72 80/87/80
f 71/78/72 72/79/71 82/90/81 81/89/82
f 72/79/71 73/80/73 83/91/83 82/90/81
f 73/80/73 74/81/74 84/92/84 83/91/83
f 74/81/74 75/82/75 85/93/85 84/92/84
f 75/82/75 76/83/76 86/94/86 85/93/85
f 76/83/76 77/84/77 87/95/87 86/94/86
f 77/84/77 78/85/78 88/96/88 87/95/87
f 78/85/78 79/86/79 89/97/89 88/96/88
f 79/86/79 80/87/80 90/98/90 89/97/89
f 80/87/80 71/88/72 81/99/82 90/98/90
f 2/2/2 1/1/1 91/100/91
f 3/3/5 2/2/2 91/101/91
f 4/4/7 3/3/5 91/102/91
f 5/5/9 4/4/7 91/103/91
f 6/6/11 5/5/9 91/104/91
f 7/7/13 6/6/11 91/105/91
f 8/8/15 7/7/13 91/106/91
f 9/9/17 8/8/15 91/107/91
f 10/10/19 9/9/17 91/108/91
f 1/11/1 10/10/19 91/109/91
f 81/89/82 82/90/81 92/110/92
f 82/90/81 83/91/83 92/111/92
f 83/91/83 84/92/84 92/112/92
f 84/92/84 85/93/85 92/113/92
f 85/93/85 86/94/86 92/114/92
f 86/94/86 87/95/87 92/115/92
f 87/95/87 88/96/88 92/116/92
f 88/96/88 89/97/89 92/117/92
f 89/97/89 90/98/90 92/118/92
f 90/98/90 81/99/82 92/119/92
