# This file uses centimeters as units for non-parametric coordinates.

v -0.089227 0.028095 0.176847
v -0.044676 0.030212 0.205949
v -0.000125 0.028830 0.213033
v 0.044426 0.030212 0.205949
v 0.088978 0.028095 0.176847
v -0.082683 0.061696 0.200649
v -0.044676 0.072879 0.229751
v -0.000125 0.074503 0.236835
v 0.044426 0.072879 0.229751
v 0.082434 0.061696 0.200649
v -0.093329 0.068930 0.149866
v -0.046727 0.072879 0.178968
v -0.000125 0.074503 0.186051
v 0.046477 0.072879 0.178968
v 0.093080 0.068930 0.149866
v -0.093329 0.051917 0.126063
v -0.046727 0.054035 0.155166
v -0.000125 0.052652 0.162249
v 0.046477 0.054035 0.155166
v 0.093080 0.064458 0.126063
vt 0.873937 0.017337
vt 0.903608 0.018747
vt 0.903608 0.047162
vt 0.878296 0.039715
vt 0.933278 0.017826
vt 0.933278 0.048244
vt 0.962948 0.018747
vt 0.962948 0.047162
vt 0.992618 0.017337
vt 0.988260 0.039715
vt 0.902242 0.047162
vt 0.871206 0.044532
vt 0.933278 0.048244
vt 0.964314 0.047162
vt 0.995350 0.044532
vt 0.902242 0.034612
vt 0.871206 0.033202
vt 0.933278 0.033692
vt 0.964314 0.034612
vt 0.995350 0.041554
vn -0.862993 -0.213089 0.458078
vn -0.316907 -0.460265 0.829292
vn -0.261477 -0.465001 0.845816
vn -0.676901 -0.347515 0.648874
vn 0.000000 -0.474383 0.880318
vn 0.000000 -0.474383 0.880318
vn 0.316907 -0.460266 0.829292
vn 0.261477 -0.465001 0.845816
vn 0.834084 -0.240222 0.496585
vn 0.661522 -0.356083 0.659996
vn -0.240692 0.965554 0.098858
vn -0.099657 0.994532 0.031238
vn -0.155717 0.986094 0.058066
vn -0.240692 0.965554 0.098858
vn 0.000000 1.000000 0.000722
vn 0.000000 1.000000 0.000722
vn 0.099657 0.994531 0.031238
vn 0.155717 0.986094 0.058066
vn 0.240692 0.965554 0.098858
vn 0.240692 0.965554 0.098858
vn 0.307989 0.759937 -0.572397
vn 0.179778 0.762459 -0.621559
vn 0.220066 0.763219 -0.607509
vn 0.307989 0.759937 -0.572397
vn 0.000000 0.760114 -0.649790
vn 0.000000 0.760114 -0.649790
vn -0.179550 0.801215 -0.570804
vn -0.217661 0.818099 -0.532295
vn -0.319408 0.851024 -0.416818
vn -0.319408 0.851024 -0.416818
vn 0.307434 -0.854195 -0.419327
vn 0.203348 -0.881872 -0.425385
vn 0.140774 -0.893399 -0.426638
vn 0.307434 -0.854195 -0.419327
vn -0.000000 -0.905037 -0.425333
vn -0.000000 -0.905037 -0.425333
vn -0.170061 -0.861651 -0.478160
vn -0.119268 -0.880554 -0.458693
vn -0.247112 -0.826980 -0.505014
vn -0.247112 -0.826980 -0.505014
vn 0.989980 -0.006235 0.141073
vn 0.989980 -0.006235 0.141073
vn -0.989848 -0.005597 0.142020
vn -0.989848 -0.005597 0.142020
s 1
f 1/1/1 2/2/2 7/3/3 6/4/4
f 2/2/2 3/5/5 8/6/6 7/3/3
f 3/5/5 4/7/7 9/8/8 8/6/6
f 4/7/7 5/9/9 10/10/10 9/8/8
s 2
f 6/4/11 7/3/12 12/11/13 11/12/14
f 7/3/12 8/6/15 13/13/16 12/11/13
f 8/6/15 9/8/17 14/14/18 13/13/16
f 9/8/17 10/10/19 15/15/20 14/14/18
s 3
f 11/12/21 12/11/22 17/16/23 16/17/24
f 12/11/22 13/13/25 18/18/26 17/16/23
f 13/13/25 14/14/27 19/19/28 18/18/26
f 14/14/27 15/15/29 20/20/30 19/19/28
s 4
f 16/17/31 17/16/32 2/2/33 1/1/34
f 17/16/32 18/18/35 3/5/36 2/2/33
f 18/18/35 19/19/37 4/7/38 3/5/36
f 19/19/37 20/20/39 5/9/40 4/7/38
s 1
f 5/9/9 20/20/41 15/15/42 10/10/10
f 16/17/43 1/1/1 6/4/4 11/12/44
