# This file uses centimeters as units for non-parametric coordinates.

v -0.020395 0.201372 0.277521
v 0.020146 0.201372 0.277521
v -0.020395 0.201372 0.162985
v 0.020146 0.201372 0.162985
v -0.027583 0.073026 0.213908
v 0.027334 0.073026 0.213908
v -0.027583 0.073026 0.271182
v -0.024606 0.097408 0.287991
v 0.027334 0.073026 0.271182
v 0.024357 0.097408 0.287991
vt 0.583656 0.733687
vt 0.599052 0.733687
vt 0.583656 0.749083
vt 0.568260 0.702895
vt 0.575959 0.702895
vt 0.568260 0.718291
vt 0.606749 0.702895
vt 0.614448 0.702895
vt 0.614448 0.718291
vt 0.599052 0.718291
vt 0.583656 0.709271
vt 0.583656 0.718291
vt 0.599052 0.749083
vt 0.599052 0.756782
vt 0.583656 0.756782
vt 0.583656 0.705204
vt 0.599052 0.705594
vt 0.599052 0.709271
vn 0.000000 0.100207 0.994967
vn 0.000000 0.100207 0.994967
vn 0.000000 0.100207 0.994967
vn 0.000000 0.100207 0.994967
vn 0.000000 1.000000 0.000000
vn 0.000000 1.000000 0.000000
vn 0.000000 1.000000 0.000000
vn 0.000000 1.000000 0.000000
vn 0.000000 -0.368799 -0.929509
vn 0.000000 -0.368799 -0.929509
vn 0.000000 -0.368799 -0.929509
vn 0.000000 -0.368799 -0.929509
vn 0.000000 -1.000000 0.000000
vn 0.000000 -1.000000 0.000000
vn 0.000000 -1.000000 0.000000
vn 0.000000 -1.000000 0.000000
vn -0.998422 0.055493 0.008584
vn -0.998422 0.055493 0.008584
vn -0.998422 0.055493 0.008584
vn -0.998422 0.055493 0.008584
vn -0.998422 0.055493 0.008584
vn 0.998422 0.055493 0.008584
vn 0.998422 0.055493 0.008584
vn 0.998422 0.055493 0.008584
vn 0.998422 0.055493 0.008584
vn 0.998422 0.055493 0.008584
vn 0.000000 -0.567588 0.823313
vn 0.000000 -0.567588 0.823313
vn 0.000000 -0.567588 0.823313
vn 0.000000 -0.567588 0.823313
s off
f 8/11/1 10/18/2 2/10/3 1/12/4
f 1/12/5 2/10/6 4/2/7 3/1/8
f 3/1/9 4/2/10 6/13/11 5/3/12
f 5/3/13 6/13/14 9/14/15 7/15/16
f 5/4/17 7/5/18 8/11/19 1/12/20 3/6/21
f 10/18/22 9/7/23 6/8/24 4/9/25 2/10/26
f 8/11/27 7/16/28 9/17/29 10/18/30
