# This file uses centimeters as units for non-parametric coordinates.

v 0.088782 0.028095 0.159305
v 0.044329 0.030212 0.205949
v -0.000125 0.028830 0.213033
v 0.082253 0.061696 0.200649
v 0.044329 0.072879 0.229751
v -0.000125 0.074503 0.236835
v 0.092875 0.068930 0.149866
v 0.046375 0.072879 0.178968
v -0.000125 0.074503 0.186051
v 0.092875 0.051918 0.126063
v 0.046375 0.054034 0.155166
v -0.000125 0.052652 0.162249
v 0.073474 0.028824 0.186868
v 0.069193 0.065547 0.210670
v 0.076863 0.070290 0.159887
v 0.076863 0.052646 0.136085
v 0.074265 -0.006124 0.068783
v 0.058252 -0.030750 0.078804
v 0.054864 -0.054572 0.098163
v 0.070172 -0.029947 0.088141
v -0.089227 0.028095 0.159305
v -0.044676 0.030212 0.205949
v -0.082683 0.061696 0.200649
v -0.044676 0.072879 0.229751
v -0.093329 0.068930 0.149866
v -0.046727 0.072879 0.178968
v -0.093329 0.051918 0.126063
v -0.046727 0.054034 0.155166
v -0.073885 0.028824 0.186868
v -0.069595 0.065547 0.210670
v -0.077281 0.070290 0.159887
v -0.077281 0.052646 0.136085
v -0.074678 -0.006124 0.068783
v -0.058630 -0.030750 0.078804
v -0.055234 -0.054572 0.098163
v -0.070576 -0.029947 0.088141
vt 0.375000 0.000000
vt 0.437500 0.000000
vt 0.500000 0.000000
vt 0.375000 0.250000
vt 0.437500 0.250000
vt 0.500000 0.250000
vt 0.375000 0.500000
vt 0.437500 0.500000
vt 0.500000 0.500000
vt 0.375000 0.750000
vt 0.437500 0.750000
vt 0.500000 0.750000
vt 0.375000 1.000000
vt 0.437500 1.000000
vt 0.500000 1.000000
vt 0.125000 0.000000
vt 0.125000 0.250000
vt 0.396523 0.000000
vt 0.396523 1.000000
vt 0.396523 0.250000
vt 0.396523 0.500000
vt 0.396523 0.750000
vt 0.375000 0.750000
vt 0.396523 0.750000
vt 0.396523 1.000000
vt 0.375000 1.000000
vt 0.375000 0.000000
vt 0.396523 0.000000
vt 0.396523 0.250000
vt 0.375000 0.250000
vt 0.437500 0.000000
vt 0.500000 0.000000
vt 0.500000 0.250000
vt 0.437500 0.250000
vt 0.396523 0.500000
vt 0.375000 0.500000
vt 0.500000 0.500000
vt 0.437500 0.500000
vt 0.396523 0.750000
vt 0.375000 0.750000
vt 0.500000 0.750000
vt 0.437500 0.750000
vt 0.375000 0.750000
vt 0.396523 0.750000
vt 0.396523 1.000000
vt 0.375000 1.000000
vt 0.500000 1.000000
vt 0.437500 1.000000
vt 0.125000 0.000000
vt 0.125000 0.250000
vt 0.396523 1.000000
vt 0.375000 1.000000
vn 0.915265 -0.361758 0.177258
vn 0.853184 -0.298044 0.428073
vn 0.521952 -0.436243 0.732979
vn 0.699886 -0.495644 0.514293
vn 0.286269 -0.461701 0.839573
vn 0.234172 -0.465836 0.853323
vn -0.000011 -0.474384 0.880318
vn 0.000004 -0.474384 0.880318
vn 0.281358 0.945795 0.162202
vn 0.281358 0.945795 0.162202
vn 0.255349 0.959249 0.120988
vn 0.229839 0.969832 0.081244
vn 0.078334 0.996801 0.015849
vn 0.124835 0.991648 0.032416
vn 0.000003 1.000000 0.000722
vn -0.000004 1.000000 0.000722
vn -0.300982 0.770972 -0.561259
vn -0.653077 0.589185 -0.475765
vn -0.545358 0.659136 -0.517807
vn -0.310055 0.757607 -0.574367
vn -0.161347 0.759865 -0.629739
vn -0.200499 0.760201 -0.617976
vn -0.000006 0.760117 -0.649786
vn 0.000010 0.760117 -0.649786
vn 0.524122 -0.585138 -0.618797
vn 0.524122 -0.585138 -0.618797
vn 0.524122 -0.585138 -0.618797
vn 0.524122 -0.585138 -0.618797
vn -0.175350 -0.887922 -0.425260
vn -0.115578 -0.897240 -0.426149
vn 0.000005 -0.905036 -0.425336
vn -0.000004 -0.905036 -0.425336
vn 0.981155 -0.193072 -0.007582
vn 0.986736 -0.064464 0.148984
vn -0.307046 -0.855183 -0.417595
vn -0.307046 -0.855183 -0.417595
vn -0.697684 0.552746 -0.455752
vn -0.697684 0.552746 -0.455752
vn -0.981322 0.189377 0.033828
vn -0.981322 0.189377 0.033828
vn -0.981322 0.189377 0.033828
vn -0.981322 0.189377 0.033828
vn 0.786558 -0.541824 0.296232
vn 0.786558 -0.541824 0.296232
vn 0.968950 -0.238497 -0.065235
vn 0.968950 -0.238497 -0.065235
vn -0.914960 -0.362382 0.177558
vn -0.699129 -0.496198 0.514787
vn -0.521152 -0.436504 0.733393
vn -0.852696 -0.298497 0.428730
vn -0.285665 -0.461786 0.839731
vn -0.233744 -0.465888 0.853412
vn -0.280790 0.945959 0.162231
vn -0.229370 0.969941 0.081265
vn -0.254811 0.959393 0.120982
vn -0.280790 0.945959 0.162231
vn -0.078200 0.996812 0.015862
vn -0.124538 0.991686 0.032407
vn 0.300381 0.771125 -0.561370
vn 0.309438 0.757770 -0.574485
vn 0.544568 0.659535 -0.518131
vn 0.652198 0.589780 -0.476233
vn 0.161044 0.759910 -0.629763
vn 0.200049 0.760268 -0.618040
vn -0.523288 -0.585491 -0.619169
vn -0.523288 -0.585491 -0.619169
vn -0.523288 -0.585491 -0.619169
vn -0.523288 -0.585491 -0.619169
vn 0.174942 -0.887989 -0.425290
vn 0.115376 -0.897260 -0.426161
vn -0.981075 -0.193477 -0.007595
vn -0.986679 -0.064602 0.149303
vn 0.306436 -0.855359 -0.417681
vn 0.306436 -0.855359 -0.417681
vn 0.696897 0.553336 -0.456239
vn 0.696897 0.553336 -0.456239
vn 0.981242 0.189778 0.033900
vn 0.981242 0.189778 0.033900
vn 0.981242 0.189778 0.033900
vn 0.981242 0.189778 0.033900
vn -0.785899 -0.542560 0.296635
vn -0.785899 -0.542560 0.296635
vn -0.968819 -0.238989 -0.065369
vn -0.968819 -0.238989 -0.065369
s 1
f 1/1/1 4/4/2 14/20/3 13/18/4
f 2/2/5 5/5/6 6/6/7 3/3/8
s 2
f 4/4/9 7/7/10 15/21/11 14/20/12
f 5/5/13 8/8/14 9/9/15 6/6/16
s 3
f 7/7/17 10/10/18 16/22/19 15/21/20
f 8/8/21 11/11/22 12/12/23 9/9/24
s off
f 17/23/25 20/26/26 19/25/27 18/24/28
s 4
f 11/11/29 2/14/30 3/15/31 12/12/32
s 1
f 10/16/33 7/17/34 4/4/2 1/1/1
f 13/18/4 14/20/3 5/5/6 2/2/5
s 2
f 15/21/11 8/8/14 5/5/13 14/20/12
s 3
f 16/22/19 11/11/22 8/8/21 15/21/20
s 4
f 13/19/35 2/14/30 11/11/29 16/22/36
s 3
f 10/10/18 17/23/37 18/24/38 16/22/19
s off
f 16/22/39 18/24/40 19/25/41 13/19/42
s 1
f 13/19/4 19/25/43 20/26/44 1/13/1
f 1/13/1 20/26/45 17/23/46 10/10/33
f 21/27/47 29/28/48 30/29/49 23/30/50
f 22/31/51 3/32/8 6/33/7 24/34/52
s 2
f 23/30/53 30/29/54 31/35/55 25/36/56
f 24/34/57 6/33/16 9/37/15 26/38/58
s 3
f 25/36/59 31/35/60 32/39/61 27/40/62
f 26/38/63 9/37/24 12/41/23 28/42/64
s off
f 33/43/65 34/44/66 35/45/67 36/46/68
s 4
f 28/42/69 12/41/32 3/47/31 22/48/70
s 1
f 27/49/71 21/27/47 23/30/50 25/50/72
f 29/28/48 22/31/51 24/34/52 30/29/49
s 2
f 31/35/55 30/29/54 24/34/57 26/38/58
s 3
f 32/39/61 31/35/60 26/38/63 28/42/64
s 4
f 29/51/73 32/39/74 28/42/69 22/48/70
s 3
f 27/40/62 32/39/61 34/44/75 33/43/76
s off
f 32/39/77 29/51/78 35/45/79 34/44/80
s 1
f 29/51/48 21/52/47 36/46/81 35/45/82
f 21/52/47 27/40/71 33/43/83 36/46/84
