# This file uses centimeters as units for non-parametric coordinates.

v 2.000000 5.800000 11.500000
v 2.000000 5.500000 11.500000
v 4.000001 5.500000 11.500000
v 4.000001 5.800000 11.500000
v 4.000001 5.500000 11.500000
v 4.000001 5.500000 15.000000
v 4.000001 -2.200000 15.000000
v 4.000001 -2.200000 11.500000
v 4.000001 -2.200000 14.999996
v -0.003431 -2.200000 12.000000
v 4.000001 -2.200000 11.500000
v 0.000000 -2.200000 14.999998
v 0.000000 0.168121 14.999998
v -0.500000 0.168121 14.999998
v 0.000000 0.168121 12.000000
v -0.500000 0.168121 11.500000
v -0.500000 0.000000 11.500000
v -0.500000 0.000000 14.999998
v 4.000001 5.800000 15.000000
v 2.000000 5.800000 15.000000
v 4.000001 5.800000 11.500000
v 2.000000 5.800000 11.500000
v 4.000001 5.500000 14.999998
v 2.000000 5.500000 14.999998
v 2.000000 5.500000 11.500000
v 4.000001 5.500000 11.500000
v 14.000002 5.800000 11.500000
v 3.999998 5.800000 11.500000
v 3.999998 -2.200000 11.500000
v 14.000002 -2.200000 11.500000
v 4.000001 -2.200000 11.996569
v 0.000000 -2.200000 12.000000
v 0.000000 0.168121 12.000000
v -0.500000 0.168121 11.500000
v 4.000001 0.168121 12.000000
v 4.000001 0.168121 11.500000
v 4.000001 0.000000 11.500000
v -0.500000 0.000000 11.500000
v 24.000002 5.800000 11.500000
v 13.999998 5.800000 11.500000
v 13.999998 -2.200000 11.500000
v 24.000002 -2.200000 11.500000
v 4.000001 5.500000 -1.500000
v 4.000001 5.500000 -5.000000
v 4.000001 -2.200000 -5.000000
v 4.000001 -2.200000 -1.500000
v 4.000001 -2.200000 -4.999996
v -0.003431 -2.200000 -2.000000
v 4.000001 -2.200000 -1.500000
v 0.000000 -2.200000 -4.999998
v 0.000000 0.168121 -4.999998
v -0.500000 0.168121 -4.999998
v 0.000000 0.168121 -2.000000
v -0.500000 0.168121 -1.500000
v -0.500000 0.000000 -1.500000
v -0.500000 0.000000 -4.999998
v 4.000001 5.800000 -5.000000
v 2.000000 5.800000 -5.000000
v 4.000001 5.800000 -1.500000
v 2.000000 5.800000 -1.500000
v 4.000001 5.500000 -4.999998
v 2.000000 5.500000 -4.999998
v 2.000000 5.500000 -1.500000
v 4.000001 5.500000 -1.500000
v 14.000002 5.500000 -1.500000
v 3.999998 5.500000 -1.500000
v 3.999998 -2.200000 -1.500000
v 14.000002 -2.200000 -1.500000
v 4.000001 -2.200000 -1.996569
v 0.000000 -2.200000 -2.000000
v 0.000000 0.168121 -2.000000
v -0.500000 0.168121 -1.500000
v 4.000001 0.168121 -2.000000
v 4.000001 0.168121 -1.500000
v 4.000001 0.000000 -1.500000
v -0.500000 0.000000 -1.500000
vt 0.410596 0.724577
vt 0.410611 0.736985
vt 0.332433 0.724632
vt 0.332447 0.737038
vt 0.702515 0.489387
vt 0.554740 0.487749
vt 0.550788 0.812795
vt 0.698563 0.814444
vt 0.284001 0.749392
vt 0.304620 0.808838
vt 0.428616 0.808806
vt 0.428696 0.749560
vt 0.428601 0.834815
vt 0.304611 0.834814
vt 0.283945 0.855497
vt 0.428601 0.855492
vt 0.428600 0.862452
vt 0.283945 0.862433
vt 0.021209 0.642145
vt 0.008799 0.642160
vt 0.008905 0.724866
vt 0.021307 0.724849
vt 0.021320 0.737251
vt 0.157572 0.737152
vt 0.156216 0.726100
vt 0.527672 0.632246
vt 0.527729 0.568563
vt 0.467078 0.568510
vt 0.467023 0.632192
vt 0.157466 0.642050
vt 0.976955 0.492434
vt 0.554740 0.487749
vt 0.550788 0.812795
vt 0.973003 0.817503
vt 0.407937 0.834833
vt 0.242616 0.834830
vt 0.242615 0.855496
vt 0.428601 0.855492
vt 0.428600 0.862452
vt 0.242614 0.862432
vt 0.242626 0.808824
vt 0.407957 0.808837
vt 0.976955 0.492434
vt 0.554740 0.487749
vt 0.550788 0.812795
vt 0.973003 0.817503
vt 0.702515 0.489387
vt 0.698563 0.814444
vt 0.550788 0.812795
vt 0.554740 0.487749
vt 0.284001 0.749392
vt 0.428696 0.749560
vt 0.428616 0.808806
vt 0.304620 0.808838
vt 0.428601 0.834815
vt 0.428601 0.855492
vt 0.283945 0.855497
vt 0.304611 0.834814
vt 0.428600 0.862452
vt 0.283945 0.862433
vt 0.021209 0.642145
vt 0.021307 0.724849
vt 0.008905 0.724866
vt 0.008799 0.642160
vt 0.156216 0.726100
vt 0.157572 0.737152
vt 0.021320 0.737251
vt 0.527672 0.632246
vt 0.467023 0.632192
vt 0.467078 0.568510
vt 0.527729 0.568563
vt 0.422906 0.641859
vt 0.422995 0.724562
vt 0.157466 0.642050
vt 0.976955 0.492434
vt 0.973003 0.817503
vt 0.550788 0.812795
vt 0.554740 0.487749
vt 0.407937 0.834833
vt 0.428601 0.855492
vt 0.242615 0.855496
vt 0.242616 0.834830
vt 0.428600 0.862452
vt 0.242614 0.862432
vt 0.242626 0.808824
vt 0.407957 0.808837
vn 0.000000 0.000000 -1.000000
vn -0.000000 0.000000 -1.000000
vn -0.000000 0.000000 -1.000000
vn 0.000000 0.000000 -1.000000
vn -1.000000 0.000000 0.000000
vn -1.000000 0.000000 0.000000
vn -1.000000 0.000000 0.000000
vn -1.000000 0.000000 0.000000
vn 0.000000 1.000000 0.000000
vn 0.000000 1.000000 0.000000
vn 0.000000 1.000000 0.000000
vn 0.000000 1.000000 0.000000
vn 0.000000 1.000000 0.000000
vn 0.000000 1.000000 0.000000
vn 0.000000 1.000000 0.000000
vn 0.000000 1.000000 0.000000
vn -1.000000 0.000000 0.000000
vn -1.000000 0.000000 0.000000
vn -1.000000 0.000000 0.000000
vn -1.000000 0.000000 0.000000
vn 1.000000 -0.000724 -0.000572
vn 1.000000 -0.000724 -0.000572
vn 1.000000 -0.000724 -0.000572
vn 1.000000 -0.000724 -0.000572
vn 0.000000 -0.000006 1.000000
vn 0.000000 -0.000006 1.000000
vn 0.000000 -0.000006 1.000000
vn 0.000000 -0.000006 1.000000
vn -1.000000 0.000000 0.000000
vn -1.000000 0.000000 0.000000
vn -1.000000 0.000000 0.000000
vn -1.000000 0.000000 0.000000
vn 0.000000 1.000000 0.000000
vn 0.000000 1.000000 0.000000
vn 0.000000 1.000000 0.000000
vn 0.000000 1.000000 0.000000
vn 0.000000 -1.000000 0.000000
vn 0.000000 -1.000000 0.000000
vn 0.000000 -1.000000 0.000000
vn 0.000000 -1.000000 0.000000
vn 0.000000 0.000000 -1.000000
vn 0.000000 0.000000 -1.000000
vn 0.000000 0.000000 -1.000000
vn 0.000000 0.000000 -1.000000
vn 0.000000 1.000000 -0.000000
vn 0.000000 1.000000 -0.000000
vn 0.000000 1.000000 -0.000000
vn 0.000000 1.000000 -0.000000
vn 0.000000 0.000000 -1.000000
vn 0.000000 0.000000 -1.000000
vn 0.000000 0.000000 -1.000000
vn 0.000000 0.000000 -1.000000
vn 0.000429 -0.000724 1.000000
vn 0.000429 -0.000724 1.000000
vn 0.000429 -0.000724 1.000000
vn 0.000429 -0.000724 1.000000
vn 0.000000 0.000000 -1.000000
vn 0.000000 0.000000 -1.000000
vn 0.000000 0.000000 -1.000000
vn 0.000000 0.000000 -1.000000
vn -1.000000 0.000000 0.000000
vn -1.000000 0.000000 0.000000
vn -1.000000 0.000000 0.000000
vn -1.000000 0.000000 0.000000
vn 0.000000 1.000000 0.000000
vn 0.000000 1.000000 0.000000
vn 0.000000 1.000000 0.000000
vn 0.000000 1.000000 0.000000
vn 0.000000 1.000000 0.000000
vn 0.000000 1.000000 0.000000
vn 0.000000 1.000000 0.000000
vn 0.000000 1.000000 0.000000
vn -1.000000 0.000000 0.000000
vn -1.000000 0.000000 0.000000
vn -1.000000 0.000000 0.000000
vn -1.000000 0.000000 0.000000
vn 1.000000 -0.000724 0.000572
vn 1.000000 -0.000724 0.000572
vn 1.000000 -0.000724 0.000572
vn 1.000000 -0.000724 0.000572
vn 0.000000 -0.000006 -1.000000
vn 0.000000 -0.000006 -1.000000
vn 0.000000 -0.000006 -1.000000
vn 0.000000 -0.000006 -1.000000
vn -1.000000 0.000000 0.000000
vn -1.000000 0.000000 0.000000
vn -1.000000 0.000000 0.000000
vn -1.000000 0.000000 0.000000
vn 0.000000 1.000000 0.000000
vn 0.000000 1.000000 0.000000
vn 0.000000 1.000000 0.000000
vn 0.000000 1.000000 0.000000
vn 0.000000 0.000000 1.000000
vn 0.000000 0.000000 1.000000
vn 0.000000 0.000000 1.000000
vn 0.000000 0.000000 1.000000
vn 0.000000 -1.000000 0.000000
vn 0.000000 -1.000000 0.000000
vn 0.000000 -1.000000 0.000000
vn 0.000000 -1.000000 0.000000
vn 0.000000 0.000000 1.000000
vn 0.000000 0.000000 1.000000
vn 0.000000 0.000000 1.000000
vn 0.000000 0.000000 1.000000
vn 0.000000 1.000000 0.000000
vn 0.000000 1.000000 0.000000
vn 0.000000 1.000000 0.000000
vn 0.000000 1.000000 0.000000
vn 0.000000 0.000000 1.000000
vn 0.000000 0.000000 1.000000
vn 0.000000 0.000000 1.000000
vn 0.000000 0.000000 1.000000
vn 0.000429 -0.000724 -1.000000
vn 0.000429 -0.000724 -1.000000
vn 0.000429 -0.000724 -1.000000
vn 0.000429 -0.000724 -1.000000
s off
f 3/3/1 2/1/2 1/2/3 4/4/4
f 8/5/5 7/6/6 6/7/7 5/8/8
f 11/9/9 10/10/10 12/11/11 9/12/12
f 13/13/13 15/14/14 16/15/15 14/16/16
f 18/17/17 14/16/18 16/15/19 17/18/20
f 10/10/21 15/14/22 13/13/23 12/11/24
f 23/19/25 19/20/26 20/21/27 24/22/28
f 24/22/29 20/23/30 22/24/31 25/25/32
f 22/26/33 20/27/34 19/28/35 21/29/36
f 26/30/37 23/19/38 24/22/39 25/25/40
f 30/31/41 29/32/42 28/33/43 27/34/44
f 33/35/45 35/36/46 36/37/47 34/38/48
f 38/39/49 34/38/50 36/37/51 37/40/52
f 31/41/53 35/36/54 33/35/55 32/42/56
f 42/43/57 41/44/58 40/45/59 39/46/60
f 46/47/61 43/48/62 44/49/63 45/50/64
f 49/51/65 47/52/66 50/53/67 48/54/68
f 51/55/69 52/56/70 54/57/71 53/58/72
f 56/59/73 55/60/74 54/57/75 52/56/76
f 48/54/77 50/53/78 51/55/79 53/58/80
f 61/61/81 62/62/82 58/63/83 57/64/84
f 62/62/85 63/65/86 60/66/87 58/67/88
f 60/68/89 59/69/90 57/70/91 58/71/92
f 59/72/93 60/73/94 63/65/95 64/74/96
f 64/74/97 63/65/98 62/62/99 61/61/100
f 68/75/101 65/76/102 66/77/103 67/78/104
f 71/79/105 72/80/106 74/81/107 73/82/108
f 76/83/109 75/84/110 74/81/111 72/80/112
f 69/85/113 70/86/114 71/79/115 73/82/116
