# This file uses centimeters as units for non-parametric coordinates.

v 0.000000 1.041831 2.917368
v 0.000000 0.741817 2.917368
v 0.000000 -1.058377 2.423247
v 0.000000 -1.058377 2.087822
v 0.000000 0.729314 2.578762
v 0.000000 0.729314 1.910961
v 0.000000 1.041831 1.910961
v 0.000000 0.313195 1.047301
v 0.000000 0.520070 1.047284
v 0.000000 0.729650 1.211642
v 0.000000 0.313195 0.730037
v 0.000000 0.509557 1.730872
v 0.000000 0.490510 0.729965
v 0.000000 1.041691 1.233726
v 0.000000 -0.737915 1.065992
v 0.000000 -0.701826 1.062747
v 0.000000 -0.737915 1.701060
v 0.000000 -1.050431 1.701060
v 0.000000 -1.050431 0.730037
v 0.000000 -0.785267 0.730037
v 0.000000 0.498006 1.402464
v 0.000000 0.730906 1.250000
v 0.000000 -0.004336 1.569694
v 0.000000 -0.004334 1.203434
v 0.000000 -0.527382 1.123338
v 0.000000 -0.527382 0.784904
v 0.000000 -0.205887 1.397261
v 0.000000 -0.265858 1.331525
v 0.000000 -0.265858 0.931586
v 0.000000 -0.487518 1.146452
v 0.000000 -0.066294 1.146473
v 0.000000 0.454350 1.047295
v 0.000000 0.454350 0.730000
v 0.000000 0.454350 1.724882
v 0.000000 0.257194 1.684939
v 0.000000 0.257189 1.350172
v 0.000000 1.019409 1.397261
v 0.000000 0.455096 1.397261
v 0.000000 0.563675 1.397248
v 0.000000 0.780236 1.683020
v 0.000000 0.910996 1.595712
v 0.000000 0.939015 1.564066
v 0.000000 0.780238 0.778971
v 0.000000 0.718850 1.146471
v 0.000000 0.617297 1.385872
v 0.000000 0.700783 1.336870
v 0.000000 0.617301 1.060063
v 0.000000 0.617296 0.736558
v 0.000000 1.034554 1.146473
v 0.000000 0.910999 0.867606
v 0.000000 0.965569 0.938254
v 0.000000 -0.377624 -2.291956
v 0.000000 -0.377624 -2.491229
v 0.000000 -1.058410 -2.555610
v 0.000000 -1.058410 -2.831528
v 0.000000 -0.377624 -2.767146
v 0.000000 -0.377624 -2.917368
v 0.000000 -0.218062 -2.892843
v 0.000000 -0.218062 -2.742621
v 0.000000 0.388260 -2.684371
v 0.000000 0.388260 -2.837659
v 0.000000 0.547822 -2.813133
v 0.000000 0.547822 -2.659846
v 0.000000 1.058410 -2.607727
v 0.000000 1.058410 -2.331811
v 0.000000 0.547822 -2.383929
v 0.000000 0.547822 -2.184654
v 0.000000 1.058410 -2.132537
v 0.000000 1.058410 -1.856620
v 0.000000 0.547822 -1.908738
v 0.000000 0.547822 -1.752586
v 0.000000 0.388260 -1.776910
v 0.000000 0.388260 -1.933263
v 0.000000 -0.218062 -1.991513
v 0.000000 -0.218062 -1.835160
v 0.000000 -0.377624 -1.859685
v 0.000000 -0.377624 -2.016038
v 0.000000 -1.058410 -2.080419
v 0.000000 -1.058410 -2.356336
v 0.000000 -0.218062 -2.466704
v 0.000000 -0.218062 -2.267430
v 0.000000 0.388260 -2.209181
v 0.000000 0.388260 -2.408455
v 0.000000 -1.050428 -0.546781
v 0.000000 -1.050426 0.003833
v 0.000000 -0.545055 0.547803
v 0.000000 -0.736989 -0.217402
v 0.000000 -0.519547 0.218220
v 0.000000 -0.737468 0.029627
v 0.000000 -0.450874 0.547598
v 0.000000 -0.450874 0.218190
v 0.000000 -1.032723 0.182941
v 0.000000 -0.673298 0.181220
v 0.000000 -0.750652 0.518105
v 0.000000 -0.600763 0.545877
v 0.000000 -0.600771 0.210716
v 0.000000 -0.900540 0.432498
v 0.000000 -0.825597 0.485889
v 0.000000 -0.871366 0.456587
v 0.000000 -0.962016 0.365371
v -0.000001 -0.730474 0.091736
v 0.000001 -0.712783 0.136637
v 0.000000 1.048007 -0.546781
v 0.000000 1.048005 0.003833
v 0.000000 0.542639 0.547803
v 0.000000 0.734571 -0.217402
v 0.000000 0.517129 0.218220
v 0.000000 0.735051 0.029627
v 0.000000 0.448458 0.547598
v 0.000000 0.448458 0.218160
v 0.000000 1.030302 0.182941
v 0.000000 0.670881 0.181220
v 0.000000 0.748235 0.518105
v 0.000000 0.598346 0.545877
v 0.000000 0.598355 0.210716
v 0.000000 0.898123 0.432498
v 0.000000 0.823180 0.485889
v 0.000000 0.868950 0.456587
v 0.000000 0.959595 0.365371
v -0.000001 0.728057 0.091736
v 0.000001 0.710367 0.136637
v 0.000000 -0.736992 -1.234399
v 0.000000 -0.736992 -0.653072
v 0.000000 -1.050431 -0.653072
v 0.000000 -1.050431 -1.563778
v 0.000000 1.048009 -1.563778
v 0.000000 1.058410 -1.234399
vt 0.748473 0.546194
vt 0.746475 0.546194
vt 0.746475 0.569168
vt 0.749487 0.569168
vt 0.749487 0.547113
vt 0.748008 0.414778
vt 0.747004 0.414778
vt 0.743947 0.438336
vt 0.742942 0.415362
vt 0.742942 0.434855
vt 0.744119 0.453812
vt 0.743106 0.453812
vt 0.743545 0.473037
vt 0.744938 0.477446
vt 0.744742 0.473037
vt 0.744188 0.487708
vt 0.744358 0.492262
vt 0.745919 0.525981
vt 0.745799 0.511488
vt 0.744938 0.526036
vt 0.744954 0.529190
vt 0.745454 0.492262
vt 0.744797 0.511487
vt 0.744758 0.544097
vt 0.745437 0.561610
vt 0.745532 0.559550
vt 0.744383 0.546219
vt 0.744188 0.568633
vt 0.744449 0.569158
vt 0.743088 0.549938
vt 0.743929 0.537960
vt 0.743891 0.530812
vt 0.742961 0.537960
vt 0.744938 0.534018
vt 0.744904 0.537960
vt 0.743937 0.440989
vt 0.744188 0.456743
vt 0.742942 0.525981
vt 0.743891 0.525981
vt 0.743891 0.515605
vt 0.742942 0.515605
vt 0.745847 0.415362
vt 0.745847 0.438336
vt 0.742942 0.528639
vt 0.744188 0.545425
vt 0.743354 0.559550
vt 0.745793 0.549937
vt 0.745937 0.530039
vt 0.744498 0.546311
vt 0.744938 0.567520
vt 0.743565 0.563562
vt 0.732552 0.476551
vt 0.732478 0.464821
vt 0.733304 0.464821
vt 0.733377 0.476551
vt 0.733552 0.521123
vt 0.734148 0.521123
vt 0.734221 0.532852
vt 0.733625 0.532852
vt 0.734973 0.521123
vt 0.735047 0.532852
vt 0.735441 0.521123
vt 0.735514 0.532852
vt 0.732799 0.532852
vt 0.732341 0.532852
vt 0.732267 0.521123
vt 0.732726 0.521123
vt 0.733781 0.570387
vt 0.732955 0.570387
vt 0.735203 0.570387
vt 0.734377 0.570387
vt 0.734799 0.476551
vt 0.733974 0.476551
vt 0.732102 0.476551
vt 0.732029 0.464821
vt 0.733900 0.464821
vt 0.734726 0.464821
vt 0.735193 0.464821
vt 0.735267 0.476551
vt 0.733707 0.414776
vt 0.734533 0.414776
vt 0.732286 0.414776
vt 0.733111 0.414776
vt 0.740846 0.438368
vt 0.740107 0.438404
vt 0.739122 0.415362
vt 0.740769 0.415362
vt 0.741305 0.416664
vt 0.741032 0.438883
vt 0.741166 0.440183
vt 0.741851 0.421862
vt 0.742052 0.426381
vt 0.741300 0.443086
vt 0.741388 0.448417
vt 0.742211 0.431890
vt 0.742308 0.437399
vt 0.742124 0.428525
vt 0.741411 0.459436
vt 0.742397 0.452513
vt 0.742396 0.459436
vt 0.742391 0.448418
vt 0.741411 0.454388
vt 0.740107 0.546581
vt 0.739122 0.569622
vt 0.740846 0.546616
vt 0.740769 0.569622
vt 0.741305 0.568320
vt 0.741032 0.546102
vt 0.741166 0.544801
vt 0.741300 0.541899
vt 0.742052 0.558604
vt 0.741851 0.563123
vt 0.741388 0.536567
vt 0.742308 0.547585
vt 0.742211 0.553095
vt 0.742124 0.556459
vt 0.741410 0.525548
vt 0.742396 0.525548
vt 0.742397 0.532471
vt 0.741411 0.530596
vt 0.742391 0.536566
vt 0.737064 0.438403
vt 0.737064 0.570387
vt 0.736079 0.569622
vt 0.736079 0.415362
vt 0.738804 0.438403
vt 0.738804 0.415362
vn 1.000000 0.000000 0.000000
vn 1.000000 0.000000 0.000000
vn 1.000000 0.000000 0.000000
vn 1.000000 0.000000 0.000000
vn 1.000000 0.000000 0.000000
vn 1.000000 0.000000 0.000000
vn 1.000000 0.000000 0.000000
vn 1.000000 0.000000 0.000000
vn 1.000000 0.000000 0.000000
vn 1.000000 0.000000 0.000000
vn 1.000000 0.000000 0.000000
vn 1.000000 0.000000 0.000000
vn 1.000000 0.000000 0.000000
vn 1.000000 0.000000 0.000000
vn 1.000000 0.000000 0.000000
vn 1.000000 0.000000 0.000000
vn 1.000000 0.000000 0.000000
vn 1.000000 0.000000 0.000000
vn 1.000000 0.000000 0.000000
vn 1.000000 0.000000 0.000000
vn 1.000000 0.000000 0.000000
vn 1.000000 0.000000 0.000000
vn 1.000000 0.000000 0.000000
vn 1.000000 0.000000 0.000000
vn 1.000000 0.000000 0.000000
vn 1.000000 0.000000 0.000000
vn 1.000000 0.000000 0.000000
vn 1.000000 0.000000 0.000000
vn 1.000000 0.000000 0.000000
vn 1.000000 0.000000 0.000000
vn 1.000000 0.000000 0.000000
vn 1.000000 0.000000 0.000000
vn 1.000000 0.000000 0.000000
vn 1.000000 0.000000 0.000000
vn 1.000000 0.000000 0.000000
vn 1.000000 0.000000 0.000000
vn 1.000000 0.000000 0.000000
vn 1.000000 0.000000 0.000000
vn 1.000000 0.000000 0.000000
vn 1.000000 0.000000 0.000000
vn 1.000000 0.000000 0.000000
vn 1.000000 0.000000 0.000000
vn 1.000000 0.000000 0.000000
vn 1.000000 0.000000 0.000000
vn 1.000000 0.000000 0.000000
vn 1.000000 0.000000 0.000000
vn 1.000000 0.000000 0.000000
vn 1.000000 0.000000 0.000000
vn 1.000000 0.000000 0.000000
vn 1.000000 0.000000 0.000000
vn 1.000000 0.000000 0.000000
vn 1.000000 0.000000 0.000000
vn 1.000000 0.000000 0.000000
vn 1.000000 0.000000 0.000000
vn 1.000000 0.000000 0.000000
vn 1.000000 0.000000 0.000000
vn 1.000000 0.000000 0.000000
vn 1.000000 0.000000 0.000000
vn 1.000000 0.000000 0.000000
vn 1.000000 0.000000 0.000000
vn 1.000000 0.000000 0.000000
vn 1.000000 0.000000 0.000000
vn 1.000000 0.000000 0.000000
vn 1.000000 0.000000 0.000000
vn 1.000000 0.000000 0.000000
vn 1.000000 0.000000 0.000000
vn 1.000000 0.000000 0.000000
vn 1.000000 0.000000 0.000000
vn 1.000000 0.000000 0.000000
vn 1.000000 0.000000 0.000000
vn 1.000000 0.000000 0.000000
vn 1.000000 0.000000 0.000000
vn 1.000000 0.000000 0.000000
vn 1.000000 0.000000 0.000000
vn 1.000000 0.000000 0.000000
vn 1.000000 0.000000 0.000000
vn 1.000000 0.000000 0.000000
vn 1.000000 0.000000 0.000000
vn 1.000000 0.000000 0.000000
vn 1.000000 0.000000 0.000000
vn 1.000000 0.000000 0.000000
vn 1.000000 0.000000 0.000000
vn 1.000000 0.000000 0.000000
vn -1.000000 0.000000 0.000000
vn -1.000000 0.000000 0.000000
vn -1.000000 0.000000 0.000000
vn -1.000000 0.000000 0.000000
vn -1.000000 0.000000 0.000000
vn -1.000000 0.000000 0.000000
vn -1.000000 0.000000 0.000000
vn -1.000000 0.000000 0.000000
vn -1.000000 0.000000 0.000000
vn -1.000000 0.000000 0.000000
vn -1.000000 0.000000 0.000000
vn -1.000000 0.000000 0.000000
vn -1.000000 0.000000 0.000000
vn -1.000000 0.000000 0.000000
vn -1.000000 0.000000 0.000000
vn -1.000000 0.000000 0.000000
vn -1.000000 0.000000 0.000000
vn -1.000000 0.000000 0.000000
vn -1.000000 0.000000 0.000000
vn -1.000000 0.000000 0.000000
vn -1.000000 0.000000 0.000000
vn -1.000000 0.000000 0.000000
vn -1.000000 0.000000 0.000000
vn -1.000000 0.000000 0.000000
vn -1.000000 0.000000 0.000000
vn -1.000000 0.000000 0.000000
vn -1.000000 0.000000 0.000000
vn -1.000000 0.000000 0.000000
vn -1.000000 0.000000 0.000000
vn -1.000000 0.000000 0.000000
vn -1.000000 0.000000 0.000000
vn -1.000000 0.000000 0.000000
vn -1.000000 -0.000001 -0.000001
vn -1.000000 0.000000 0.000000
vn -1.000000 0.000000 0.000000
vn -1.000000 -0.000000 -0.000001
vn -1.000000 0.000001 0.000002
vn -1.000000 0.000001 0.000001
vn -1.000000 0.000001 0.000003
vn -1.000000 0.000001 0.000001
vn -1.000000 -0.000003 -0.000004
vn -1.000000 -0.000002 -0.000003
vn -1.000000 0.000000 0.000000
vn -1.000000 0.000000 0.000000
vn -1.000000 0.000000 0.000000
vn -1.000000 0.000000 0.000000
vn -1.000000 0.000000 0.000000
vn -1.000000 0.000000 0.000000
vn -1.000000 0.000000 0.000000
vn -1.000000 0.000000 0.000000
vn -1.000000 0.000000 0.000000
vn -1.000000 0.000000 0.000000
vn -1.000000 0.000000 0.000000
vn -1.000000 0.000001 -0.000001
vn -1.000000 0.000000 -0.000001
vn -1.000000 -0.000001 0.000002
vn -1.000000 -0.000001 0.000001
vn -1.000000 -0.000001 0.000003
vn -1.000000 0.000002 -0.000003
vn -1.000000 0.000003 -0.000004
vn -1.000000 -0.000001 0.000001
vn -1.000000 0.000000 0.000000
vn -1.000000 0.000000 0.000000
vn -1.000000 0.000000 0.000000
vn -1.000000 0.000000 0.000000
vn -1.000000 0.000000 0.000000
vn -1.000000 0.000000 0.000000
vn -1.000000 0.000000 0.000000
vn -1.000000 0.000000 0.000000
vn -1.000000 0.000000 0.000000
vn -1.000000 0.000000 0.000000
vn -1.000000 0.000000 0.000000
vn -1.000000 0.000000 0.000000
vn -1.000000 0.000000 0.000000
vn -1.000000 0.000000 0.000000
vn -1.000000 0.000000 0.000000
s off
f 5/1/1 6/2/2 7/3/3 1/4/4
f 5/1/5 2/5/6 3/6/7 4/7/8
f 5/1/9 1/4/10 2/5/11
s 1
f 15/8/12 19/9/13 20/10/14
f 25/11/15 26/12/16 29/13/17
s 3
f 27/14/18 28/15/19 31/16/20 24/17/21
s 4
f 34/18/22 35/19/23 38/20/24 21/21/25
f 35/19/23 23/22/26 36/23/27 38/20/24
s off
f 46/24/28 42/25/29 41/26/30
f 10/27/31 49/28/32 14/29/33
f 43/30/34 47/31/35 9/32/36 48/33/37
s 4
f 39/34/38 45/35/39 34/18/22
s 1
f 26/12/16 25/11/15 16/36/40
f 16/36/40 15/8/12 20/10/14
f 20/10/14 26/12/16 16/36/40
f 29/13/17 30/37/41 25/11/15
s 6
f 33/38/42 32/39/43 8/40/44 11/41/45
s 4
f 21/21/25 39/34/38 34/18/22
s off
f 18/42/46 19/9/47 15/8/48 17/43/49
s 1
f 31/16/50 28/15/51 30/37/41 29/13/17
s 3
f 36/23/52 23/22/53 27/14/18 24/17/21
s 6
f 48/33/54 9/32/55 32/39/43 33/38/42 13/44/56
s off
f 44/45/57 47/31/58 43/30/59 50/46/60
f 46/24/61 40/47/62 45/35/63
s 4
f 45/35/39 40/47/64 12/48/65 34/18/22
s off
f 46/24/66 41/26/67 40/47/68
f 22/49/69 37/50/70 42/25/71 46/24/72
f 10/27/73 14/29/74 37/50/75 22/49/76
f 10/27/77 44/45/78 51/51/79 49/28/80
f 51/51/81 44/45/82 50/46/83
s 7
f 59/52/84 56/53/85 53/54/86 80/55/87
f 83/56/88 82/57/89 67/58/90 66/59/91
f 82/57/89 73/60/92 70/61/93 67/58/90
f 73/60/92 72/62/94 71/63/95 70/61/93
f 63/64/96 62/65/97 61/66/98 60/67/99
f 65/68/100 64/69/101 63/64/96 66/59/91
f 70/61/93 69/70/102 68/71/103 67/58/90
f 74/72/104 73/60/92 82/57/89 81/73/105
f 63/64/96 60/67/99 83/56/88 66/59/91
f 59/52/84 58/74/106 57/75/107 56/53/85
f 80/55/87 53/54/86 52/76/108 81/73/105
f 77/77/109 76/78/110 75/79/111 74/72/104
f 52/76/108 79/80/112 78/81/113 77/77/109
f 52/76/108 77/77/109 74/72/104 81/73/105
f 56/53/85 55/82/114 54/83/115 53/54/86
f 59/52/84 80/55/87 83/56/88 60/67/99
s 9
f 89/84/116 87/85/117 84/86/118 85/87/119
f 92/88/120 101/89/121 89/84/116 85/87/119
f 102/90/122 100/91/123 97/92/124 93/93/125
f 102/90/122 101/89/121 92/88/120 100/91/123
f 96/94/126 98/95/127 94/96/128
f 93/93/125 97/92/124 99/97/129
f 93/93/125 99/97/129 98/95/127 96/94/126
f 91/98/130 86/99/131 90/100/132
f 96/94/126 94/96/128 95/101/133 88/102/134
f 88/102/134 95/101/133 86/99/131 91/98/130
f 84/86/118 87/85/117 106/103/135 103/104/136
f 108/105/137 104/106/138 103/104/136 106/103/135
f 111/107/139 104/106/138 108/105/137 120/108/140
f 121/109/141 112/110/142 116/111/143 119/112/144
f 121/109/141 119/112/144 111/107/139 120/108/140
f 115/113/145 113/114/146 117/115/147
f 112/110/142 118/116/148 116/111/143
f 112/110/142 115/113/145 117/115/147 118/116/148
f 110/117/149 109/118/150 105/119/151
f 115/113/145 107/120/152 114/121/153 113/114/146
f 107/120/152 110/117/149 105/119/151 114/121/153
f 90/100/132 109/118/150 110/117/149 91/98/130
s 14
f 122/122/154 127/123/155 126/124/156 125/125/157
f 123/126/158 122/122/154 125/125/157 124/127/159
