# This file uses centimeters as units for non-parametric coordinates.

v 0.000000 -1.126632 2.650445
v 0.000000 -1.303065 2.586601
v 0.000000 -1.382606 2.416667
v 0.000000 1.382606 2.416667
v 0.000000 1.303065 2.586601
v 0.000000 1.126632 2.650445
v 0.000000 1.126632 -2.650445
v 0.000000 1.303065 -2.586601
v 0.000000 1.382606 -2.416667
v 0.000000 -1.382606 -2.416667
v 0.000000 -1.303065 -2.586601
v 0.000000 -1.126632 -2.650445
v -0.097008 -1.200459 2.496157
v -0.097008 -1.024026 2.560000
v -0.097008 -1.280000 2.326222
v -0.157199 -1.280000 2.326222
v -0.157199 -1.200459 2.496157
v -0.157199 -1.024026 2.560000
v -0.097008 1.200459 2.496157
v -0.097008 1.280000 2.326222
v -0.097008 1.024026 2.560000
v -0.157199 1.280000 2.326222
v -0.157199 1.200459 2.496157
v -0.157199 1.024026 2.560000
v -0.097008 1.200459 -2.496157
v -0.097008 1.024026 -2.560000
v -0.097008 1.280000 -2.326222
v -0.157199 1.024026 -2.560000
v -0.157199 1.200459 -2.496157
v -0.157199 1.280000 -2.326222
v -0.097008 -1.200459 -2.496157
v -0.097008 -1.280000 -2.326222
v -0.097008 -1.024026 -2.560000
v -0.157199 -1.280000 -2.326222
v -0.157199 -1.200459 -2.496157
v -0.157199 -1.024026 -2.560000
v -0.081412 1.382606 2.416667
v -0.081412 1.382606 -2.416667
v -0.081412 1.303065 -2.586601
v -0.081412 1.126632 -2.650445
v -0.081412 -1.126632 -2.650445
v -0.081412 -1.303065 -2.586601
v -0.081412 -1.382606 -2.416667
v -0.081412 -1.382606 2.416667
v -0.081412 -1.303065 2.586601
v -0.081412 -1.126631 2.650445
v -0.081412 1.126632 2.650445
v -0.081412 1.303065 2.586601
vt 0.972345 0.867561
vt 0.972345 0.126947
vt 0.064498 0.932416
vt 0.935502 0.932416
vt 0.027655 0.126947
vt 0.027655 0.867561
vt 0.935502 0.062092
vt 0.064499 0.062092
vt 0.965962 0.853668
vt 0.965962 0.140840
vt 1.000000 0.032634
vt 1.000000 0.961874
vt 0.067294 0.917521
vt 0.932706 0.917521
vt 0.964893 0.996981
vt 0.035107 0.996981
vt 0.034038 0.140840
vt 0.034038 0.853668
vt 0.000000 0.961874
vt 0.000000 0.032634
vt 0.932707 0.076987
vt 0.067294 0.076987
vt 0.035107 -0.002473
vt 0.964893 -0.002473
vt 0.989717 0.007809
vt 0.989717 0.986699
vt 0.010283 0.986699
vt 0.010283 0.007809
vt 0.955589 0.092594
vt 0.961075 0.078283
vt 0.955589 0.901914
vt 0.961075 0.916225
vt 0.044411 0.901914
vt 0.038925 0.916225
vt 0.044411 0.092594
vt 0.038925 0.078283
vt 0.039759 0.169115
vt 0.081788 0.086404
vt 0.918212 0.086404
vt 0.960241 0.169115
vt 0.948764 0.112106
vt 0.948764 0.887895
vt 0.918212 0.913596
vt 0.960241 0.830885
vt 0.051237 0.887895
vt 0.039759 0.830885
vt 0.081788 0.913596
vt 0.051236 0.112105
vt 0.960801 0.976780
vt 0.039199 0.976780
vt 0.018670 0.967487
vt 0.009229 0.942760
vt 0.009229 0.051748
vt 0.018670 0.027022
vt 0.039199 0.017728
vt 0.960801 0.017728
vt 0.981330 0.027022
vt 0.990771 0.051748
vt 0.990771 0.942760
vt 0.981330 0.967486
vn -0.771466 0.009024 0.636207
vn -0.771466 -0.009024 0.636207
vn -0.405086 -0.034223 0.913638
vn -0.405086 0.034223 0.913638
vn -0.806819 0.590769 -0.005863
vn -0.806819 0.590769 0.005863
vn -0.451381 0.892134 0.018741
vn -0.451381 0.892134 -0.018741
vn -0.771466 -0.009024 -0.636207
vn -0.771466 0.009024 -0.636207
vn -0.405086 0.034223 -0.913638
vn -0.405086 -0.034223 -0.913638
vn -0.806819 -0.590769 0.005863
vn -0.806819 -0.590769 -0.005863
vn -0.451381 -0.892134 -0.018741
vn -0.451381 -0.892134 0.018741
vn 0.000000 -0.028688 -0.999588
vn 0.000000 -0.028688 -0.999588
vn 0.000000 0.028688 -0.999588
vn 0.000000 0.028688 -0.999588
vn 0.000000 -0.999864 0.016492
vn 0.000000 -0.999864 0.016492
vn 0.000000 -0.999864 -0.016492
vn 0.000000 -0.999864 -0.016492
vn 0.000000 0.028688 0.999588
vn 0.000000 0.028688 0.999588
vn 0.000000 -0.028688 0.999588
vn 0.000000 -0.028688 0.999588
vn 0.000000 0.999864 -0.016492
vn 0.000000 0.999864 -0.016492
vn 0.000000 0.999864 0.016492
vn 0.000000 0.999864 0.016492
vn -1.000000 -0.000000 0.000000
vn -1.000000 -0.000000 0.000000
vn -1.000000 -0.000000 0.000000
vn -1.000000 -0.000000 0.000000
vn -0.604531 -0.544890 0.581065
vn -0.872996 -0.321603 0.366675
vn 0.000000 0.674367 -0.738397
vn 0.000000 0.674367 -0.738397
vn 0.000000 -0.674367 -0.738396
vn 0.000000 -0.674367 -0.738396
vn -0.872996 0.321603 0.366674
vn -0.604531 0.544890 0.581066
vn 0.000000 -0.674367 0.738396
vn 0.000000 -0.674367 0.738396
vn -0.872996 0.321603 -0.366674
vn -0.604531 0.544890 -0.581065
vn 0.000000 0.674367 0.738397
vn 0.000000 0.674367 0.738397
vn -0.872996 -0.321603 -0.366674
vn -0.604531 -0.544890 -0.581066
vn -1.000000 0.000000 0.000000
vn -1.000000 0.000000 0.000000
vn -1.000000 0.000000 0.000000
vn -1.000000 0.000000 0.000000
vn -1.000000 0.000000 0.000000
vn -1.000000 0.000000 0.000000
vn -1.000000 0.000000 0.000000
vn -1.000000 0.000000 0.000000
vn 0.000000 0.999874 0.015896
vn 0.000000 0.999874 -0.015896
vn 0.000000 0.674367 -0.738396
vn 0.000000 0.026267 -0.999655
vn 0.000000 -0.026267 -0.999655
vn 0.000000 -0.674367 -0.738396
vn 0.000000 -0.999874 -0.015896
vn 0.000000 -0.999874 0.015896
vn -0.000002 -0.674366 0.738397
vn -0.000000 -0.026267 0.999655
vn 0.000000 0.026267 0.999655
vn 0.000000 0.674367 0.738396
s 1
f 24/1/1 18/2/2 46/58/3 47/59/4
f 30/3/5 22/4/6 37/49/7 38/50/8
f 36/5/9 28/6/10 40/52/11 41/53/12
f 16/7/13 34/8/14 43/55/15 44/56/16
s 5
f 24/1/17 21/9/18 14/10/19 18/2/20
f 30/3/21 27/13/22 20/14/23 22/4/24
f 36/5/25 33/17/26 26/18/27 28/6/28
f 16/7/29 15/21/30 32/22/31 34/8/32
s 9
f 33/37/33 32/38/34 15/39/35 14/40/36
s 1
f 16/7/13 44/56/16 45/57/37 17/30/38
f 45/57/37 46/58/3 18/2/2 17/30/38
s 5
f 14/10/19 13/29/39 17/30/40 18/2/20
f 13/29/39 15/21/30 16/7/29 17/30/40
f 20/14/23 19/31/41 23/32/42 22/4/24
f 19/31/41 21/9/18 24/1/17 23/32/42
s 1
f 37/49/7 22/4/6 23/32/43 48/60/44
f 23/32/43 24/1/1 47/59/4 48/60/44
s 5
f 26/18/27 25/33/45 29/34/46 28/6/28
f 25/33/45 27/13/22 30/3/21 29/34/46
s 1
f 40/52/11 28/6/10 29/34/47 39/51/48
f 29/34/47 30/3/5 38/50/8 39/51/48
s 5
f 32/22/31 31/35/49 35/36/50 34/8/32
f 31/35/49 33/17/26 36/5/25 35/36/50
s 1
f 43/55/15 34/8/14 35/36/51 42/54/52
f 35/36/51 36/5/9 41/53/12 42/54/52
s 9
f 13/41/53 14/40/36 15/39/35
f 19/42/54 20/43/55 21/44/56
f 25/45/57 26/46/58 27/47/59
f 31/48/60 32/38/34 33/37/33
f 33/37/33 14/40/36 21/44/56 26/46/58
f 26/46/58 21/44/56 20/43/55 27/47/59
s 1
f 38/50/8 37/49/7 4/15/61 9/16/62
f 39/51/48 38/50/8 9/16/62 8/27/63
f 7/19/64 40/52/11 39/51/48 8/27/63
f 41/53/12 40/52/11 7/19/64 12/20/65
f 42/54/52 41/53/12 12/20/65 11/28/66
f 10/23/67 43/55/15 42/54/52 11/28/66
f 44/56/16 43/55/15 10/23/67 3/24/68
f 45/57/37 44/56/16 3/24/68 2/25/69
f 1/11/70 46/58/3 45/57/37 2/25/69
f 47/59/4 46/58/3 1/11/70 6/12/71
f 48/60/44 47/59/4 6/12/71 5/26/72
f 4/15/61 37/49/7 48/60/44 5/26/72
