# This file uses centimeters as units for non-parametric coordinates.

v 5.000000 14.797071 5.000000
v 5.000000 -4.700000 -4.500002
v 5.000000 14.797071 -4.500002
v 5.000000 4.876254 5.000000
v 5.000000 4.876254 1.600731
v 5.000000 -4.700000 1.600731
vt 0.743626 1.000000
vt 0.256374 1.000000
vt 0.256374 0.000000
vt 0.743626 0.509040
vt 0.569279 0.509040
vt 0.569279 0.000000
vn -1.000000 -0.000000 0.000000
vn -1.000000 -0.000000 0.000000
vn -1.000000 -0.000000 0.000000
vn -1.000000 -0.000000 0.000000
vn -1.000000 0.000000 0.000000
vn -1.000000 0.000000 0.000000
vn -1.000000 0.000000 0.000000
vn -1.000000 0.000000 0.000000
s off
f 5/5/1 4/4/2 1/1/3 3/2/4
f 3/2/5 2/3/6 6/6/7 5/5/8
