# This file uses centimeters as units for non-parametric coordinates.

v -0.500000 0.000000 -5.000002
v -7.000000 -0.200000 -5.000002
v -7.000000 0.060565 -5.000002
v -0.500000 0.000000 4.999998
v -7.000000 0.060565 4.999998
v -7.000000 -0.200000 4.999998
v -10.000000 -0.200000 4.999998
v -10.000000 -0.200000 -5.000002
v -6.524380 0.000000 -5.000002
v -6.524380 0.000000 4.999998
v -10.000000 -0.200000 2.499998
v -7.000000 -0.200000 2.499998
v -7.000000 0.058869 2.499998
v -6.559860 0.000000 2.499998
v -10.000000 -0.200000 -0.000002
v -7.000000 -0.200000 -0.000002
v -7.000000 0.111988 -0.000002
v -6.578724 0.000000 -0.000002
v -0.500000 0.000000 -0.000002
v -10.000000 -0.200000 -2.500002
v -7.000000 -0.200000 -2.500002
v -7.000000 0.060565 -2.500002
v -6.524380 0.000000 -2.500002
v -6.524380 0.035328 4.999998
v -6.559860 0.035328 2.499998
v -6.578724 0.035328 -0.000002
v -6.524380 0.035328 -2.500002
v -6.524380 0.035328 -5.000002
vt 0.594814 1.000000
vt 0.001992 1.000000
vt 0.001992 0.747015
vt 0.594814 0.497665
vt 0.001992 0.497665
vt 0.594814 0.000000
vt 0.001992 0.248316
vt 0.001992 0.000000
vt 0.639531 1.000000
vt 0.613486 1.000000
vt 0.613486 0.747015
vt 0.639517 0.747015
vt 0.642011 0.497665
vt 0.613486 0.497665
vt 0.639407 0.248316
vt 0.613486 0.248316
vt 0.639476 0.000000
vt 0.613486 0.000000
vt 0.995530 1.000000
vt 0.702958 1.000000
vt 0.702958 0.747015
vt 0.995530 0.747015
vt 0.702958 0.497665
vt 0.995530 0.497665
vt 0.702958 0.248316
vt 0.995530 0.248316
vt 0.702958 0.000000
vt 0.995530 0.000000
vt 0.682749 0.747009
vt 0.682749 1.000000
vt 0.687749 0.497652
vt 0.688958 1.000000
vt 0.682749 0.497661
vt 0.687145 0.248303
vt 0.682749 0.248312
vt 0.688353 0.747000
vt 0.682749 0.000000
vt 0.686541 0.000000
vn 0.000000 1.000000 0.000000
vn 0.000000 1.000000 0.000000
vn 0.000000 1.000000 0.000000
vn -1.000000 0.000000 0.000000
vn -1.000000 0.000000 0.000000
vn -1.000000 0.000000 0.000000
vn -1.000000 0.000000 0.000000
vn 0.000000 1.000000 0.000000
vn 0.000000 1.000000 0.000000
vn 0.000000 1.000000 0.000000
vn 0.000000 1.000000 0.000000
vn 0.081958 0.996626 -0.004346
vn 0.052987 0.998595 0.000000
vn 0.052987 0.998595 0.000000
vn 0.082177 0.996608 -0.004378
vn 0.000000 1.000000 0.000000
vn 0.000000 1.000000 0.000000
vn 0.000000 1.000000 0.000000
vn 0.000000 1.000000 0.000000
vn -1.000000 0.000000 0.000000
vn -1.000000 0.000000 0.000000
vn -1.000000 0.000000 0.000000
vn -1.000000 0.000000 0.000000
vn 0.053190 0.998584 -0.000716
vn 0.083320 0.996513 0.004514
vn 0.083546 0.996494 0.004553
vn 0.053190 0.998584 -0.000716
vn 0.000000 1.000000 0.000000
vn 0.000000 1.000000 0.000000
vn 0.000000 1.000000 0.000000
vn 0.000000 1.000000 0.000000
vn 0.000000 1.000000 0.000000
vn -1.000000 0.000000 0.000000
vn -1.000000 0.000000 0.000000
vn 0.114181 0.993460 0.000329
vn 0.114187 0.993459 0.000371
vn 0.000000 1.000000 0.000000
vn 0.000000 1.000000 0.000000
vn 0.999899 0.000000 -0.014191
vn 0.999941 0.000000 -0.010868
vn 0.999941 0.000000 -0.010868
vn 0.999899 0.000000 -0.014191
vn 0.999975 0.000000 0.007096
vn 0.999975 0.000000 0.007096
vn 0.999941 -0.000011 0.010868
vn 0.999941 -0.000011 0.010868
vn 1.000000 -0.000022 0.000000
vn 1.000000 -0.000022 0.000000
s 1
f 1/1/1 9/2/2 23/3/3
s 2
f 3/9/4 2/10/5 21/11/6 22/12/7
s 3
f 2/19/8 8/20/9 20/21/10 21/22/11
s 4
f 27/29/12 28/30/13 3/9/14 22/12/15
s 3
f 12/26/16 11/25/17 7/27/18 6/28/19
s 2
f 5/17/20 13/15/21 12/16/22 6/18/23
s 4
f 24/37/24 25/35/25 13/15/26 5/17/27
s 1
f 4/6/28 14/7/29 10/8/30
s 3
f 16/24/31 15/23/32 11/25/17 12/26/16
s 2
f 13/15/21 17/13/33 16/14/34 12/16/22
s 4
f 25/35/25 26/33/35 17/13/36 13/15/26
s 1
f 4/6/28 19/4/37 18/5/38 14/7/29
s 3
f 21/22/11 20/21/10 15/23/32 16/24/31
s 2
f 17/13/33 22/12/7 21/11/6 16/14/34
s 4
f 26/33/35 27/29/12 22/12/15 17/13/36
s 1
f 19/4/37 1/1/1 23/3/3 18/5/38
s 9
f 10/38/39 14/34/40 25/35/41 24/37/42
f 14/34/40 18/31/43 26/33/44 25/35/41
f 18/31/43 23/36/45 27/29/46 26/33/44
f 23/36/45 9/32/47 28/30/48 27/29/46
