# This file uses centimeters as units for non-parametric coordinates.

v -0.500000 0.000000 -5.000002
v -7.000000 -0.200000 -5.000002
v -7.000000 0.000000 -5.000002
v -0.500000 0.000000 4.999998
v -7.000000 0.000000 4.999998
v -7.000000 -0.200000 4.999998
v -10.000000 -0.200000 4.999998
v -10.000000 -0.200000 -5.000002
vt 0.509730 0.002113
vt 0.625648 0.002113
vt 0.625648 0.388506
vt 0.509730 0.388506
vt 0.631981 0.388506
vt 0.631981 0.002113
vt 0.639709 0.002113
vt 0.639709 0.388506
vt 0.647028 0.388506
vt 0.647028 0.002113
vt 0.724307 0.002113
vt 0.724307 0.388506
vn 0.000000 1.000000 0.000000
vn 0.000000 1.000000 0.000000
vn 0.000000 1.000000 0.000000
vn 0.000000 1.000000 0.000000
vn -1.000000 0.000000 0.000000
vn -1.000000 0.000000 0.000000
vn -1.000000 0.000000 0.000000
vn -1.000000 0.000000 0.000000
vn 0.000000 1.000000 0.000000
vn 0.000000 1.000000 0.000000
vn 0.000000 1.000000 0.000000
vn 0.000000 1.000000 0.000000
s off
f 1/1/1 3/2/2 5/3/3 4/4/4
f 2/5/5 6/6/6 5/7/7 3/8/8
f 6/9/9 2/10/10 8/11/11 7/12/12
