# This file uses centimeters as units for non-parametric coordinates.

v 0.634972 0.065148 0.634972
v 0.634971 0.065148 -0.634975
v 0.511494 0.190525 0.511494
v 0.511493 0.190525 -0.511497
v 0.390228 1.581592 0.390228
v 0.390227 1.581592 -0.390231
v 0.511494 1.491123 0.511494
v 0.511493 1.491123 -0.511497
v 0.588682 1.491123 0.588682
v 0.605127 1.581592 0.605127
v 0.588681 1.491123 -0.588686
v 0.605126 1.581592 -0.605130
v 0.634971 0.000000 -0.634975
v 0.634972 0.000000 0.634972
v 0.105217 1.131354 0.105217
v 0.105216 1.131354 -0.105220
v 0.488868 0.520998 0.488869
v 0.488867 0.520998 -0.488872
v 0.488868 1.225854 0.488869
v 0.488867 1.225854 -0.488872
v 0.689031 1.916700 0.689031
v 0.689031 1.916700 -0.689034
v 0.352050 2.147518 0.352050
v 0.352049 2.147518 -0.352053
v 0.704442 1.971313 0.704442
v 0.704440 1.971313 -0.704445
v 0.479408 2.073562 0.479409
v 0.479407 2.073562 -0.479411
v 0.284232 2.147518 0.284232
v 0.284231 2.147518 -0.284235
v 0.284232 2.113186 0.284232
v 0.284232 2.113186 -0.284234
v 0.516920 1.581592 0.379622
v 0.379622 1.581592 0.379622
v 0.516920 1.916700 0.379622
v 0.379622 1.916700 0.379622
v 0.516920 1.916700 0.516920
v 0.379622 1.916700 0.516920
v 0.516920 1.581592 0.516920
v 0.379622 1.581592 0.516920
v -0.634975 0.065148 -0.634975
v -0.511497 0.190525 -0.511497
v -0.390231 1.581592 -0.390231
v -0.511497 1.491123 -0.511497
v -0.588686 1.491123 -0.588686
v -0.605130 1.581592 -0.605130
v -0.634975 0.000000 -0.634975
v -0.105220 1.131354 -0.105220
v -0.488872 0.520998 -0.488872
v -0.488872 1.225854 -0.488872
v -0.689033 1.916700 -0.689034
v -0.352054 2.147518 -0.352053
v -0.704445 1.971313 -0.704444
v -0.479412 2.073562 -0.479411
v -0.284236 2.147518 -0.284235
v -0.284234 2.113186 -0.284234
v 0.379622 1.581592 -0.516924
v 0.379622 1.581592 -0.379626
v 0.379622 1.916700 -0.516924
v 0.379622 1.916700 -0.379626
v 0.516920 1.916700 -0.516924
v 0.516920 1.916700 -0.379626
v 0.516920 1.581592 -0.516924
v 0.516920 1.581592 -0.379626
v -0.634974 0.065148 0.634972
v -0.511496 0.190525 0.511494
v -0.390230 1.581592 0.390228
v -0.511496 1.491123 0.511494
v -0.588684 1.491123 0.588682
v -0.605129 1.581592 0.605127
v -0.634974 0.000000 0.634972
v -0.105219 1.131354 0.105217
v -0.488871 0.520998 0.488869
v -0.488871 1.225854 0.488869
v -0.689034 1.916700 0.689031
v -0.352052 2.147518 0.352050
v -0.704444 1.971313 0.704442
v -0.479410 2.073562 0.479409
v -0.284234 2.147518 0.284232
v -0.284234 2.113186 0.284232
v -0.516924 1.581592 -0.379626
v -0.379626 1.581592 -0.379626
v -0.516924 1.916700 -0.379626
v -0.379626 1.916700 -0.379626
v -0.516924 1.916700 -0.516924
v -0.379626 1.916700 -0.516924
v -0.516924 1.581592 -0.516924
v -0.379626 1.581592 -0.516924
v -0.379624 1.581592 0.516922
v -0.379624 1.581592 0.379624
v -0.379624 1.916700 0.516922
v -0.379624 1.916700 0.379624
v -0.516922 1.916700 0.516922
v -0.516922 1.916700 0.379624
v -0.516922 1.581592 0.516922
v -0.516922 1.581592 0.379624
vt 1.523719 0.026103
vt 1.994985 0.026106
vt 1.949163 0.091493
vt 1.569539 0.091490
vt 1.540892 0.604052
vt 1.977803 0.604054
vt 1.983905 0.638311
vt 1.534790 0.638309
vt 1.577933 0.476273
vt 1.940764 0.476274
vt 1.949160 0.575244
vt 1.569536 0.575243
vt 1.904157 0.718146
vt 1.614536 0.718144
vt 1.523719 0.001898
vt 1.994985 0.001901
vt 1.798392 0.915917
vt 1.720301 0.915917
vt 1.940766 0.214546
vt 1.577935 0.214545
vt 1.085405 0.626077
vt 1.441213 0.626054
vt 1.393957 0.680699
vt 1.132671 0.680733
vt 1.157840 0.718627
vt 1.368793 0.718616
vt 1.519004 0.513287
vt 1.007617 0.513286
vt 1.524722 0.534343
vt 1.001898 0.534343
vt 1.368792 0.705869
vt 1.157840 0.705894
vt 1.427790 0.777566
vt 1.427633 0.726621
vt 1.551988 0.726238
vt 1.552145 0.777192
vt 1.552294 0.828151
vt 1.552434 0.879111
vt 1.428079 0.879444
vt 1.427939 0.828504
vt 1.428211 0.930389
vt 1.552566 0.930065
vt 1.523719 0.026103
vt 1.994985 0.026106
vt 1.949163 0.091493
vt 1.569539 0.091490
vt 1.540892 0.604052
vt 1.977803 0.604054
vt 1.983905 0.638311
vt 1.534790 0.638309
vt 1.577933 0.476273
vt 1.940764 0.476274
vt 1.949160 0.575244
vt 1.569536 0.575243
vt 1.904157 0.718146
vt 1.614536 0.718144
vt 1.523719 0.001898
vt 1.994985 0.001901
vt 1.798392 0.915917
vt 1.720301 0.915917
vt 1.940766 0.214546
vt 1.577935 0.214545
vt 1.085405 0.626077
vt 1.441213 0.626054
vt 1.393957 0.680699
vt 1.132671 0.680733
vt 1.007617 0.513286
vt 1.519004 0.513287
vt 1.524722 0.534343
vt 1.001898 0.534343
vt 1.368792 0.705869
vt 1.157840 0.705894
vt 1.368793 0.718616
vt 1.157840 0.718627
vt 1.427790 0.777566
vt 1.427633 0.726621
vt 1.551988 0.726238
vt 1.552145 0.777192
vt 1.552294 0.828151
vt 1.552434 0.879111
vt 1.428079 0.879444
vt 1.427939 0.828504
vt 1.428211 0.930389
vt 1.552566 0.930065
vt 1.523719 0.026103
vt 1.994985 0.026106
vt 1.949163 0.091493
vt 1.569539 0.091490
vt 1.540892 0.604052
vt 1.977803 0.604054
vt 1.983905 0.638311
vt 1.534790 0.638309
vt 1.577933 0.476273
vt 1.940764 0.476274
vt 1.949160 0.575244
vt 1.569536 0.575243
vt 1.904157 0.718146
vt 1.614536 0.718144
vt 1.523719 0.001898
vt 1.994985 0.001901
vt 1.798392 0.915917
vt 1.720301 0.915917
vt 1.940766 0.214546
vt 1.577935 0.214545
vt 1.085405 0.626077
vt 1.441213 0.626054
vt 1.393957 0.680699
vt 1.132671 0.680733
vt 1.007617 0.513286
vt 1.519004 0.513287
vt 1.524722 0.534343
vt 1.001898 0.534343
vt 1.368792 0.705869
vt 1.157840 0.705894
vt 1.368793 0.718616
vt 1.157840 0.718627
vt 1.427790 0.777566
vt 1.427633 0.726621
vt 1.551988 0.726238
vt 1.552145 0.777192
vt 1.552294 0.828151
vt 1.552434 0.879111
vt 1.428079 0.879444
vt 1.427939 0.828504
vt 1.428211 0.930389
vt 1.552566 0.930065
vt 0.523719 0.026103
vt 0.994985 0.026106
vt 0.949163 0.091493
vt 0.569539 0.091490
vt 0.540892 0.604052
vt 0.977803 0.604054
vt 0.983905 0.638311
vt 0.534790 0.638309
vt 0.577933 0.476273
vt 0.940764 0.476274
vt 0.949160 0.575244
vt 0.569536 0.575243
vt 0.904157 0.718146
vt 0.614536 0.718144
vt 0.523719 0.001898
vt 0.994985 0.001901
vt 0.798392 0.915917
vt 0.720301 0.915917
vt 0.940766 0.214546
vt 0.577935 0.214545
vt 0.085405 0.626077
vt 0.441213 0.626054
vt 0.393957 0.680699
vt 0.132671 0.680733
vt 0.157840 0.718627
vt 0.368793 0.718616
vt 0.368792 0.929574
vt 0.157840 0.929573
vt 0.007618 0.001898
vt 0.519005 0.001898
vt 0.519004 0.513287
vt 0.007617 0.513286
vt 0.524722 0.534343
vt 0.001898 0.534343
vt 0.368792 0.705869
vt 0.157840 0.705894
vt 0.427790 0.777566
vt 0.427633 0.726621
vt 0.551988 0.726238
vt 0.552145 0.777192
vt 0.552294 0.828151
vt 0.552434 0.879111
vt 0.428079 0.879444
vt 0.427939 0.828504
vt 0.428211 0.930389
vt 0.552566 0.930065
vn 0.712483 0.701689 -0.000001
vn 0.712483 0.701689 -0.000001
vn 0.712483 0.701689 -0.000001
vn 0.712483 0.701689 -0.000001
vn 0.983878 -0.178839 -0.000001
vn 0.983878 -0.178839 -0.000001
vn 0.983878 -0.178839 -0.000001
vn 0.983878 -0.178839 -0.000001
vn 0.999697 -0.024615 -0.000001
vn 0.999697 -0.024615 -0.000001
vn 0.996382 -0.084986 -0.000001
vn 0.996382 -0.084986 -0.000001
vn 0.000000 -1.000000 0.000000
vn 0.000000 -1.000000 0.000000
vn 0.000000 -1.000000 0.000000
vn 0.000000 -1.000000 0.000000
vn 0.000000 1.000000 0.000000
vn 0.000000 1.000000 0.000000
vn 0.000000 1.000000 0.000000
vn 0.000000 1.000000 0.000000
vn 1.000000 0.000000 -0.000001
vn 1.000000 0.000000 -0.000001
vn 1.000000 0.000000 -0.000001
vn 1.000000 0.000000 -0.000001
vn -0.844938 0.534865 0.000002
vn -0.844938 0.534865 0.000002
vn -0.844938 0.534865 0.000002
vn -0.844938 0.534865 0.000002
vn 0.997665 0.068305 -0.000001
vn 0.997665 0.068305 -0.000001
vn 0.999739 0.022832 -0.000001
vn 0.999739 0.022832 -0.000001
vn 0.425823 0.904807 -0.000000
vn 0.425823 0.904806 -0.000000
vn 0.502165 0.864772 -0.000000
vn 0.502165 0.864772 -0.000000
vn 0.962421 -0.271562 -0.000001
vn 0.962421 -0.271562 -0.000001
vn 0.962421 -0.271562 -0.000001
vn 0.962421 -0.271562 -0.000001
vn 0.413672 0.910426 -0.000000
vn 0.413672 0.910426 -0.000000
vn 0.000000 1.000000 0.000000
vn 0.000000 1.000000 0.000000
vn 0.000000 1.000000 0.000000
vn 0.000000 1.000000 0.000000
vn -1.000000 -0.000012 0.000001
vn -1.000000 -0.000012 0.000001
vn -1.000000 -0.000012 0.000001
vn -1.000000 -0.000012 0.000001
vn 0.000000 0.000000 -1.000000
vn 0.000000 0.000000 -1.000000
vn 0.000000 0.000000 -1.000000
vn 0.000000 0.000000 -1.000000
vn 0.000000 0.000000 1.000000
vn 0.000000 0.000000 1.000000
vn 0.000000 0.000000 1.000000
vn 0.000000 0.000000 1.000000
vn -1.000000 0.000000 0.000000
vn -1.000000 0.000000 0.000000
vn -1.000000 0.000000 0.000000
vn -1.000000 0.000000 0.000000
vn 1.000000 0.000000 0.000000
vn 1.000000 0.000000 0.000000
vn 1.000000 0.000000 0.000000
vn 1.000000 0.000000 0.000000
vn 0.000000 0.701689 -0.712484
vn 0.000000 0.701689 -0.712484
vn 0.000000 0.701689 -0.712483
vn 0.000000 0.701689 -0.712483
vn 0.000000 -0.178838 -0.983879
vn 0.000000 -0.178838 -0.983879
vn 0.000000 -0.178838 -0.983879
vn 0.000000 -0.178838 -0.983879
vn 0.000000 -0.024615 -0.999697
vn 0.000000 -0.024615 -0.999697
vn 0.000000 -0.084986 -0.996382
vn 0.000000 -0.084986 -0.996382
vn 0.000000 -1.000000 -0.000001
vn 0.000000 -1.000000 -0.000001
vn 0.000000 -1.000000 -0.000001
vn 0.000000 -1.000000 -0.000001
vn 0.000000 1.000000 -0.000000
vn 0.000000 1.000000 -0.000000
vn 0.000000 1.000000 -0.000000
vn 0.000000 1.000000 -0.000000
vn 0.000000 0.000000 -1.000000
vn 0.000000 0.000000 -1.000000
vn 0.000000 0.000000 -1.000000
vn 0.000000 0.000000 -1.000000
vn 0.000000 0.534865 0.844938
vn 0.000000 0.534865 0.844938
vn 0.000000 0.534865 0.844938
vn 0.000000 0.534865 0.844938
vn 0.000000 0.068305 -0.997665
vn 0.000000 0.068305 -0.997665
vn 0.000000 0.022832 -0.999739
vn 0.000000 0.022832 -0.999739
vn -0.000000 0.904807 -0.425823
vn -0.000000 0.904807 -0.425823
vn -0.000000 0.864772 -0.502165
vn -0.000000 0.864772 -0.502165
vn -0.000000 -0.271569 -0.962419
vn -0.000000 -0.271569 -0.962419
vn -0.000000 -0.271569 -0.962419
vn -0.000000 -0.271569 -0.962419
vn -0.000000 0.910426 -0.413672
vn -0.000000 0.910426 -0.413672
vn 0.000000 1.000000 -0.000003
vn 0.000000 1.000000 -0.000003
vn 0.000000 1.000000 -0.000003
vn 0.000000 1.000000 -0.000003
vn 0.000000 0.000036 1.000000
vn 0.000000 0.000036 1.000000
vn 0.000000 0.000036 1.000000
vn 0.000000 0.000036 1.000000
vn -1.000000 0.000000 0.000000
vn -1.000000 0.000000 0.000000
vn -1.000000 0.000000 0.000000
vn -1.000000 0.000000 0.000000
vn 1.000000 0.000000 0.000000
vn 1.000000 0.000000 0.000000
vn 1.000000 0.000000 0.000000
vn 1.000000 0.000000 0.000000
vn 0.000000 0.000000 1.000000
vn 0.000000 0.000000 1.000000
vn 0.000000 0.000000 1.000000
vn 0.000000 0.000000 1.000000
vn 0.000000 0.000000 -1.000000
vn 0.000000 0.000000 -1.000000
vn 0.000000 0.000000 -1.000000
vn 0.000000 0.000000 -1.000000
vn -0.712483 0.701689 0.000001
vn -0.712483 0.701689 0.000001
vn -0.712483 0.701689 0.000001
vn -0.712483 0.701689 0.000001
vn -0.983878 -0.178839 0.000001
vn -0.983878 -0.178839 0.000001
vn -0.983878 -0.178839 0.000001
vn -0.983878 -0.178839 0.000001
vn -0.999697 -0.024615 0.000001
vn -0.999697 -0.024615 0.000001
vn -0.996382 -0.084986 0.000001
vn -0.996382 -0.084986 0.000001
vn 0.000000 -1.000000 0.000000
vn 0.000000 -1.000000 0.000000
vn 0.000000 -1.000000 0.000000
vn 0.000000 -1.000000 0.000000
vn 0.000000 1.000000 -0.000000
vn 0.000000 1.000000 -0.000000
vn 0.000000 1.000000 -0.000000
vn 0.000000 1.000000 -0.000000
vn -1.000000 0.000000 0.000001
vn -1.000000 0.000000 0.000001
vn -1.000000 0.000000 0.000001
vn -1.000000 0.000000 0.000001
vn 0.844938 0.534865 -0.000002
vn 0.844938 0.534865 -0.000002
vn 0.844938 0.534865 -0.000002
vn 0.844938 0.534865 -0.000002
vn -0.997664 0.068305 0.000001
vn -0.997665 0.068305 0.000001
vn -0.999739 0.022832 0.000001
vn -0.999739 0.022832 0.000001
vn -0.425823 0.904807 0.000000
vn -0.425823 0.904807 0.000000
vn -0.502165 0.864772 0.000000
vn -0.502165 0.864772 0.000000
vn -0.962416 -0.271579 0.000000
vn -0.962416 -0.271579 0.000000
vn -0.962416 -0.271579 0.000000
vn -0.962416 -0.271579 0.000000
vn -0.413672 0.910426 0.000000
vn -0.413672 0.910426 0.000000
vn 0.000000 1.000000 0.000000
vn 0.000000 1.000000 0.000000
vn 0.000000 1.000000 0.000000
vn 0.000000 1.000000 0.000000
vn 1.000000 0.000017 -0.000001
vn 1.000000 0.000017 -0.000001
vn 1.000000 0.000017 -0.000001
vn 1.000000 0.000017 -0.000001
vn 0.000000 0.000000 1.000000
vn 0.000000 0.000000 1.000000
vn 0.000000 0.000000 1.000000
vn 0.000000 0.000000 1.000000
vn 0.000000 0.000000 -1.000000
vn 0.000000 0.000000 -1.000000
vn 0.000000 0.000000 -1.000000
vn 0.000000 0.000000 -1.000000
vn 1.000000 0.000000 0.000000
vn 1.000000 0.000000 0.000000
vn 1.000000 0.000000 0.000000
vn 1.000000 0.000000 0.000000
vn -1.000000 0.000000 0.000000
vn -1.000000 0.000000 0.000000
vn -1.000000 0.000000 0.000000
vn -1.000000 0.000000 0.000000
vn 0.000000 0.701689 0.712483
vn 0.000000 0.701689 0.712483
vn 0.000000 0.701689 0.712483
vn 0.000000 0.701689 0.712483
vn 0.000000 -0.178839 0.983878
vn 0.000000 -0.178839 0.983878
vn 0.000000 -0.178839 0.983878
vn 0.000000 -0.178839 0.983878
vn 0.000000 -0.024615 0.999697
vn 0.000000 -0.024615 0.999697
vn 0.000000 -0.084986 0.996382
vn 0.000000 -0.084986 0.996382
vn 0.000000 -1.000000 0.000002
vn 0.000000 -1.000000 0.000002
vn 0.000000 -1.000000 0.000002
vn 0.000000 -1.000000 0.000002
vn 0.000000 1.000000 0.000000
vn 0.000000 1.000000 0.000000
vn 0.000000 1.000000 0.000000
vn 0.000000 1.000000 0.000000
vn 0.000000 0.000000 1.000000
vn 0.000000 0.000000 1.000000
vn 0.000000 0.000000 1.000000
vn 0.000000 0.000000 1.000000
vn 0.000000 0.534865 -0.844938
vn 0.000000 0.534865 -0.844938
vn 0.000000 0.534865 -0.844938
vn 0.000000 0.534865 -0.844938
vn 0.000000 0.068305 0.997665
vn 0.000000 0.068305 0.997665
vn 0.000000 0.022832 0.999739
vn 0.000000 0.022832 0.999739
vn 0.000000 0.864772 0.502165
vn 0.000000 0.864772 0.502164
vn 0.000000 0.864772 0.502164
vn 0.000000 0.864772 0.502164
vn 0.000000 1.000000 0.000000
vn 0.000000 1.000000 0.000000
vn 0.000000 1.000000 0.000000
vn 0.000000 1.000000 0.000000
vn 0.000000 -1.000000 0.000000
vn 0.000000 -1.000000 0.000000
vn 0.000000 -1.000000 0.000000
vn 0.000000 -1.000000 0.000000
vn 0.000000 -0.271568 0.962419
vn 0.000000 -0.271568 0.962419
vn 0.000000 -0.271568 0.962419
vn 0.000000 -0.271568 0.962419
vn 0.000000 0.910426 0.413673
vn 0.000000 0.910426 0.413673
vn 0.000000 0.910426 0.413673
vn 0.000000 0.910426 0.413673
vn 0.000000 1.000000 0.000001
vn 0.000000 1.000000 0.000001
vn 0.000000 1.000000 0.000001
vn 0.000000 1.000000 0.000001
vn 0.000000 0.000000 -1.000000
vn 0.000000 0.000000 -1.000000
vn 0.000000 0.000000 -1.000000
vn 0.000000 0.000000 -1.000000
vn 1.000000 0.000000 0.000000
vn 1.000000 0.000000 0.000000
vn 1.000000 0.000000 0.000000
vn 1.000000 0.000000 0.000000
vn -1.000000 0.000000 0.000000
vn -1.000000 0.000000 0.000000
vn -1.000000 0.000000 0.000000
vn -1.000000 0.000000 0.000000
vn 0.000000 0.000000 -1.000000
vn 0.000000 0.000000 -1.000000
vn 0.000000 0.000000 -1.000000
vn 0.000000 0.000000 -1.000000
vn 0.000000 0.000000 1.000000
vn 0.000000 0.000000 1.000000
vn 0.000000 0.000000 1.000000
vn 0.000000 0.000000 1.000000
s off
f 1/1/1 2/2/2 4/3/3 3/4/4
f 9/5/5 11/6/6 12/7/7 10/8/8
s 1
f 19/9/9 20/10/10 8/11/11 7/12/12
s off
f 7/12/13 8/11/14 11/6/15 9/5/16
f 6/13/17 5/14/18 10/8/19 12/7/20
f 2/2/21 1/1/22 14/15/23 13/16/24
f 5/14/25 6/13/26 16/17/27 15/18/28
s 1
f 3/4/29 4/3/30 18/19/31 17/20/32
f 17/20/32 18/19/31 20/10/10 19/9/9
s 2
f 27/21/33 28/22/34 24/23/35 23/24/36
s off
f 21/28/37 22/27/38 26/29/39 25/30/40
s 2
f 25/30/41 26/29/42 28/22/34 27/21/33
s off
f 23/24/43 24/23/44 30/31/45 29/32/46
f 29/32/47 30/31/48 32/26/49 31/25/50
f 33/33/51 34/34/52 36/35/53 35/36/54
f 37/37/55 38/38/56 40/39/57 39/40/58
f 34/41/59 40/39/60 38/38/61 36/42/62
f 39/40/63 33/33/64 35/36/65 37/37/66
f 2/43/67 41/44/68 42/45/69 4/46/70
f 11/47/71 45/48/72 46/49/73 12/50/74
s 3
f 20/51/75 50/52/76 44/53/77 8/54/78
s off
f 8/54/79 44/53/80 45/48/81 11/47/82
f 43/55/83 6/56/84 12/50/85 46/49/86
f 41/44/87 2/43/88 13/57/89 47/58/90
f 6/56/91 43/55/92 48/59/93 16/60/94
s 3
f 4/46/95 42/45/96 49/61/97 18/62/98
f 18/62/98 49/61/97 50/52/76 20/51/75
s 4
f 28/63/99 54/64/100 52/65/101 24/66/102
s off
f 22/67/103 51/68/104 53/69/105 26/70/106
s 4
f 26/70/107 53/69/108 54/64/100 28/63/99
s off
f 24/66/109 52/65/110 55/71/111 30/72/112
f 30/72/113 55/71/114 56/73/115 32/74/116
f 57/75/117 58/76/118 60/77/119 59/78/120
f 61/79/121 62/80/122 64/81/123 63/82/124
f 58/83/125 64/81/126 62/80/127 60/84/128
f 63/82/129 57/75/130 59/78/131 61/79/132
f 41/85/133 65/86/134 66/87/135 42/88/136
f 45/89/137 69/90/138 70/91/139 46/92/140
s 5
f 50/93/141 74/94/142 68/95/143 44/96/144
s off
f 44/96/145 68/95/146 69/90/147 45/89/148
f 67/97/149 43/98/150 46/92/151 70/91/152
f 65/86/153 41/85/154 47/99/155 71/100/156
f 43/98/157 67/97/158 72/101/159 48/102/160
s 5
f 42/88/161 66/87/162 73/103/163 49/104/164
f 49/104/164 73/103/163 74/94/142 50/93/141
s 6
f 54/105/165 78/106/166 76/107/167 52/108/168
s off
f 51/109/169 75/110/170 77/111/171 53/112/172
s 6
f 53/112/173 77/111/174 78/106/166 54/105/165
s off
f 52/108/175 76/107/176 79/113/177 55/114/178
f 55/114/179 79/113/180 80/115/181 56/116/182
f 81/117/183 82/118/184 84/119/185 83/120/186
f 85/121/187 86/122/188 88/123/189 87/124/190
f 82/125/191 88/123/192 86/122/193 84/126/194
f 87/124/195 81/117/196 83/120/197 85/121/198
f 65/127/199 1/128/200 3/129/201 66/130/202
f 69/131/203 9/132/204 10/133/205 70/134/206
s 7
f 74/135/207 19/136/208 7/137/209 68/138/210
s off
f 68/138/211 7/137/212 9/132/213 69/131/214
f 5/139/215 67/140/216 70/134/217 10/133/218
f 1/128/219 65/127/220 71/141/221 14/142/222
f 67/140/223 5/139/224 15/143/225 72/144/226
s 7
f 66/130/227 3/129/228 17/145/229 73/146/230
f 73/146/230 17/145/229 19/136/208 74/135/207
s off
f 78/147/231 27/148/232 23/149/233 76/150/234
f 80/151/235 31/152/236 32/153/237 56/154/238
f 51/155/239 22/156/240 21/157/241 75/158/242
f 75/158/243 21/157/244 25/159/245 77/160/246
f 77/160/247 25/159/248 27/148/249 78/147/250
f 76/150/251 23/149/252 29/161/253 79/162/254
f 79/162/255 29/161/256 31/152/257 80/151/258
f 89/163/259 90/164/260 92/165/261 91/166/262
f 93/167/263 94/168/264 96/169/265 95/170/266
f 90/171/267 96/169/268 94/168/269 92/172/270
f 95/170/271 89/163/272 91/166/273 93/167/274
